<svg width="182" height="264" viewBox="0 0 182 264" fill="none" xmlns="http://www.w3.org/2000/svg">
<path fill-rule="evenodd" clip-rule="evenodd" d="M83.4132 263.971C65.9509 263.971 65.9235 234.642 83.4132 234.642L182.44 234.642L182.44 263.971L83.4132 263.971ZM182.44 175.979L13.1067 175.979C-4.38213 175.979 -4.35552 205.308 13.1067 205.308L182.44 205.308L182.44 175.979ZM62.2862 146.65C44.8248 146.65 44.7974 117.321 62.2862 117.321L182.44 117.321L182.44 146.65L62.2862 146.65ZM36.4029 87.9899C18.9415 87.9899 18.9106 58.661 36.4029 58.661L182.439 58.661L182.439 87.9899L36.4029 87.9899ZM77.4696 0.000448587C59.9773 0.000447058 60.0073 29.3294 77.4695 29.3294L182.44 29.3294L182.44 0.000457764L77.4696 0.000448587Z" fill="#FE5000"/>
</svg>
