<svg width="166" height="239" viewBox="0 0 166 239" fill="none" xmlns="http://www.w3.org/2000/svg">
<path fill-rule="evenodd" clip-rule="evenodd" d="M89.66 -1.56766e-05C105.47 -1.99349e-05 105.495 26.5545 89.66 26.5545L0.000454122 26.5545L0.000447331 8.47156e-06L89.66 -1.56766e-05ZM0.00043518 79.6681L153.316 79.6681C169.15 79.6681 169.126 53.1136 153.316 53.1136L0.000428389 53.1136L0.00043518 79.6681ZM108.788 106.223C124.598 106.223 124.623 132.777 108.788 132.777L2.72115e-05 132.777L1.85726e-05 106.223L108.788 106.223ZM132.223 159.334C148.033 159.334 148.061 185.888 132.223 185.888L0.00127882 185.888L0.00127203 159.334L132.223 159.334ZM95.0414 239C110.879 239 110.852 212.445 95.0414 212.445L0.000362305 212.445L0.000369096 239L95.0414 239Z" fill="#FEFEFE"/>
</svg>
