<svg width="182" height="265" viewBox="0 0 182 265" fill="none" xmlns="http://www.w3.org/2000/svg">
<mask id="path-1-inside-1_91_2785" fill="white">
<path fill-rule="evenodd" clip-rule="evenodd" d="M83.4413 264.485C65.9732 264.485 65.9457 235.147 83.4413 235.147L182.502 235.147L182.502 264.485L83.4413 264.485ZM182.502 176.464L13.1111 176.464C-4.38361 176.464 -4.35698 205.803 13.1111 205.803L182.502 205.803L182.502 176.464ZM62.307 147.124C44.8397 147.124 44.8123 117.786 62.307 117.786L182.502 117.786L182.502 147.124L62.307 147.124ZM36.4151 88.4438C18.9478 88.4438 18.9169 59.105 36.4151 59.105L182.501 59.105L182.501 88.4438L36.4151 88.4438ZM77.4956 0.425089C59.9974 0.42509 60.0275 29.7639 77.4956 29.7639L182.502 29.7639L182.502 0.425079L77.4956 0.425089Z"/>
</mask>
<path d="M83.4413 235.147L83.4413 234.147L83.4413 235.147ZM83.4413 264.485L83.4413 265.485L83.4413 264.485ZM182.502 235.147L183.502 235.147L183.502 234.147L182.502 234.147L182.502 235.147ZM182.502 264.485L182.502 265.485L183.502 265.485L183.502 264.485L182.502 264.485ZM13.1111 176.464L13.1111 177.464L13.1111 176.464ZM182.502 176.464L183.502 176.464L183.502 175.464L182.502 175.464L182.502 176.464ZM13.1111 205.803L13.1111 204.803L13.1111 205.803ZM182.502 205.803L182.502 206.803L183.502 206.803L183.502 205.803L182.502 205.803ZM62.307 117.786L62.307 118.786L62.307 117.786ZM62.307 147.124L62.307 148.124L62.307 147.124ZM182.502 117.786L183.502 117.786L183.502 116.786L182.502 116.786L182.502 117.786ZM182.502 147.124L182.502 148.124L183.502 148.124L183.502 147.124L182.502 147.124ZM36.4151 59.105L36.4151 60.105L36.4151 59.105ZM36.4151 88.4438L36.4151 89.4438L36.4151 88.4438ZM182.501 59.105L183.501 59.105L183.501 58.105L182.501 58.105L182.501 59.105ZM182.501 88.4438L182.501 89.4438L183.501 89.4438L183.501 88.4438L182.501 88.4438ZM77.4956 29.7639L77.4956 30.7639L77.4956 29.7639ZM182.502 29.7639L182.502 30.7639L183.502 30.7639L183.502 29.7639L182.502 29.7639ZM182.502 0.425079L183.502 0.425079L183.502 -0.574921L182.502 -0.574921L182.502 0.425079ZM83.4413 234.147C78.7546 234.147 75.1905 236.126 72.8209 239.109C70.4718 242.066 69.3281 245.964 69.3299 249.816C69.3317 253.669 70.4791 257.566 72.8287 260.523C75.1988 263.506 78.761 265.485 83.4413 265.485L83.4413 263.485C79.3876 263.485 76.3958 261.797 74.3945 259.279C72.3729 256.735 71.3315 253.298 71.3299 249.815C71.3283 246.333 72.3664 242.896 74.3869 240.353C76.3869 237.835 79.3802 236.147 83.4413 236.147L83.4413 234.147ZM182.502 234.147L83.4413 234.147L83.4413 236.147L182.502 236.147L182.502 234.147ZM183.502 264.485L183.502 235.147L181.502 235.147L181.502 264.485L183.502 264.485ZM83.4413 265.485L182.502 265.485L182.502 263.485L83.4413 263.485L83.4413 265.485ZM13.1111 177.464L182.502 177.464L182.502 175.464L13.1111 175.464L13.1111 177.464ZM13.1111 204.803C9.0574 204.803 6.06564 203.115 4.06449 200.597C2.04289 198.053 1.00164 194.616 1.00005 191.133C0.998483 187.651 2.0366 184.214 4.05712 181.67C6.05709 179.153 9.05025 177.464 13.1111 177.464L13.1111 175.464C8.42461 175.464 4.86059 177.443 2.49104 180.427C0.142037 183.384 -1.00169 187.282 -0.999945 191.134C-0.99819 194.986 0.149057 198.884 2.49865 201.841C4.86869 204.824 8.43081 206.803 13.1111 206.803L13.1111 204.803ZM182.502 204.803L13.1111 204.803L13.1111 206.803L182.502 206.803L182.502 204.803ZM181.502 176.464L181.502 205.803L183.502 205.803L183.502 176.464L181.502 176.464ZM62.307 116.786C57.6205 116.786 54.0565 118.765 51.687 121.748C49.3381 124.705 48.1944 128.603 48.1962 132.456C48.198 136.308 49.3453 140.206 51.6949 143.162C54.0649 146.145 57.6269 148.124 62.307 148.124L62.307 146.124C58.2535 146.124 55.2618 144.437 53.2607 141.918C51.2392 139.374 50.1979 135.937 50.1962 132.455C50.1946 128.972 51.2327 125.536 53.2531 122.992C55.253 120.474 58.2461 118.786 62.307 118.786L62.307 116.786ZM182.502 116.786L62.307 116.786L62.307 118.786L182.502 118.786L182.502 116.786ZM183.502 147.124L183.502 117.786L181.502 117.786L181.502 147.124L183.502 147.124ZM62.307 148.124L182.502 148.124L182.502 146.124L62.307 146.124L62.307 148.124ZM36.4151 58.105C31.7278 58.105 28.1634 60.084 25.7937 63.0672C23.4445 66.0245 22.301 69.9228 22.303 73.7749C22.3051 77.6271 23.4527 81.5249 25.8025 84.4818C28.1728 87.4644 31.735 89.4438 36.4151 89.4438L36.4151 87.4438C32.3616 87.4438 29.3697 85.7559 27.3683 83.2375C25.3464 80.6933 24.3049 77.2564 24.303 73.7739C24.3012 70.2913 25.3392 66.8549 27.3597 64.3112C29.3598 61.7933 32.3533 60.105 36.4151 60.105L36.4151 58.105ZM182.501 58.105L36.4151 58.105L36.4151 60.105L182.501 60.105L182.501 58.105ZM183.501 88.4438L183.501 59.105L181.501 59.105L181.501 88.4438L183.501 88.4438ZM36.4151 89.4438L182.501 89.4438L182.501 87.4438L36.4151 87.4438L36.4151 89.4438ZM77.4956 28.7639C73.4418 28.7639 70.4498 27.076 68.4484 24.5576C66.4265 22.0134 65.385 18.5765 65.3832 15.094C65.3814 11.6115 66.4194 8.175 68.4401 5.6313C70.4402 3.11344 73.4338 1.42509 77.4956 1.42509L77.4956 -0.574911C72.8083 -0.574911 69.2438 1.40409 66.8741 4.38728C64.5249 7.34461 63.3812 11.2428 63.3832 15.095C63.3852 18.9472 64.5328 22.845 66.8826 25.8019C69.253 28.7845 72.8153 30.7639 77.4956 30.7639L77.4956 28.7639ZM182.502 28.7639L77.4956 28.7639L77.4956 30.7639L182.502 30.7639L182.502 28.7639ZM181.502 0.425079L181.502 29.7639L183.502 29.7639L183.502 0.425079L181.502 0.425079ZM77.4956 1.42509L182.502 1.42508L182.502 -0.574921L77.4956 -0.574911L77.4956 1.42509Z" fill="#FEFEFE" mask="url(#path-1-inside-1_91_2785)"/>
</svg>
