<svg xmlns="http://www.w3.org/2000/svg" width="50" height="50" viewBox="0 0 50 50" fill="none"><g clip-path="url(#clip0_3358_13702)"><path d="M26.0001 34.5C26.0001 34.5 25.1694 32.5 25.0029 32.3333C45.5053 22.4922 48.5212 28.7924 48.9428 31.3778C49.0111 31.7963 48.9481 32.2208 48.8189 32.6247C48.3432 34.1117 47.7322 35.5381 47.0002 36.8896C45.5 38.3897 37.0002 38.5 37.0002 38.5L26.0001 34.5Z" fill="#102E7A"/><path d="M26.0001 34.5C26.0001 34.5 25.1694 32.5 25.0029 32.3333C45.5053 22.4922 48.5212 28.7924 48.9428 31.3778C49.0111 31.7963 48.9481 32.2208 48.8189 32.6247C48.3432 34.1117 47.7322 35.5381 47.0002 36.8896C45.5 38.3897 37.0002 38.5 37.0002 38.5L26.0001 34.5Z" fill="url(#paint0_linear_3358_13702)" fill-opacity="0.3"/><path d="M20.9998 14L25.0029 17.6667C4.50058 27.5078 1.48464 21.2076 1.06305 18.6222C0.994805 18.2037 1.05777 17.7792 1.18696 17.3753C1.57545 16.1609 2.05425 14.9868 2.61547 13.861C6.71163 5.64435 14.5 11 14.5 11L20.9998 14Z" fill="#006158"/><path d="M20.9998 14L25.0029 17.6667C4.50058 27.5078 1.48464 21.2076 1.06305 18.6222C0.994805 18.2037 1.05777 17.7792 1.18696 17.3753C1.57545 16.1609 2.05425 14.9868 2.61547 13.861C6.71163 5.64435 14.5 11 14.5 11L20.9998 14Z" fill="url(#paint1_linear_3358_13702)" fill-opacity="0.2"/><path d="M1.18731 32.6252C1.05811 32.2214 0.994983 31.7963 1.06323 31.3778C1.48482 28.7924 4.50075 22.4922 25.0031 32.3333C39.2004 39.148 45.0126 38.2227 47.3848 36.1506C43.2864 44.361 34.8033 50 25.0031 50C13.8551 50 4.41139 42.7033 1.18731 32.6252Z" fill="#1BB6F9"/><path d="M1.18731 32.6252C1.05811 32.2214 0.994983 31.7963 1.06323 31.3778C1.48482 28.7924 4.50075 22.4922 25.0031 32.3333C39.2004 39.148 45.0126 38.2227 47.3848 36.1506C43.2864 44.361 34.8033 50 25.0031 50C13.8551 50 4.41139 42.7033 1.18731 32.6252Z" fill="url(#paint2_linear_3358_13702)" fill-opacity="0.2"/><path d="M48.8185 17.3748C48.9477 17.7786 49.0109 18.2037 48.9426 18.6222C48.521 21.2076 45.5051 27.5078 25.0028 17.6667C10.8055 10.852 4.99323 11.7773 2.62109 13.8494C6.71945 5.63903 15.2026 -1.04783e-06 25.0028 -1.9107e-07C36.1507 7.83518e-07 45.5945 7.29673 48.8185 17.3748Z" fill="#00CEB3"/><path d="M48.8185 17.3748C48.9477 17.7786 49.0109 18.2037 48.9426 18.6222C48.521 21.2076 45.5051 27.5078 25.0028 17.6667C10.8055 10.852 4.99323 11.7773 2.62109 13.8494C6.71945 5.63903 15.2026 -1.04783e-06 25.0028 -1.9107e-07C36.1507 7.83518e-07 45.5945 7.29673 48.8185 17.3748Z" fill="url(#paint3_linear_3358_13702)" fill-opacity="0.2"/></g><defs><linearGradient id="paint0_linear_3358_13702" x1="25.0029" y1="27" x2="48.5857" y2="39.3056" gradientUnits="userSpaceOnUse"><stop stop-color="white"/><stop offset="1" stop-color="white" stop-opacity="0"/></linearGradient><linearGradient id="paint1_linear_3358_13702" x1="25.0029" y1="23" x2="-0.180089" y2="11.9817" gradientUnits="userSpaceOnUse"><stop stop-color="white"/><stop offset="1" stop-color="white" stop-opacity="0"/></linearGradient><linearGradient id="paint2_linear_3358_13702" x1="1" y1="27" x2="47.2294" y2="50.3081" gradientUnits="userSpaceOnUse"><stop stop-color="white"/><stop offset="1" stop-color="white" stop-opacity="0"/></linearGradient><linearGradient id="paint3_linear_3358_13702" x1="49.0059" y1="23" x2="2.77641" y2="-0.308076" gradientUnits="userSpaceOnUse"><stop stop-color="white"/><stop offset="1" stop-color="white" stop-opacity="0"/></linearGradient><clipPath id="clip0_3358_13702"><rect width="50" height="50" fill="white"/></clipPath></defs></svg>