<svg xmlns="http://www.w3.org/2000/svg" width="50" height="50" viewBox="0 0 50 50" fill="none"><path fill-rule="evenodd" clip-rule="evenodd" d="M21.8974 17H5V13C5 10.7909 6.79086 9 9 9H24.8373L32.1842 17H46C48.2091 17 50 18.7909 50 21V25H29.2444L21.8974 17Z" fill="#FC787D"/><path fill-rule="evenodd" clip-rule="evenodd" d="M21.8974 17H5V13C5 10.7909 6.79086 9 9 9H24.8373L32.1842 17H46C48.2091 17 50 18.7909 50 21V25H29.2444L21.8974 17Z" fill="url(#paint0_linear_3358_13543)" fill-opacity="0.2"/><path fill-rule="evenodd" clip-rule="evenodd" d="M16.7724 33H0V29C0 26.7909 1.79087 25 4.00001 25H19.9623L27.3092 34H41C43.2091 34 45 35.7909 45 38V42H24.1193L16.7724 33Z" fill="#00CEB3"/><path fill-rule="evenodd" clip-rule="evenodd" d="M16.7724 33H0V29C0 26.7909 1.79087 25 4.00001 25H19.9623L27.3092 34H41C43.2091 34 45 35.7909 45 38V42H24.1193L16.7724 33Z" fill="url(#paint1_linear_3358_13543)" fill-opacity="0.2"/><path fill-rule="evenodd" clip-rule="evenodd" d="M31.2251 25H50V21C50 18.7909 48.2091 17 46 17H27.9586L19.7953 25H4C1.79086 25 0 26.7909 0 29V33H23.0618L31.2251 25Z" fill="#93407D"/><path fill-rule="evenodd" clip-rule="evenodd" d="M31.2251 25H50V21C50 18.7909 48.2091 17 46 17H27.9586L19.7953 25H4C1.79086 25 0 26.7909 0 29V33H23.0618L31.2251 25Z" fill="url(#paint2_linear_3358_13543)" fill-opacity="0.2"/><path d="M24.968 31.1319L19.9623 25H4.00001C3.72386 25 3.45425 25.028 3.19386 25.0813C2.05814 25.3137 1.09775 26.0274 0.535129 27C0.194789 27.5883 0 28.2714 0 29V33H23.0618L24.968 31.1319Z" fill="#003458"/><path d="M24.968 31.1319L19.9623 25H4.00001C3.72386 25 3.45425 25.028 3.19386 25.0813C2.05814 25.3137 1.09775 26.0274 0.535129 27C0.194789 27.5883 0 28.2714 0 29V33H23.0618L24.968 31.1319Z" fill="url(#paint3_linear_3358_13543)" fill-opacity="0.3"/><defs><linearGradient id="paint0_linear_3358_13543" x1="5" y1="9" x2="42.6409" y2="35.4663" gradientUnits="userSpaceOnUse"><stop stop-color="white"/><stop offset="1" stop-color="white" stop-opacity="0"/></linearGradient><linearGradient id="paint1_linear_3358_13543" x1="0" y1="25" x2="39.1187" y2="50.8874" gradientUnits="userSpaceOnUse"><stop stop-color="white"/><stop offset="1" stop-color="white" stop-opacity="0"/></linearGradient><linearGradient id="paint2_linear_3358_13543" x1="0" y1="17" x2="38.8114" y2="47.3214" gradientUnits="userSpaceOnUse"><stop stop-color="white"/><stop offset="1" stop-color="white" stop-opacity="0"/></linearGradient><linearGradient id="paint3_linear_3358_13543" x1="0" y1="25" x2="19.3997" y2="40.1366" gradientUnits="userSpaceOnUse"><stop stop-color="white"/><stop offset="1" stop-color="white" stop-opacity="0"/></linearGradient></defs></svg>