<?xml version="1.0" encoding="UTF-8"?>
<svg xmlns="http://www.w3.org/2000/svg" width="50" height="50" viewBox="0 0 50 50" fill="none">
  <path d="M30.8419 34.6117L22.7368 44.9992L5.45233 31.3699C3.78959 30.0442 3.51384 27.6186 4.83642 25.952L10.5844 18.709L30.8419 34.6117Z" fill="#93407D"/>
  <path d="M30.8419 34.6117L22.7368 44.9992L5.45233 31.3699C3.78959 30.0442 3.51384 27.6186 4.83642 25.952L10.5844 18.709L30.8419 34.6117Z" fill="url(#paint0_linear_3358_13585)" fill-opacity="0.2"/>
  <path d="M22.6216 44.9086L12.167 36.5736L20.2945 26.332L30.8421 34.6122L22.7371 44.9997L22.6216 44.9086Z" fill="#003458"/>
  <path d="M22.6216 44.9086L12.167 36.5736L20.2945 26.332L30.8421 34.6122L22.7371 44.9997L22.6216 44.9086Z" fill="url(#paint1_linear_3358_13585)" fill-opacity="0.3"/>
  <path d="M22.5934 44.8858L22.7369 45.0002L45.1836 16.2326C46.4848 14.5649 46.2011 12.1575 44.5481 10.8396L37.2235 5L20.2949 26.3317L30.8421 34.6116L22.737 44.9991L22.5934 44.8858Z" fill="#00CEB3"/>
  <path d="M22.5934 44.8858L22.7369 45.0002L45.1836 16.2326C46.4848 14.5649 46.2011 12.1575 44.5481 10.8396L37.2235 5L20.2949 26.3317L30.8421 34.6116L22.737 44.9991L22.5934 44.8858Z" fill="url(#paint2_linear_3358_13585)" fill-opacity="0.2"/>
  <defs>
    <linearGradient id="paint0_linear_3358_13585" x1="4" y1="18.709" x2="35.5001" y2="26.7493" gradientUnits="userSpaceOnUse">
      <stop stop-color="white"/>
      <stop offset="1" stop-color="white" stop-opacity="0"/>
    </linearGradient>
    <linearGradient id="paint1_linear_3358_13585" x1="12.167" y1="26.332" x2="34.1367" y2="31.8267" gradientUnits="userSpaceOnUse">
      <stop stop-color="white"/>
      <stop offset="1" stop-color="white" stop-opacity="0"/>
    </linearGradient>
    <linearGradient id="paint2_linear_3358_13585" x1="20.2949" y1="5" x2="51.6183" y2="10.0324" gradientUnits="userSpaceOnUse">
      <stop stop-color="white"/>
      <stop offset="1" stop-color="white" stop-opacity="0"/>
    </linearGradient>
  </defs>
</svg>