<?xml version="1.0" encoding="UTF-8"?>
<svg xmlns="http://www.w3.org/2000/svg" width="50" height="50" viewBox="0 0 50 50" fill="none">
  <path d="M45.873 9C49.3934 9.04136 51.3769 13.4739 48.8855 15.9639L40.4618 24.3828L36.5 26.9995L24.9998 9.00062L45.873 9Z" fill="#93407D"/>
  <path d="M45.873 9C49.3934 9.04136 51.3769 13.4739 48.8855 15.9639L40.4618 24.3828L36.5 26.9995L24.9998 9.00062L45.873 9Z" fill="url(#paint0_linear_3358_13628)" fill-opacity="0.2"/>
  <path d="M10.945 25.7881C9.39237 27.3398 9.39237 29.8556 10.945 31.4073L19.3786 39.8361C20.9312 41.3878 23.4484 41.3878 25.001 39.8361L23.5 36L15 27L10.945 25.7881Z" fill="#93407D"/>
  <path d="M10.945 25.7881C9.39237 27.3398 9.39237 29.8556 10.945 31.4073L19.3786 39.8361C20.9312 41.3878 23.4484 41.3878 25.001 39.8361L23.5 36L15 27L10.945 25.7881Z" fill="url(#paint1_linear_3358_13628)" fill-opacity="0.2"/>
  <path d="M1.11454 15.9643C-1.37688 13.4743 0.608254 9.04136 4.12863 9L25.0006 9.00042L40.4616 24.3832C42.0141 25.9349 42.0141 28.4507 40.4616 30.0024L30.6224 39.8359C29.0698 41.3876 26.5526 41.3876 25 39.8359L1.11454 15.9643Z" fill="#00CEB3"/>
  <path d="M1.11454 15.9643C-1.37688 13.4743 0.608254 9.04136 4.12863 9L25.0006 9.00042L40.4616 24.3832C42.0141 25.9349 42.0141 28.4507 40.4616 30.0024L30.6224 39.8359C29.0698 41.3876 26.5526 41.3876 25 39.8359L1.11454 15.9643Z" fill="url(#paint2_linear_3358_13628)" fill-opacity="0.2"/>
  <path d="M24.9996 39.8358C26.5522 38.2841 26.5522 35.7683 24.9996 34.2166L16.566 25.7878C15.0134 24.2361 12.4962 24.2361 10.9436 25.7878L24.9996 39.8358Z" fill="#003458"/>
  <path d="M24.9996 39.8358C26.5522 38.2841 26.5522 35.7683 24.9996 34.2166L16.566 25.7878C15.0134 24.2361 12.4962 24.2361 10.9436 25.7878L24.9996 39.8358Z" fill="url(#paint3_linear_3358_13628)" fill-opacity="0.3"/>
  <path d="M17.6208 16.3056L25.0003 9L34.1367 18.0616C31.8078 15.7341 28.032 15.7341 25.7031 18.0616L22.5405 21.2224C21.1819 22.5802 18.9794 22.5802 17.6208 21.2224C16.2623 19.8647 16.2623 17.6634 17.6208 16.3056Z" fill="#003458"/>
  <path d="M17.6208 16.3056L25.0003 9L34.1367 18.0616C31.8078 15.7341 28.032 15.7341 25.7031 18.0616L22.5405 21.2224C21.1819 22.5802 18.9794 22.5802 17.6208 21.2224C16.2623 19.8647 16.2623 17.6634 17.6208 16.3056Z" fill="url(#paint4_linear_3358_13628)" fill-opacity="0.3"/>
  <defs>
    <linearGradient id="paint0_linear_3358_13628" x1="24.9998" y1="9" x2="52.8875" y2="18.6836" gradientUnits="userSpaceOnUse">
      <stop stop-color="white"/>
      <stop offset="1" stop-color="white" stop-opacity="0"/>
    </linearGradient>
    <linearGradient id="paint1_linear_3358_13628" x1="9.78052" y1="25.7881" x2="27.6858" y2="30.267" gradientUnits="userSpaceOnUse">
      <stop stop-color="white"/>
      <stop offset="1" stop-color="white" stop-opacity="0"/>
    </linearGradient>
    <linearGradient id="paint2_linear_3358_13628" x1="0.000488281" y1="9" x2="47.0559" y2="24.3026" gradientUnits="userSpaceOnUse">
      <stop stop-color="white"/>
      <stop offset="1" stop-color="white" stop-opacity="0"/>
    </linearGradient>
    <linearGradient id="paint3_linear_3358_13628" x1="10.9436" y1="24.624" x2="28.8488" y2="29.1029" gradientUnits="userSpaceOnUse">
      <stop stop-color="white"/>
      <stop offset="1" stop-color="white" stop-opacity="0"/>
    </linearGradient>
    <linearGradient id="paint4_linear_3358_13628" x1="16.602" y1="9" x2="36.3552" y2="15.5398" gradientUnits="userSpaceOnUse">
      <stop stop-color="white"/>
      <stop offset="1" stop-color="white" stop-opacity="0"/>
    </linearGradient>
  </defs>
</svg>