<svg xmlns="http://www.w3.org/2000/svg" width="887" height="820" viewBox="0 0 887 820" fill="none"><path fill-rule="evenodd" clip-rule="evenodd" d="M825.466 476.087C861.002 447.327 909.368 506.962 873.771 535.772L661.025 707.954L661.079 708.021L459.558 871.118C424.023 899.878 375.662 840.239 411.254 811.433L611.904 649.041L611.85 648.974L825.466 476.087ZM812.425 289.079C847.959 260.32 896.327 319.954 860.73 348.764L564.414 588.582L564.462 588.642L219.868 867.533C184.332 896.294 135.973 836.653 171.563 807.849L515.289 529.661L515.24 529.601L812.425 289.079ZM663.135 212.332C698.669 183.573 747.029 243.212 711.439 272.016L467.795 469.205L467.852 469.274L223.337 667.168C187.803 695.927 139.442 636.288 175.032 607.483L418.676 410.295L418.62 410.225L663.135 212.332ZM426.915 8.38049C462.451 -20.3798 510.812 39.2596 475.22 68.065L274.568 230.459L274.622 230.526L61.0061 403.412C25.4704 432.173 -22.8954 372.538 12.7015 343.728L225.449 171.544L225.395 171.478L426.915 8.38049ZM371.183 349.839L714.91 71.6494C750.5 42.8454 702.142 -16.7952 666.606 11.965L322.011 290.857L322.06 290.916L25.742 530.736C-9.85486 559.546 38.5126 619.179 74.0466 590.421L371.232 349.899L371.183 349.839Z" fill="#FE5000"/></svg>