<?xml version="1.0" encoding="UTF-8"?>
<svg xmlns="http://www.w3.org/2000/svg" width="30" height="30" viewBox="0 0 30 30" fill="none">
  <path fill-rule="evenodd" clip-rule="evenodd" d="M6.41493 6.74892C6.68061 6.48324 7.04094 6.33398 7.41667 6.33398H18.2917C18.844 6.33398 19.2917 5.88627 19.2917 5.33398C19.2917 4.7817 18.844 4.33398 18.2917 4.33398H7.41667C6.51051 4.33398 5.64147 4.69395 5.00072 5.3347C4.35997 5.97545 4 6.84449 4 7.75065V22.2507C4 23.1568 4.35997 24.0259 5.00072 24.6666C5.64147 25.3073 6.51051 25.6673 7.41667 25.6673H21.9167C22.8228 25.6673 23.6919 25.3073 24.3326 24.6666C24.9734 24.0259 25.3333 23.1568 25.3333 22.2507V15.0007C25.3333 14.4484 24.8856 14.0007 24.3333 14.0007C23.781 14.0007 23.3333 14.4484 23.3333 15.0007V22.2507C23.3333 22.6264 23.1841 22.9867 22.9184 23.2524C22.6527 23.5181 22.2924 23.6673 21.9167 23.6673H7.41667C7.04094 23.6673 6.68061 23.5181 6.41493 23.2524C6.14926 22.9867 6 22.6264 6 22.2507V7.75065C6 7.37493 6.14926 7.01459 6.41493 6.74892ZM25.0404 8.45759C25.4309 8.06707 25.4309 7.43391 25.0404 7.04338C24.6499 6.65286 24.0167 6.65286 23.6262 7.04338L14.6666 16.0029L11.7487 13.085C11.3582 12.6945 10.725 12.6945 10.3345 13.085C9.94399 13.4756 9.94399 14.1087 10.3345 14.4993L13.9595 18.1243C14.35 18.5148 14.9832 18.5148 15.3737 18.1243L25.0404 8.45759Z" fill="#FEFEFE"/>
</svg>