<?xml version="1.0" encoding="UTF-8"?>
<svg xmlns="http://www.w3.org/2000/svg" width="30" height="30" viewBox="0 0 30 30" fill="none">
  <g id="check">
    <path id="курс валют" d="M15.89 14.1C14.11 13.51 13.25 13.14 13.25 12.2C13.25 11.18 14.36 10.81 15.06 10.81C16.37 10.81 16.85 11.8 16.96 12.15L18.54 11.48C18.39 11.03 17.72 9.56 16 9.24V8H14V9.26C11.52 9.82 11.51 12.12 11.51 12.22C11.51 14.49 13.76 15.13 14.86 15.53C16.44 16.09 17.14 16.6 17.14 17.56C17.14 18.69 16.09 19.17 15.16 19.17C13.34 19.17 12.82 17.3 12.76 17.08L11.1 17.75C11.73 19.94 13.38 20.53 14 20.71V22H16V20.76C16.4 20.67 18.9 20.17 18.9 17.54C18.9 16.15 18.29 14.93 15.89 14.1ZM6 24H4V18H10V20H7.52C9.13 22.41 11.88 24 15 24C19.97 24 24 19.97 24 15H26C26 21.08 21.08 26 15 26C11.28 26 7.99 24.15 6 21.33V24ZM4 15C4 8.92 8.92 4 15 4C18.72 4 22.01 5.85 24 8.67V6H26V12H20V10H22.48C20.87 7.59 18.12 6 15 6C10.03 6 6 10.03 6 15H4Z" fill="#FEFEFE"/>
  </g>
</svg>