<?xml version="1.0" encoding="UTF-8"?>
<svg xmlns="http://www.w3.org/2000/svg" width="30" height="30" viewBox="0 0 30 30" fill="none">
  <g id="check">
    <path id="телефонія" d="M21.232 1H8.688C7.204 1 6 2.17578 6 3.625V26.375C6 27.8242 7.204 29 8.688 29H21.232C22.716 29 23.92 27.8242 23.92 26.375V3.625C23.92 2.17578 22.716 1 21.232 1ZM14.96 27.25C13.9688 27.25 13.168 26.468 13.168 25.5C13.168 24.532 13.9688 23.75 14.96 23.75C15.9512 23.75 16.752 24.532 16.752 25.5C16.752 26.468 15.9512 27.25 14.96 27.25ZM21.232 21.3438C21.232 21.7047 20.9296 22 20.56 22H9.36C8.9904 22 8.688 21.7047 8.688 21.3438V4.28125C8.688 3.92031 8.9904 3.625 9.36 3.625H20.56C20.9296 3.625 21.232 3.92031 21.232 4.28125V21.3438Z" fill="#FEFEFE"/>
  </g>
</svg>