<svg width="887" height="820" viewBox="0 0 887 820" fill="none" xmlns="http://www.w3.org/2000/svg">
<path fill-rule="evenodd" clip-rule="evenodd" d="M825.466 476.087C861.002 447.327 909.367 506.962 873.771 535.772L661.025 707.954L661.08 708.021L459.559 871.118C424.024 899.879 375.663 840.239 411.255 811.434L611.905 649.042L611.85 648.974L825.466 476.087ZM812.426 289.079C847.96 260.32 896.327 319.954 860.73 348.764L564.414 588.582L564.463 588.642L219.868 867.534C184.332 896.294 135.974 836.653 171.564 807.849L515.289 529.661L515.24 529.601L812.426 289.079ZM663.134 212.332C698.668 183.573 747.029 243.212 711.439 272.016L467.795 469.205L467.852 469.275L223.337 667.168C187.803 695.927 139.443 636.288 175.033 607.484L418.676 410.295L418.62 410.225L663.134 212.332ZM426.915 8.38065C462.451 -20.3796 510.811 39.2597 475.22 68.0652L274.568 230.459L274.623 230.526L61.0066 403.413C25.4709 432.173 -22.8949 372.538 12.702 343.728L225.449 171.545L225.395 171.478L426.915 8.38065ZM371.184 349.839L714.911 71.6496C750.501 42.8455 702.142 -16.7951 666.606 11.9651L322.012 290.857L322.06 290.917L25.7424 530.737C-9.8545 559.546 38.5129 619.18 74.0469 590.421L371.232 349.899L371.184 349.839Z" fill="#FE5000"/>
</svg>
