<svg width="30" height="30" viewBox="0 0 30 30" fill="none" xmlns="http://www.w3.org/2000/svg">
<path d="M10.75 22C9.5125 22 8.51125 23.0125 8.51125 24.25C8.51125 25.4875 9.5125 26.5 10.75 26.5C11.9875 26.5 13 25.4875 13 24.25C13 23.0125 11.9875 22 10.75 22ZM4 4V6.25H6.25L10.3 14.7887L8.78125 17.545C8.60125 17.86 8.5 18.2312 8.5 18.625C8.5 19.8625 9.5125 20.875 10.75 20.875H24.25V18.625H11.2225C11.065 18.625 10.9412 18.5013 10.9412 18.3438L10.975 18.2087L11.9875 16.375H20.3687C21.2125 16.375 21.955 15.9138 22.3375 15.2163L26.365 7.915C26.455 7.7575 26.5 7.56625 26.5 7.375C26.5 6.75625 25.9937 6.25 25.375 6.25H8.73625L7.67875 4H4ZM22 22C20.7625 22 19.7613 23.0125 19.7613 24.25C19.7613 25.4875 20.7625 26.5 22 26.5C23.2375 26.5 24.25 25.4875 24.25 24.25C24.25 23.0125 23.2375 22 22 22Z" fill="#FEFEFE"/>
</svg>
