<svg width="30" height="30" viewBox="0 0 30 30" fill="none" xmlns="http://www.w3.org/2000/svg">
<g clip-path="url(#clip0_153_128)">
<path d="M26.75 10H23V5H5.5C4.125 5 3 6.125 3 7.5V21.25H5.5C5.5 23.325 7.175 25 9.25 25C11.325 25 13 23.325 13 21.25H20.5C20.5 23.325 22.175 25 24.25 25C26.325 25 28 23.325 28 21.25H30.5V15L26.75 10ZM9.25 23.125C8.2125 23.125 7.375 22.2875 7.375 21.25C7.375 20.2125 8.2125 19.375 9.25 19.375C10.2875 19.375 11.125 20.2125 11.125 21.25C11.125 22.2875 10.2875 23.125 9.25 23.125ZM26.125 11.875L28.575 15H23V11.875H26.125ZM24.25 23.125C23.2125 23.125 22.375 22.2875 22.375 21.25C22.375 20.2125 23.2125 19.375 24.25 19.375C25.2875 19.375 26.125 20.2125 26.125 21.25C26.125 22.2875 25.2875 23.125 24.25 23.125Z" fill="#FEFEFE"/>
</g>
<defs>
<clipPath id="clip0_153_128">
<rect width="30" height="30" fill="white"/>
</clipPath>
</defs>
</svg>
