<svg xmlns="http://www.w3.org/2000/svg" xmlns:xlink="http://www.w3.org/1999/xlink" id="Слой_1" x="0px" y="0px" width="321.983px" height="112.359px" viewBox="0 0 321.983 112.359" xml:space="preserve">
    <path fill="#F6E948" d="M230.011,35.92h-15.33c0.12-2.68,0.83-4.79,2.12-6.33c1.29-1.55,3.04-2.32,5.25-2.32  c2.77,0,4.79,0.811,6.06,2.42C229.381,31.3,230.011,33.38,230.011,35.92z"/>
    <path fill="#F6E948" d="M320.44,92c1.66,0,2.04,1.34,0.85,3l-10.02,14c-1.2,1.66-3.5,3-5.16,3h-3c-1.66,0-2.04-1.34-0.84-3l10.02-14  c1.19-1.66,3.5-3,5.15-3H320.44z"/>
    <path fill="#F6E948" d="M257.11,5v65c0,2.76-2.239,5-5,5h-247c-2.76,0-5-2.24-5-5c0,0,0-31.54,0-37c0-6.601-1.189-10.21,4.25-17.69  c3.681-5.06,3.41-4.649,6.75-9.31c1.2-1.67,3.25-6,10-6c45.391,0,231,0,231,0C254.871,0,257.11,2.24,257.11,5z M239.86,40.84  c0-7.17-1.529-12.37-4.569-15.61c-3.051-3.229-7.721-4.85-14-4.85c-5.41,0-9.601,1.71-12.561,5.14c-2.97,3.42-4.45,8.09-4.45,14.021  c0,5.93,1.431,10.609,4.29,14.029c2.86,3.421,7.65,5.131,14.381,5.131c4.14,0,7.18-0.421,9.1-1.261c1.92-0.851,3.6-2.121,5.03-3.831  c0.979-1.18,0.779-2.18-0.601-3.029l-3.52-2.15c-1.17-0.7-2.15-0.54-2.95,0.5c-0.7,0.89-1.57,1.59-2.6,2.11  c-1.03,0.51-2.521,0.77-4.46,0.77c-2.04,0-3.841-0.5-5.381-1.51c-1.55-1.01-2.51-3.46-2.89-7.35h23.21  C239.201,42.95,239.86,42.25,239.86,40.84z M198.721,57.75c0.82-0.37,1.13-0.96,0.92-1.75l-1.06-4.01  c-0.261-0.921-0.79-1.181-1.62-0.811c-0.51,0.23-1.23,0.47-2.141,0.72c-0.909,0.25-1.729,0.37-2.46,0.37  c-1.43,0-2.31-0.52-2.649-1.56c-0.34-1.05-0.51-2.76-0.51-5.16V28.12h5.689c1.38,0,2.07-0.591,2.07-1.761v-3.52  c0-1.17-0.69-1.75-2.07-1.75h-5.689V13c0-1.41-0.71-2.11-2.11-2.11h-2.46c-0.71,0-1.32,0.45-1.83,1.34l-2.71,4.74  c-0.49,0.87-0.74,1.83-0.74,2.89v1.23h-2.39c-1.38,0-2.07,0.58-2.07,1.75v3.52c0,1.17,0.69,1.761,2.07,1.761h2.39v20.42  c0,4.319,1.19,7.16,3.55,8.55c2.37,1.38,5.23,2.07,8.58,2.07c1.36,0,2.71-0.15,4.061-0.44  C196.891,58.43,197.951,58.109,198.721,57.75z M168.631,55.89V23.2c0-1.41-0.7-2.11-2.11-2.11h-5.62c-1.409,0-2.109,0.7-2.109,2.11  V55.89c0,1.41,0.7,2.11,2.109,2.11h5.62C167.931,58,168.631,57.3,168.631,55.89z M152.28,47c0-1.71-0.26-3.24-0.77-4.57  c-0.521-1.34-1.34-2.439-2.46-3.31c-1.13-0.87-2.29-1.53-3.48-2c-1.39-0.54-2.75-1-4.08-1.391c-1.34-0.39-2.659-0.79-3.97-1.21  c-0.64-0.22-1.3-0.439-1.99-0.67c-0.689-0.24-1.3-0.609-1.829-1.109c-0.53-0.5-0.79-1.2-0.79-2.091c0-0.85,0.29-1.529,0.859-2.04  c0.58-0.52,1.271-0.869,2.09-1.06c0.82-0.18,1.681-0.28,2.57-0.28c1.31,0,2.5,0.19,3.57,0.57c1.06,0.37,2.149,0.86,3.25,1.47  c1.45,0.8,2.51,0.73,3.16-0.21l2.149-3.13c0.7-1.01,0.351-1.95-1.06-2.85c-0.891-0.561-2.37-1.16-4.46-1.79s-4.23-0.95-6.431-0.95  c-3.26,0-5.979,0.34-8.159,1.02c-2.181,0.681-3.96,1.91-5.33,3.69c-1.37,1.79-2.051,3.86-2.051,6.229c0,1.75,0.271,3.24,0.82,4.45  c0.55,1.2,1.42,2.3,2.6,3.28c1.19,0.99,2.4,1.75,3.641,2.29c1.5,0.65,3.07,1.21,4.7,1.7c1.63,0.479,2.87,0.819,3.739,1.029  c0.66,0.16,1.28,0.37,1.86,0.631c0.59,0.25,1.07,0.63,1.45,1.109c0.37,0.49,0.56,1.09,0.56,1.78c0,1.18-0.319,2.07-0.95,2.68  c-0.63,0.61-1.409,1.021-2.319,1.23c-0.92,0.21-1.9,0.31-2.95,0.31c-1.51,0-3.16-0.21-4.98-0.63c-1.819-0.42-3.39-1.08-4.729-1.97  c-1.33-0.891-2.32-0.75-2.95,0.42l-1.79,3.27c-0.52,0.94-0.2,1.82,0.95,2.641c1.64,1.17,3.62,1.989,5.94,2.46  c2.319,0.47,5.13,0.7,8.43,0.7c2.96,0,5.55-0.41,7.77-1.23c2.23-0.819,4.021-2.2,5.381-4.15C151.602,51.38,152.28,49.27,152.28,47z   M117.201,58c2.029,0,2.47-0.86,1.29-2.57l-11.521-16.9l10.15-14.88c1.18-1.71,0.739-2.56-1.301-2.56h-6.64  c-1.05,0-1.85,0.39-2.39,1.18l-5.45,8l-5.45-8c-0.54-0.79-1.33-1.18-2.39-1.18H86.86c-2.02,0-2.449,0.85-1.29,2.56l10.15,14.87  l-11.52,16.91c-1.159,1.71-0.73,2.57,1.29,2.57h6.64c1.03,0,1.83-0.41,2.39-1.23l6.83-10l6.811,10c0.56,0.82,1.359,1.23,2.39,1.23  H117.201z M75.711,55.89V23.2c0-1.41-0.7-2.11-2.09-2.11H68.03c-1.39,0-2.09,0.7-2.09,2.11v13.85c0,6.02-0.63,9.99-1.88,11.9  c-1.26,1.909-3.09,2.859-5.5,2.859c-2.25,0-3.729-0.67-4.43-2c-0.71-1.34-1.061-4.56-1.061-9.67V23.2c0-1.41-0.699-2.11-2.109-2.11  h-5.62c-1.41,0-2.11,0.7-2.11,2.11v19.47c0,3.05,0.3,5.62,0.891,7.72c0.6,2.101,1.489,3.72,2.689,4.87  c2.391,2.29,5.38,3.44,8.97,3.44c2.301,0,4.301-0.341,5.99-1.03c1.681-0.7,3.07-1.97,4.17-3.82v2.04c0,1.41,0.7,2.11,2.11,2.11h5.55  C75.011,58,75.711,57.3,75.711,55.89z M33.73,55.89V13.52c0-1.41-0.7-2.109-2.1-2.109h-2.47c-0.7,0-1.311,0.439-1.82,1.33  l-2.71,4.75c-0.49,0.869-0.74,1.829-0.74,2.88v35.52c0,1.41,0.7,2.11,2.11,2.11h5.63C33.03,58,33.73,57.3,33.73,55.89z"/>
    <path fill="#2D2D3E" d="M89.711,104.279l0.41,1.551c0.08,0.31-0.04,0.54-0.351,0.688c-0.31,0.131-0.72,0.261-1.24,0.37  c-0.529,0.12-1.05,0.17-1.579,0.17c-1.301,0-2.421-0.26-3.341-0.8s-1.38-1.649-1.38-3.319V94.99h-0.93c-0.54,0-0.8-0.23-0.8-0.682  v-1.369c0-0.449,0.26-0.681,0.8-0.681h0.93v-0.479c0-0.409,0.101-0.779,0.29-1.119l1.05-1.852c0.2-0.34,0.44-0.52,0.71-0.52h0.961  c0.55,0,0.819,0.279,0.819,0.819v3.149h2.22c0.53,0,0.801,0.229,0.801,0.681v1.369c0,0.45-0.271,0.682-0.801,0.682h-2.22v6.778  c0,0.932,0.07,1.602,0.2,2.011c0.13,0.399,0.47,0.601,1.03,0.601c0.279,0,0.6-0.04,0.96-0.14c0.35-0.091,0.63-0.19,0.83-0.28  C89.4,103.819,89.61,103.92,89.711,104.279z"/>
    <path fill="#2D2D3E" d="M100.812,91.979c0.521,0,0.96,0.069,1.3,0.199c0.32,0.11,0.44,0.33,0.37,0.65l-0.39,1.63  c-0.08,0.359-0.32,0.47-0.73,0.33c-0.239-0.08-0.47-0.13-0.689-0.13c-0.88,0-1.61,0.529-2.19,1.58c-0.58,1.05-0.87,2.568-0.87,4.579  v4.971c0,0.55-0.27,0.819-0.81,0.819h-2.17c-0.55,0-0.82-0.271-0.82-0.819V93.08c0-0.551,0.271-0.82,0.82-0.82h2.16  c0.55,0,0.819,0.271,0.819,0.82v1.12c0.24-0.58,0.641-1.102,1.21-1.551C99.381,92.21,100.042,91.979,100.812,91.979z"/>
    <path fill="#2D2D3E" d="M114.48,105c-0.42,0.72-0.96,1.21-1.62,1.479c-0.659,0.271-1.43,0.409-2.33,0.409  c-1.39,0-2.56-0.449-3.489-1.34c-0.931-0.899-1.391-2.53-1.391-4.899V93.08c0-0.551,0.271-0.82,0.82-0.82h2.19  c0.54,0,0.819,0.271,0.819,0.82v6.59c0,1.99,0.13,3.24,0.41,3.76c0.271,0.521,0.851,0.78,1.72,0.78c0.94,0,1.65-0.37,2.141-1.12  c0.49-0.74,0.729-2.28,0.729-4.63v-5.38c0-0.551,0.271-0.82,0.82-0.82h2.17c0.54,0,0.81,0.271,0.81,0.82v12.71  c0,0.55-0.27,0.819-0.819,0.819h-2.16c-0.54,0-0.82-0.271-0.82-0.819V105z"/>
    <path fill="#2D2D3E" d="M126.4,98.029h5.96c0-0.989-0.239-1.8-0.739-2.42c-0.49-0.63-1.28-0.949-2.351-0.949  c-0.859,0-1.54,0.3-2.04,0.898C126.721,96.16,126.451,96.979,126.4,98.029z M126.4,100.76c0.15,1.521,0.521,2.471,1.12,2.86  c0.61,0.39,1.3,0.59,2.101,0.59c0.75,0,1.33-0.101,1.729-0.3c0.4-0.2,0.74-0.48,1.01-0.83c0.311-0.4,0.7-0.46,1.15-0.19l1.37,0.841  c0.54,0.329,0.609,0.721,0.229,1.181c-0.55,0.659-1.21,1.159-1.949,1.489c-0.75,0.319-1.931,0.489-3.54,0.489  c-2.62,0-4.48-0.67-5.601-2c-1.109-1.33-1.66-3.148-1.66-5.449c0-2.311,0.57-4.131,1.73-5.46c1.15-1.33,2.78-2,4.88-2  c2.45,0,4.26,0.63,5.44,1.891c1.189,1.26,1.779,3.279,1.779,6.069c0,0.551-0.25,0.819-0.76,0.819H126.4z"/>
    <path fill="#2D2D3E" d="M167.221,91.979c1.37,0,2.53,0.449,3.47,1.34c0.94,0.899,1.42,2.529,1.42,4.899v7.57  c0,0.55-0.279,0.819-0.83,0.819h-2.18c-0.55,0-0.82-0.271-0.82-0.819V99.2c0-1.98-0.14-3.24-0.42-3.761  c-0.279-0.521-0.77-0.779-1.479-0.779c-0.67,0-1.271,0.38-1.82,1.13c-0.55,0.739-0.82,2.279-0.82,4.62v5.38  c0,0.55-0.279,0.819-0.819,0.819h-2.19c-0.55,0-0.819-0.271-0.819-0.819V99.2c0-1.98-0.141-3.24-0.421-3.761  c-0.279-0.521-0.779-0.779-1.489-0.779c-0.67,0-1.28,0.38-1.83,1.119s-0.83,2.279-0.83,4.631v5.38c0,0.55-0.271,0.819-0.811,0.819  h-2.17c-0.55,0-0.819-0.271-0.819-0.819V93.08c0-0.551,0.279-0.82,0.819-0.82h2.16c0.55,0,0.82,0.271,0.82,0.82v0.79  c0.28-0.58,0.74-1.04,1.39-1.38c0.641-0.341,1.25-0.511,1.811-0.511c1.13,0,2.01,0.199,2.63,0.59c0.63,0.391,1.06,0.819,1.29,1.301  h0.06c0.811-0.78,1.54-1.29,2.19-1.53C165.371,92.1,166.201,91.979,167.221,91.979z"/>
    <path fill="#2D2D3E" d="M182.141,104.21c0.46,0,0.91-0.07,1.351-0.19c0.439-0.13,0.93-0.43,1.47-0.909v-2.96  c-1.54,0.17-2.561,0.391-3.08,0.67c-0.521,0.271-0.89,0.551-1.12,0.841c-0.22,0.3-0.33,0.64-0.33,1.04c0,0.318,0.061,0.6,0.19,0.83  c0.13,0.229,0.33,0.398,0.6,0.51C181.501,104.149,181.801,104.21,182.141,104.21z M182.891,91.979c1.9,0,3.351,0.439,4.37,1.319  c1.02,0.87,1.52,2.16,1.52,3.87v8.62c0,0.55-0.27,0.819-0.819,0.819h-2.26c-0.5,0-0.74-0.271-0.74-0.819v-0.41  c-0.54,0.521-1.19,0.899-1.94,1.149c-0.75,0.239-1.439,0.359-2.069,0.359c-1.5,0-2.631-0.37-3.41-1.1c-0.771-0.74-1.16-1.74-1.16-3  c0-1.83,0.87-3.15,2.609-3.971c1.74-0.819,3.73-1.261,5.971-1.311v-0.55c0-0.84-0.21-1.431-0.63-1.78  c-0.42-0.34-1.011-0.52-1.75-0.52c-0.53,0-1,0.079-1.41,0.229c-0.4,0.15-0.75,0.32-1.05,0.521c-0.29,0.199-0.561,0.39-0.801,0.59  c-0.42,0.37-0.76,0.39-1.04,0.06l-1.13-1.398c-0.279-0.341-0.22-0.7,0.2-1.062c0.32-0.279,0.69-0.529,1.12-0.739  c0.42-0.21,0.979-0.409,1.69-0.591C180.86,92.08,181.771,91.979,182.891,91.979z"/>
    <path fill="#2D2D3E" d="M201.181,91.979c0.521,0,0.96,0.069,1.3,0.199c0.32,0.11,0.44,0.33,0.37,0.65l-0.39,1.63  c-0.08,0.359-0.32,0.47-0.73,0.33c-0.24-0.08-0.47-0.13-0.689-0.13c-0.88,0-1.61,0.529-2.19,1.58c-0.58,1.05-0.87,2.568-0.87,4.579  v4.971c0,0.55-0.27,0.819-0.81,0.819h-2.17c-0.55,0-0.82-0.271-0.82-0.819V93.08c0-0.551,0.28-0.82,0.82-0.82h2.16  c0.55,0,0.819,0.271,0.819,0.82v1.12c0.24-0.58,0.641-1.102,1.21-1.551C199.751,92.21,200.411,91.979,201.181,91.979z"/>
    <path fill="#2D2D3E" d="M214.44,98.17l4.74,7.42c0.43,0.68,0.29,1.021-0.43,1.021h-2.34c-0.46,0-0.82-0.221-1.091-0.681l-2.89-4.8  l-1.99,1.88v2.78c0,0.55-0.279,0.819-0.819,0.819h-2.19c-0.55,0-0.82-0.271-0.82-0.819V87.25c0-0.54,0.271-0.82,0.82-0.82h2.19  c0.54,0,0.819,0.28,0.819,0.82V97.3c0,0.37-0.02,0.729-0.06,1.101h0.06l4.33-5.58c0.29-0.369,0.65-0.561,1.07-0.561h2.24  c0.84,0,0.979,0.33,0.43,1L214.44,98.17z"/>
    <path fill="#2D2D3E" d="M232.771,98.029c0-0.989-0.24-1.8-0.74-2.42c-0.489-0.63-1.27-0.949-2.35-0.949c-0.86,0-1.54,0.3-2.04,0.898  c-0.51,0.602-0.78,1.421-0.83,2.471H232.771z M235.292,103.729c0.54,0.329,0.609,0.721,0.229,1.181  c-0.55,0.659-1.21,1.159-1.95,1.489c-0.75,0.319-1.93,0.489-3.54,0.489c-2.619,0-4.479-0.67-5.6-2c-1.11-1.33-1.66-3.148-1.66-5.449  c0-2.311,0.57-4.131,1.73-5.46c1.149-1.33,2.779-2,4.88-2c2.45,0,4.26,0.63,5.439,1.891c1.19,1.26,1.78,3.279,1.78,6.069  c0,0.551-0.25,0.819-0.76,0.819h-9.03c0.15,1.521,0.521,2.471,1.12,2.86c0.61,0.39,1.3,0.59,2.1,0.59c0.75,0,1.33-0.101,1.73-0.3  c0.4-0.2,0.74-0.48,1.01-0.83c0.311-0.4,0.7-0.46,1.15-0.19L235.292,103.729z"/><path fill="#2D2D3E" d="M246.771,104.38c0.28,0,0.601-0.04,0.96-0.14c0.36-0.091,0.63-0.19,0.83-0.28  c0.32-0.141,0.53-0.04,0.63,0.319l0.41,1.551c0.08,0.31-0.03,0.54-0.35,0.688c-0.3,0.131-0.721,0.261-1.24,0.37  c-0.52,0.12-1.05,0.17-1.58,0.17c-1.3,0-2.41-0.26-3.34-0.8c-0.92-0.54-1.38-1.649-1.38-3.319V94.99h-0.931  c-0.529,0-0.8-0.23-0.8-0.682v-1.369c0-0.449,0.271-0.681,0.8-0.681h0.931v-0.479c0-0.409,0.1-0.779,0.29-1.119l1.05-1.852  c0.2-0.34,0.44-0.52,0.71-0.52h0.96c0.55,0,0.82,0.279,0.82,0.819v3.149h2.22c0.53,0,0.8,0.229,0.8,0.681v1.369  c0,0.45-0.27,0.682-0.8,0.682h-2.22v6.778c0,0.932,0.069,1.602,0.2,2.011C245.871,104.18,246.221,104.38,246.771,104.38z"/>
    <path fill="#2D2D3E" d="M257.681,93.08v12.71c0,0.55-0.27,0.819-0.82,0.819h-2.189c-0.54,0-0.82-0.271-0.82-0.819V93.08  c0-0.551,0.28-0.82,0.82-0.82h2.189C257.411,92.26,257.681,92.529,257.681,93.08z"/>
    <path fill="#2D2D3E" d="M257.681,87.58v1.75c0,0.55-0.27,0.819-0.82,0.819h-2.189c-0.54,0-0.82-0.271-0.82-0.819v-1.75  c0-0.54,0.28-0.82,0.82-0.82h2.189C257.411,86.76,257.681,87.04,257.681,87.58z"/>
    <path fill="#2D2D3E" d="M270.841,91.979c1.43,0,2.62,0.449,3.55,1.34c0.94,0.899,1.4,2.529,1.4,4.899v7.57  c0,0.55-0.271,0.819-0.82,0.819h-2.18c-0.551,0-0.82-0.271-0.82-0.819V99.2c0-1.98-0.14-3.24-0.42-3.761  c-0.271-0.521-0.86-0.779-1.771-0.779c-0.96,0-1.689,0.38-2.17,1.119c-0.489,0.739-0.729,2.279-0.729,4.631v5.38  c0,0.55-0.271,0.819-0.811,0.819h-2.18c-0.54,0-0.81-0.271-0.81-0.819V93.08c0-0.551,0.27-0.82,0.819-0.82h2.16  c0.55,0,0.82,0.271,0.82,0.82v0.79c0.42-0.721,0.96-1.21,1.609-1.48C269.141,92.12,269.931,91.979,270.841,91.979z"/>
    <path fill="#2D2D3E" d="M287.431,104.069c0.68,0,1.271-0.38,1.75-1.149c0.49-0.771,0.74-1.78,0.74-3.01v-1.091  c0-1.229-0.25-2.229-0.74-3c-0.479-0.771-1.07-1.159-1.75-1.159c-1.229,0-2.04,0.438-2.42,1.3c-0.37,0.859-0.56,2.021-0.56,3.479  c0,1.359,0.189,2.479,0.56,3.34C285.391,103.64,286.201,104.069,287.431,104.069z M289.921,93.87v-0.79  c0-0.551,0.229-0.82,0.71-0.82h2.26c0.57,0,0.851,0.271,0.851,0.82v13.38c0,2.24-0.601,3.78-1.801,4.62  c-1.199,0.85-2.939,1.279-5.22,1.279c-0.97,0-1.86-0.051-2.68-0.149c-0.82-0.101-1.65-0.36-2.49-0.76  c-0.44-0.21-0.51-0.602-0.22-1.19l0.489-0.979c0.2-0.4,0.54-0.49,1-0.271c0.37,0.17,0.841,0.32,1.391,0.46  c0.55,0.141,1.25,0.21,2.1,0.21c1.16,0,2.061-0.22,2.681-0.648c0.619-0.44,0.93-1.381,0.93-2.841v-0.229  c0-0.37,0.01-0.729,0.05-1.101h-0.05c-0.48,0.79-1.01,1.301-1.59,1.529c-0.58,0.24-1.28,0.36-2.11,0.36  c-2.14,0-3.64-0.74-4.51-2.221c-0.87-1.479-1.311-3.181-1.311-5.09c0-2.011,0.44-3.75,1.311-5.229s2.37-2.229,4.51-2.229  c0.83,0,1.53,0.119,2.11,0.359S289.44,93.09,289.921,93.87z"/>
    <path fill="#2D2D3E" d="M235.292,25.229c3.04,3.24,4.569,8.44,4.569,15.61c0,1.41-0.659,2.11-1.97,2.11h-23.21  c0.38,3.89,1.34,6.34,2.89,7.35c1.54,1.01,3.341,1.51,5.381,1.51c1.939,0,3.43-0.26,4.46-0.77c1.029-0.521,1.899-1.221,2.6-2.11  c0.8-1.04,1.78-1.2,2.95-0.5l3.52,2.15c1.38,0.85,1.58,1.85,0.601,3.029c-1.431,1.71-3.11,2.98-5.03,3.831  c-1.92,0.841-4.96,1.261-9.1,1.261c-6.73,0-11.521-1.71-14.381-5.131c-2.859-3.42-4.289-8.1-4.289-14.029  c0-5.931,1.479-10.601,4.449-14.021c2.96-3.43,7.15-5.14,12.561-5.14C227.57,20.38,232.241,22,235.292,25.229z M214.681,35.92h15.33  c0-2.54-0.63-4.62-1.9-6.23c-1.27-1.609-3.29-2.42-6.06-2.42c-2.21,0-3.96,0.771-5.25,2.32  C215.511,31.13,214.801,33.24,214.681,35.92z"/>
    <path fill="#2D2D3E" d="M199.641,56c0.21,0.79-0.1,1.38-0.92,1.75c-0.77,0.359-1.83,0.68-3.18,0.97c-1.351,0.29-2.7,0.44-4.061,0.44  c-3.35,0-6.21-0.69-8.58-2.07c-2.359-1.39-3.55-4.23-3.55-8.55V28.12h-2.39c-1.38,0-2.07-0.591-2.07-1.761v-3.52  c0-1.17,0.69-1.75,2.07-1.75h2.39v-1.23c0-1.06,0.25-2.02,0.74-2.89l2.71-4.74c0.51-0.89,1.12-1.34,1.83-1.34h2.46  c1.4,0,2.11,0.7,2.11,2.11v8.09h5.689c1.38,0,2.07,0.58,2.07,1.75v3.52c0,1.17-0.69,1.761-2.07,1.761h-5.689v17.43  c0,2.4,0.17,4.11,0.51,5.16c0.34,1.04,1.22,1.56,2.649,1.56c0.73,0,1.551-0.12,2.46-0.37c0.91-0.25,1.631-0.489,2.141-0.72  c0.83-0.37,1.359-0.11,1.62,0.811L199.641,56z"/>
    <path fill="#2D2D3E" d="M168.631,23.2V55.89c0,1.41-0.7,2.11-2.11,2.11h-5.62c-1.409,0-2.109-0.7-2.109-2.11V23.2  c0-1.41,0.7-2.11,2.109-2.11h5.62C167.931,21.09,168.631,21.79,168.631,23.2z"/>
    <path fill="#2D2D3E" d="M151.511,42.43c0.51,1.33,0.77,2.86,0.77,4.57c0,2.27-0.68,4.38-2.039,6.319  c-1.36,1.95-3.15,3.331-5.381,4.15c-2.22,0.82-4.81,1.23-7.77,1.23c-3.3,0-6.11-0.23-8.43-0.7c-2.32-0.471-4.301-1.29-5.94-2.46  c-1.15-0.82-1.47-1.7-0.95-2.641l1.79-3.27c0.63-1.17,1.62-1.311,2.95-0.42c1.34,0.89,2.91,1.55,4.73,1.97  c1.819,0.42,3.47,0.63,4.979,0.63c1.05,0,2.03-0.1,2.95-0.31c0.91-0.21,1.689-0.62,2.32-1.23c0.63-0.609,0.949-1.5,0.949-2.68  c0-0.69-0.189-1.29-0.56-1.78c-0.38-0.479-0.86-0.859-1.45-1.109c-0.58-0.261-1.2-0.471-1.86-0.631  c-0.869-0.21-2.109-0.55-3.739-1.029c-1.63-0.49-3.2-1.05-4.7-1.7c-1.24-0.54-2.45-1.3-3.64-2.29c-1.181-0.98-2.051-2.08-2.601-3.28  c-0.55-1.21-0.82-2.7-0.82-4.45c0-2.369,0.681-4.439,2.051-6.229c1.37-1.78,3.149-3.01,5.33-3.69c2.18-0.68,4.899-1.02,8.159-1.02  c2.2,0,4.341,0.32,6.431,0.95s3.569,1.229,4.46,1.79c1.41,0.899,1.76,1.84,1.06,2.85l-2.149,3.13c-0.65,0.94-1.71,1.01-3.16,0.21  c-1.101-0.609-2.19-1.1-3.25-1.47c-1.07-0.38-2.26-0.57-3.57-0.57c-0.89,0-1.75,0.101-2.57,0.28c-0.819,0.19-1.51,0.54-2.09,1.06  c-0.569,0.511-0.859,1.19-0.859,2.04c0,0.891,0.26,1.591,0.79,2.091c0.529,0.5,1.14,0.869,1.829,1.109  c0.69,0.23,1.351,0.45,1.99,0.67c1.311,0.42,2.63,0.82,3.971,1.21c1.329,0.391,2.689,0.851,4.079,1.391c1.19,0.47,2.351,1.13,3.48,2  C150.171,39.99,150.991,41.09,151.511,42.43z"/>
    <path fill="#2D2D3E" d="M118.491,55.43c1.18,1.709,0.739,2.57-1.29,2.57h-6.65c-1.03,0-1.83-0.41-2.39-1.23l-6.811-10l-6.83,10  c-0.56,0.82-1.359,1.23-2.39,1.23h-6.64c-2.021,0-2.45-0.86-1.29-2.57l11.52-16.91l-10.15-14.87c-1.159-1.71-0.729-2.56,1.29-2.56  h6.641c1.06,0,1.85,0.39,2.39,1.18l5.45,8l5.45-8c0.54-0.79,1.34-1.18,2.39-1.18h6.64c2.04,0,2.48,0.85,1.301,2.56l-10.15,14.88  L118.491,55.43z"/>
    <path fill="#2D2D3E" d="M33.73,13.52v42.37c0,1.41-0.7,2.11-2.1,2.11h-5.63c-1.41,0-2.11-0.7-2.11-2.11V20.37  c0-1.051,0.25-2.011,0.74-2.88l2.71-4.75c0.51-0.891,1.12-1.33,1.82-1.33h2.47C33.03,11.41,33.73,12.109,33.73,13.52z"/>
    <path fill="#2D2D3E" d="M75.711,23.2V55.89c0,1.41-0.7,2.11-2.11,2.11h-5.55c-1.41,0-2.11-0.7-2.11-2.11v-2.04  c-1.1,1.851-2.489,3.12-4.17,3.82c-1.689,0.689-3.689,1.03-5.99,1.03c-3.59,0-6.579-1.15-8.97-3.44c-1.2-1.15-2.09-2.77-2.689-4.87  c-0.591-2.1-0.891-4.67-0.891-7.72V23.2c0-1.41,0.7-2.11,2.11-2.11h5.62c1.41,0,2.109,0.7,2.109,2.11V40.14  c0,5.11,0.351,8.33,1.061,9.67c0.7,1.33,2.18,2,4.43,2c2.41,0,4.24-0.95,5.5-2.859c1.25-1.91,1.88-5.881,1.88-11.9V23.2  c0-1.41,0.7-2.11,2.09-2.11h5.591C75.011,21.09,75.711,21.79,75.711,23.2z"/>
</svg>