<?xml version="1.0" encoding="UTF-8"?>
<svg xmlns="http://www.w3.org/2000/svg" width="592" height="64" viewBox="0 0 592 64" fill="none">
  <path d="M0 0H560C577.673 0 592 14.3269 592 32V32C592 49.6731 577.673 64 560 64H0V0Z" fill="#FEFEFE"/>
  <path d="M55.2 49H49.248L46.896 42.232H32.592L30.24 49H24.24L36.432 15.4H43.056L55.2 49ZM39.744 21.88L34.416 37.048H45.072L39.744 21.88ZM71.1011 24.376C73.8851 24.376 76.1091 25.272 77.7731 27.064C79.4691 28.824 80.3171 31.224 80.3171 34.264V49H75.1331V34.792C75.1331 33 74.6531 31.624 73.6931 30.664C72.7331 29.704 71.4211 29.224 69.7571 29.224C67.8691 29.224 66.3811 29.816 65.2931 31C64.2051 32.152 63.6611 33.864 63.6611 36.136V49H58.4771V25H63.6611V28.072C65.2611 25.608 67.7411 24.376 71.1011 24.376ZM104.907 28.408V25H110.091V49H104.907V45.544C102.955 48.264 100.155 49.624 96.507 49.624C93.211 49.624 90.395 48.408 88.059 45.976C85.723 43.544 84.555 40.552 84.555 37C84.555 33.448 85.723 30.456 88.059 28.024C90.395 25.592 93.211 24.376 96.507 24.376C100.155 24.376 102.955 25.72 104.907 28.408ZM91.899 42.52C93.339 43.96 95.147 44.68 97.323 44.68C99.499 44.68 101.307 43.96 102.747 42.52C104.187 41.048 104.907 39.208 104.907 37C104.907 34.792 104.187 32.968 102.747 31.528C101.307 30.056 99.499 29.32 97.323 29.32C95.147 29.32 93.339 30.056 91.899 31.528C90.459 32.968 89.739 34.792 89.739 37C89.739 39.176 90.459 41.016 91.899 42.52ZM121.317 49H116.133V13.96H121.317V49ZM137.369 42.424L143.513 25H149.033L139.817 49.768C137.513 55.976 133.609 58.92 128.105 58.6V53.752C129.705 53.848 131.001 53.512 131.993 52.744C132.985 51.976 133.817 50.744 134.489 49.048L134.729 48.568L124.553 25H130.217L137.369 42.424ZM165.666 25V29.992H159.714V41.512C159.714 42.504 159.938 43.224 160.386 43.672C160.834 44.088 161.49 44.328 162.354 44.392C163.25 44.424 164.354 44.408 165.666 44.344V49C161.698 49.48 158.85 49.144 157.122 47.992C155.394 46.808 154.53 44.648 154.53 41.512V29.992H150.114V25H154.53V19.816L159.714 18.28V25H165.666ZM175.264 20.44C174.624 21.08 173.856 21.4 172.96 21.4C172.064 21.4 171.28 21.08 170.608 20.44C169.968 19.768 169.648 18.984 169.648 18.088C169.648 17.192 169.968 16.424 170.608 15.784C171.248 15.112 172.032 14.776 172.96 14.776C173.888 14.776 174.672 15.112 175.312 15.784C175.952 16.424 176.272 17.192 176.272 18.088C176.272 18.984 175.936 19.768 175.264 20.44ZM175.552 49H170.368V25H175.552V49ZM192.899 49.624C189.283 49.624 186.259 48.408 183.827 45.976C181.427 43.512 180.227 40.52 180.227 37C180.227 33.416 181.427 30.424 183.827 28.024C186.259 25.592 189.283 24.376 192.899 24.376C195.235 24.376 197.363 24.936 199.283 26.056C201.203 27.176 202.643 28.68 203.603 30.568L199.139 33.16C198.595 32.008 197.763 31.112 196.643 30.472C195.555 29.8 194.291 29.464 192.851 29.464C190.739 29.464 188.963 30.184 187.523 31.624C186.115 33.096 185.411 34.888 185.411 37C185.411 39.112 186.115 40.904 187.523 42.376C188.963 43.816 190.739 44.536 192.851 44.536C194.259 44.536 195.523 44.216 196.643 43.576C197.795 42.904 198.659 41.992 199.235 40.84L203.699 43.384C202.675 45.304 201.187 46.824 199.235 47.944C197.315 49.064 195.203 49.624 192.899 49.624ZM211.961 31.624C211.961 32.36 212.345 32.968 213.113 33.448C213.881 33.896 215.001 34.328 216.473 34.744C217.593 35 218.569 35.272 219.401 35.56C220.233 35.848 221.113 36.28 222.041 36.856C222.969 37.4 223.673 38.136 224.153 39.064C224.665 39.96 224.905 41.016 224.873 42.232C224.873 44.536 223.977 46.344 222.185 47.656C220.393 48.968 218.169 49.624 215.513 49.624C213.145 49.624 211.113 49.128 209.417 48.136C207.721 47.144 206.489 45.768 205.721 44.008L210.185 41.416C210.985 43.72 212.761 44.872 215.513 44.872C218.233 44.872 219.593 43.976 219.593 42.184C219.593 40.872 218.073 39.848 215.033 39.112C213.881 38.824 212.905 38.536 212.105 38.248C211.337 37.96 210.473 37.544 209.513 37C208.585 36.456 207.865 35.736 207.353 34.84C206.873 33.944 206.649 32.904 206.681 31.72C206.681 29.512 207.513 27.736 209.177 26.392C210.873 25.048 212.969 24.376 215.465 24.376C217.449 24.376 219.209 24.824 220.745 25.72C222.313 26.584 223.513 27.8 224.345 29.368L219.977 31.816C219.177 29.992 217.673 29.08 215.465 29.08C214.441 29.08 213.593 29.304 212.921 29.752C212.281 30.2 211.961 30.824 211.961 31.624ZM260.438 28.408V25H265.622V49H260.438V45.544C258.486 48.264 255.686 49.624 252.038 49.624C248.742 49.624 245.926 48.408 243.59 45.976C241.254 43.544 240.086 40.552 240.086 37C240.086 33.448 241.254 30.456 243.59 28.024C245.926 25.592 248.742 24.376 252.038 24.376C255.686 24.376 258.486 25.72 260.438 28.408ZM247.43 42.52C248.87 43.96 250.678 44.68 252.854 44.68C255.03 44.68 256.838 43.96 258.278 42.52C259.718 41.048 260.438 39.208 260.438 37C260.438 34.792 259.718 32.968 258.278 31.528C256.838 30.056 255.03 29.32 252.854 29.32C250.678 29.32 248.87 30.056 247.43 31.528C245.99 32.968 245.27 34.792 245.27 37C245.27 39.176 245.99 41.016 247.43 42.52ZM284.289 24.376C287.073 24.376 289.297 25.272 290.961 27.064C292.657 28.824 293.505 31.224 293.505 34.264V49H288.321V34.792C288.321 33 287.841 31.624 286.881 30.664C285.921 29.704 284.609 29.224 282.945 29.224C281.057 29.224 279.569 29.816 278.481 31C277.393 32.152 276.849 33.864 276.849 36.136V49H271.665V25H276.849V28.072C278.449 25.608 280.929 24.376 284.289 24.376ZM318.095 28.408V15.4H323.279V49H318.095V45.544C316.143 48.264 313.343 49.624 309.695 49.624C306.399 49.624 303.583 48.408 301.247 45.976C298.911 43.544 297.743 40.552 297.743 37C297.743 33.448 298.911 30.456 301.247 28.024C303.583 25.592 306.399 24.376 309.695 24.376C313.343 24.376 316.143 25.72 318.095 28.408ZM305.087 42.52C306.527 43.96 308.335 44.68 310.511 44.68C312.687 44.68 314.495 43.96 315.935 42.52C317.375 41.048 318.095 39.208 318.095 37C318.095 34.792 317.375 32.968 315.935 31.528C314.495 30.056 312.687 29.32 310.511 29.32C308.335 29.32 306.527 30.056 305.087 31.528C303.647 32.968 302.927 34.792 302.927 37C302.927 39.176 303.647 41.016 305.087 42.52ZM352.649 49.624C349.033 49.624 346.009 48.408 343.577 45.976C341.177 43.512 339.977 40.52 339.977 37C339.977 33.416 341.177 30.424 343.577 28.024C346.009 25.592 349.033 24.376 352.649 24.376C354.985 24.376 357.113 24.936 359.033 26.056C360.953 27.176 362.393 28.68 363.353 30.568L358.889 33.16C358.345 32.008 357.513 31.112 356.393 30.472C355.305 29.8 354.041 29.464 352.601 29.464C350.489 29.464 348.713 30.184 347.273 31.624C345.865 33.096 345.161 34.888 345.161 37C345.161 39.112 345.865 40.904 347.273 42.376C348.713 43.816 350.489 44.536 352.601 44.536C354.009 44.536 355.273 44.216 356.393 43.576C357.545 42.904 358.409 41.992 358.985 40.84L363.449 43.384C362.425 45.304 360.937 46.824 358.985 47.944C357.065 49.064 354.953 49.624 352.649 49.624ZM387.125 45.976C384.693 48.408 381.701 49.624 378.149 49.624C374.597 49.624 371.605 48.408 369.173 45.976C366.709 43.512 365.477 40.52 365.477 37C365.477 33.48 366.709 30.488 369.173 28.024C371.605 25.592 374.597 24.376 378.149 24.376C381.701 24.376 384.693 25.592 387.125 28.024C389.589 30.488 390.821 33.48 390.821 37C390.821 40.52 389.589 43.512 387.125 45.976ZM370.661 37C370.661 39.176 371.381 40.984 372.821 42.424C374.261 43.864 376.037 44.584 378.149 44.584C380.261 44.584 382.037 43.864 383.477 42.424C384.917 40.984 385.637 39.176 385.637 37C385.637 34.824 384.917 33.016 383.477 31.576C382.037 30.136 380.261 29.416 378.149 29.416C376.037 29.416 374.261 30.136 372.821 31.576C371.381 33.016 370.661 34.824 370.661 37ZM408.132 24.376C410.916 24.376 413.14 25.272 414.804 27.064C416.5 28.824 417.348 31.224 417.348 34.264V49H412.164V34.792C412.164 33 411.684 31.624 410.724 30.664C409.764 29.704 408.452 29.224 406.788 29.224C404.9 29.224 403.412 29.816 402.324 31C401.236 32.152 400.692 33.864 400.692 36.136V49H395.508V25H400.692V28.072C402.292 25.608 404.772 24.376 408.132 24.376ZM427.586 31.624C427.586 32.36 427.97 32.968 428.738 33.448C429.506 33.896 430.626 34.328 432.098 34.744C433.218 35 434.194 35.272 435.026 35.56C435.858 35.848 436.738 36.28 437.666 36.856C438.594 37.4 439.298 38.136 439.778 39.064C440.29 39.96 440.53 41.016 440.498 42.232C440.498 44.536 439.602 46.344 437.81 47.656C436.018 48.968 433.794 49.624 431.138 49.624C428.77 49.624 426.738 49.128 425.042 48.136C423.346 47.144 422.114 45.768 421.346 44.008L425.81 41.416C426.61 43.72 428.386 44.872 431.138 44.872C433.858 44.872 435.218 43.976 435.218 42.184C435.218 40.872 433.698 39.848 430.658 39.112C429.506 38.824 428.53 38.536 427.73 38.248C426.962 37.96 426.098 37.544 425.138 37C424.21 36.456 423.49 35.736 422.978 34.84C422.498 33.944 422.274 32.904 422.306 31.72C422.306 29.512 423.138 27.736 424.802 26.392C426.498 25.048 428.594 24.376 431.09 24.376C433.074 24.376 434.834 24.824 436.37 25.72C437.938 26.584 439.138 27.8 439.97 29.368L435.602 31.816C434.802 29.992 433.298 29.08 431.09 29.08C430.066 29.08 429.218 29.304 428.546 29.752C427.906 30.2 427.586 30.824 427.586 31.624ZM460.95 37.864V25H466.134V49H460.95V45.928C459.35 48.392 456.87 49.624 453.51 49.624C450.726 49.624 448.486 48.744 446.79 46.984C445.126 45.192 444.294 42.776 444.294 39.736V25H449.478V39.208C449.478 41 449.958 42.376 450.918 43.336C451.878 44.296 453.19 44.776 454.854 44.776C456.742 44.776 458.23 44.2 459.318 43.048C460.406 41.864 460.95 40.136 460.95 37.864ZM477.38 49H472.196V13.96H477.38V49ZM496.791 25V29.992H490.839V41.512C490.839 42.504 491.063 43.224 491.511 43.672C491.959 44.088 492.615 44.328 493.479 44.392C494.375 44.424 495.479 44.408 496.791 44.344V49C492.823 49.48 489.975 49.144 488.247 47.992C486.519 46.808 485.655 44.648 485.655 41.512V29.992H481.239V25H485.655V19.816L490.839 18.28V25H496.791ZM506.389 20.44C505.749 21.08 504.981 21.4 504.085 21.4C503.189 21.4 502.405 21.08 501.733 20.44C501.093 19.768 500.773 18.984 500.773 18.088C500.773 17.192 501.093 16.424 501.733 15.784C502.373 15.112 503.157 14.776 504.085 14.776C505.013 14.776 505.797 15.112 506.437 15.784C507.077 16.424 507.397 17.192 507.397 18.088C507.397 18.984 507.061 19.768 506.389 20.44ZM506.677 49H501.493V25H506.677V49ZM525.32 24.376C528.104 24.376 530.328 25.272 531.992 27.064C533.688 28.824 534.536 31.224 534.536 34.264V49H529.352V34.792C529.352 33 528.872 31.624 527.912 30.664C526.952 29.704 525.64 29.224 523.976 29.224C522.088 29.224 520.6 29.816 519.512 31C518.424 32.152 517.88 33.864 517.88 36.136V49H512.696V25H517.88V28.072C519.48 25.608 521.96 24.376 525.32 24.376ZM559.222 28.552V25H564.31V47.896C564.31 51.544 563.11 54.344 560.71 56.296C558.342 58.248 555.43 59.224 551.974 59.224C546.438 59.224 542.646 57.288 540.598 53.416L545.062 50.824C546.31 53.288 548.646 54.52 552.07 54.52C554.31 54.52 556.054 53.928 557.302 52.744C558.582 51.592 559.222 49.976 559.222 47.896V44.968C557.27 47.752 554.486 49.144 550.87 49.144C547.51 49.144 544.646 47.944 542.278 45.544C539.942 43.112 538.774 40.184 538.774 36.76C538.774 33.304 539.942 30.392 542.278 28.024C544.614 25.592 547.478 24.376 550.87 24.376C554.486 24.376 557.27 25.768 559.222 28.552ZM546.118 42.136C547.59 43.576 549.414 44.296 551.59 44.296C553.766 44.296 555.574 43.576 557.014 42.136C558.486 40.696 559.222 38.904 559.222 36.76C559.222 34.616 558.486 32.824 557.014 31.384C555.574 29.944 553.766 29.224 551.59 29.224C549.414 29.224 547.59 29.944 546.118 31.384C544.678 32.824 543.958 34.616 543.958 36.76C543.958 38.904 544.678 40.696 546.118 42.136Z" fill="#FE5000"/>
</svg>