<?xml version="1.0" encoding="UTF-8"?>
<svg xmlns="http://www.w3.org/2000/svg" width="652" height="64" viewBox="0 0 652 64" fill="none">
  <path d="M0 0H620C637.673 0 652 14.3269 652 32V32C652 49.6731 637.673 64 620 64H0V0Z" fill="#FEFEFE"/>
  <path d="M47.04 15.4V20.68H32.88V30.088H46.56V35.368H32.88V49H27.36V15.4H47.04ZM56.7638 20.44C56.1238 21.08 55.3558 21.4 54.4598 21.4C53.5638 21.4 52.7798 21.08 52.1078 20.44C51.4678 19.768 51.1478 18.984 51.1478 18.088C51.1478 17.192 51.4678 16.424 52.1078 15.784C52.7478 15.112 53.5318 14.776 54.4598 14.776C55.3878 14.776 56.1718 15.112 56.8118 15.784C57.4518 16.424 57.7718 17.192 57.7718 18.088C57.7718 18.984 57.4358 19.768 56.7638 20.44ZM57.0518 49H51.8678V25H57.0518V49ZM75.6949 24.376C78.4789 24.376 80.7029 25.272 82.3669 27.064C84.0629 28.824 84.9109 31.224 84.9109 34.264V49H79.7269V34.792C79.7269 33 79.2469 31.624 78.2869 30.664C77.3269 29.704 76.0149 29.224 74.3509 29.224C72.4629 29.224 70.9749 29.816 69.8869 31C68.7989 32.152 68.2549 33.864 68.2549 36.136V49H63.0709V25H68.2549V28.072C69.8549 25.608 72.3349 24.376 75.6949 24.376ZM109.501 28.408V25H114.685V49H109.501V45.544C107.549 48.264 104.749 49.624 101.101 49.624C97.8048 49.624 94.9888 48.408 92.6528 45.976C90.3168 43.544 89.1488 40.552 89.1488 37C89.1488 33.448 90.3168 30.456 92.6528 28.024C94.9888 25.592 97.8048 24.376 101.101 24.376C104.749 24.376 107.549 25.72 109.501 28.408ZM96.4928 42.52C97.9328 43.96 99.7408 44.68 101.917 44.68C104.093 44.68 105.901 43.96 107.341 42.52C108.781 41.048 109.501 39.208 109.501 37C109.501 34.792 108.781 32.968 107.341 31.528C105.901 30.056 104.093 29.32 101.917 29.32C99.7408 29.32 97.9328 30.056 96.4928 31.528C95.0528 32.968 94.3328 34.792 94.3328 37C94.3328 39.176 95.0528 41.016 96.4928 42.52ZM133.351 24.376C136.135 24.376 138.359 25.272 140.023 27.064C141.719 28.824 142.567 31.224 142.567 34.264V49H137.383V34.792C137.383 33 136.903 31.624 135.943 30.664C134.983 29.704 133.671 29.224 132.007 29.224C130.119 29.224 128.631 29.816 127.543 31C126.455 32.152 125.911 33.864 125.911 36.136V49H120.727V25H125.911V28.072C127.511 25.608 129.991 24.376 133.351 24.376ZM159.477 49.624C155.861 49.624 152.837 48.408 150.405 45.976C148.005 43.512 146.805 40.52 146.805 37C146.805 33.416 148.005 30.424 150.405 28.024C152.837 25.592 155.861 24.376 159.477 24.376C161.813 24.376 163.941 24.936 165.861 26.056C167.781 27.176 169.221 28.68 170.181 30.568L165.717 33.16C165.173 32.008 164.341 31.112 163.221 30.472C162.133 29.8 160.869 29.464 159.429 29.464C157.317 29.464 155.541 30.184 154.101 31.624C152.693 33.096 151.989 34.888 151.989 37C151.989 39.112 152.693 40.904 154.101 42.376C155.541 43.816 157.317 44.536 159.429 44.536C160.837 44.536 162.101 44.216 163.221 43.576C164.373 42.904 165.237 41.992 165.813 40.84L170.277 43.384C169.253 45.304 167.765 46.824 165.813 47.944C163.893 49.064 161.781 49.624 159.477 49.624ZM196.833 39.208H177.729C178.113 41 178.977 42.392 180.321 43.384C181.697 44.376 183.393 44.872 185.409 44.872C188.129 44.872 190.193 43.88 191.601 41.896L195.873 44.392C193.537 47.88 190.033 49.624 185.361 49.624C181.489 49.624 178.337 48.44 175.905 46.072C173.505 43.672 172.305 40.648 172.305 37C172.305 33.448 173.489 30.456 175.857 28.024C178.193 25.592 181.233 24.376 184.977 24.376C188.465 24.376 191.345 25.608 193.617 28.072C195.889 30.536 197.025 33.528 197.025 37.048C197.025 37.688 196.961 38.408 196.833 39.208ZM177.681 34.984H191.793C191.441 33.096 190.641 31.64 189.393 30.616C188.177 29.592 186.689 29.08 184.929 29.08C183.009 29.08 181.409 29.608 180.129 30.664C178.849 31.72 178.033 33.16 177.681 34.984ZM232.595 28.408V25H237.779V49H232.595V45.544C230.643 48.264 227.843 49.624 224.195 49.624C220.899 49.624 218.083 48.408 215.747 45.976C213.411 43.544 212.243 40.552 212.243 37C212.243 33.448 213.411 30.456 215.747 28.024C218.083 25.592 220.899 24.376 224.195 24.376C227.843 24.376 230.643 25.72 232.595 28.408ZM219.587 42.52C221.027 43.96 222.835 44.68 225.011 44.68C227.187 44.68 228.995 43.96 230.435 42.52C231.875 41.048 232.595 39.208 232.595 37C232.595 34.792 231.875 32.968 230.435 31.528C228.995 30.056 227.187 29.32 225.011 29.32C222.835 29.32 221.027 30.056 219.587 31.528C218.147 32.968 217.427 34.792 217.427 37C217.427 39.176 218.147 41.016 219.587 42.52ZM256.445 24.376C259.229 24.376 261.453 25.272 263.117 27.064C264.813 28.824 265.661 31.224 265.661 34.264V49H260.477V34.792C260.477 33 259.997 31.624 259.037 30.664C258.077 29.704 256.765 29.224 255.101 29.224C253.213 29.224 251.725 29.816 250.637 31C249.549 32.152 249.005 33.864 249.005 36.136V49H243.821V25H249.005V28.072C250.605 25.608 253.085 24.376 256.445 24.376ZM290.251 28.408V15.4H295.435V49H290.251V45.544C288.299 48.264 285.499 49.624 281.851 49.624C278.555 49.624 275.739 48.408 273.403 45.976C271.067 43.544 269.899 40.552 269.899 37C269.899 33.448 271.067 30.456 273.403 28.024C275.739 25.592 278.555 24.376 281.851 24.376C285.499 24.376 288.299 25.72 290.251 28.408ZM277.243 42.52C278.683 43.96 280.491 44.68 282.667 44.68C284.843 44.68 286.651 43.96 288.091 42.52C289.531 41.048 290.251 39.208 290.251 37C290.251 34.792 289.531 32.968 288.091 31.528C286.651 30.056 284.843 29.32 282.667 29.32C280.491 29.32 278.683 30.056 277.243 31.528C275.803 32.968 275.083 34.792 275.083 37C275.083 39.176 275.803 41.016 277.243 42.52ZM332.485 28.408V25H337.669V49H332.485V45.544C330.533 48.264 327.733 49.624 324.085 49.624C320.789 49.624 317.973 48.408 315.637 45.976C313.301 43.544 312.133 40.552 312.133 37C312.133 33.448 313.301 30.456 315.637 28.024C317.973 25.592 320.789 24.376 324.085 24.376C327.733 24.376 330.533 25.72 332.485 28.408ZM319.477 42.52C320.917 43.96 322.725 44.68 324.901 44.68C327.077 44.68 328.885 43.96 330.325 42.52C331.765 41.048 332.485 39.208 332.485 37C332.485 34.792 331.765 32.968 330.325 31.528C328.885 30.056 327.077 29.32 324.901 29.32C322.725 29.32 320.917 30.056 319.477 31.528C318.037 32.968 317.317 34.792 317.317 37C317.317 39.176 318.037 41.016 319.477 42.52ZM362.72 28.408V15.4H367.904V49H362.72V45.544C360.768 48.264 357.968 49.624 354.32 49.624C351.024 49.624 348.208 48.408 345.872 45.976C343.536 43.544 342.368 40.552 342.368 37C342.368 33.448 343.536 30.456 345.872 28.024C348.208 25.592 351.024 24.376 354.32 24.376C357.968 24.376 360.768 25.72 362.72 28.408ZM349.712 42.52C351.152 43.96 352.96 44.68 355.136 44.68C357.312 44.68 359.12 43.96 360.56 42.52C362 41.048 362.72 39.208 362.72 37C362.72 34.792 362 32.968 360.56 31.528C359.12 30.056 357.312 29.32 355.136 29.32C352.96 29.32 351.152 30.056 349.712 31.528C348.272 32.968 347.552 34.792 347.552 37C347.552 39.176 348.272 41.016 349.712 42.52ZM400.154 24.376C402.874 24.376 405.066 25.256 406.73 27.016C408.394 28.776 409.226 31.144 409.226 34.12V49H404.042V34.456C404.042 32.824 403.626 31.544 402.794 30.616C401.962 29.688 400.826 29.224 399.386 29.224C397.754 29.224 396.474 29.768 395.546 30.856C394.618 31.912 394.154 33.48 394.154 35.56V49H388.97V34.456C388.97 32.792 388.57 31.512 387.77 30.616C387.002 29.688 385.898 29.224 384.458 29.224C382.858 29.224 381.562 29.768 380.57 30.856C379.61 31.944 379.13 33.512 379.13 35.56V49H373.946V25H379.13V27.88C380.666 25.544 382.954 24.376 385.994 24.376C389.066 24.376 391.338 25.64 392.81 28.168C394.378 25.64 396.826 24.376 400.154 24.376ZM419.67 20.44C419.03 21.08 418.262 21.4 417.366 21.4C416.47 21.4 415.686 21.08 415.014 20.44C414.374 19.768 414.054 18.984 414.054 18.088C414.054 17.192 414.374 16.424 415.014 15.784C415.654 15.112 416.438 14.776 417.366 14.776C418.294 14.776 419.078 15.112 419.718 15.784C420.358 16.424 420.678 17.192 420.678 18.088C420.678 18.984 420.342 19.768 419.67 20.44ZM419.958 49H414.774V25H419.958V49ZM438.601 24.376C441.385 24.376 443.609 25.272 445.273 27.064C446.969 28.824 447.817 31.224 447.817 34.264V49H442.633V34.792C442.633 33 442.153 31.624 441.193 30.664C440.233 29.704 438.921 29.224 437.257 29.224C435.369 29.224 433.881 29.816 432.793 31C431.705 32.152 431.161 33.864 431.161 36.136V49H425.977V25H431.161V28.072C432.761 25.608 435.241 24.376 438.601 24.376ZM458.295 20.44C457.655 21.08 456.887 21.4 455.991 21.4C455.095 21.4 454.311 21.08 453.639 20.44C452.999 19.768 452.679 18.984 452.679 18.088C452.679 17.192 452.999 16.424 453.639 15.784C454.279 15.112 455.063 14.776 455.991 14.776C456.919 14.776 457.703 15.112 458.343 15.784C458.983 16.424 459.303 17.192 459.303 18.088C459.303 18.984 458.967 19.768 458.295 20.44ZM458.583 49H453.399V25H458.583V49ZM469.118 31.624C469.118 32.36 469.502 32.968 470.27 33.448C471.038 33.896 472.158 34.328 473.63 34.744C474.75 35 475.726 35.272 476.558 35.56C477.39 35.848 478.27 36.28 479.198 36.856C480.126 37.4 480.83 38.136 481.31 39.064C481.822 39.96 482.062 41.016 482.03 42.232C482.03 44.536 481.134 46.344 479.342 47.656C477.55 48.968 475.326 49.624 472.67 49.624C470.302 49.624 468.27 49.128 466.574 48.136C464.878 47.144 463.646 45.768 462.878 44.008L467.342 41.416C468.142 43.72 469.918 44.872 472.67 44.872C475.39 44.872 476.75 43.976 476.75 42.184C476.75 40.872 475.23 39.848 472.19 39.112C471.038 38.824 470.062 38.536 469.262 38.248C468.494 37.96 467.63 37.544 466.67 37C465.742 36.456 465.022 35.736 464.51 34.84C464.03 33.944 463.806 32.904 463.838 31.72C463.838 29.512 464.67 27.736 466.334 26.392C468.03 25.048 470.126 24.376 472.622 24.376C474.606 24.376 476.366 24.824 477.902 25.72C479.47 26.584 480.67 27.8 481.502 29.368L477.134 31.816C476.334 29.992 474.83 29.08 472.622 29.08C471.598 29.08 470.75 29.304 470.078 29.752C469.438 30.2 469.118 30.824 469.118 31.624ZM499.041 25V29.992H493.089V41.512C493.089 42.504 493.313 43.224 493.761 43.672C494.209 44.088 494.865 44.328 495.729 44.392C496.625 44.424 497.729 44.408 499.041 44.344V49C495.073 49.48 492.225 49.144 490.497 47.992C488.769 46.808 487.905 44.648 487.905 41.512V29.992H483.489V25H487.905V19.816L493.089 18.28V25H499.041ZM509.161 25V29.032C510.473 26.056 512.937 24.568 516.553 24.568V30.184C514.601 30.056 512.873 30.536 511.369 31.624C509.897 32.68 509.161 34.44 509.161 36.904V49H503.977V25H509.161ZM538.266 28.408V25H543.45V49H538.266V45.544C536.314 48.264 533.514 49.624 529.866 49.624C526.57 49.624 523.754 48.408 521.418 45.976C519.082 43.544 517.914 40.552 517.914 37C517.914 33.448 519.082 30.456 521.418 28.024C523.754 25.592 526.57 24.376 529.866 24.376C533.514 24.376 536.314 25.72 538.266 28.408ZM525.258 42.52C526.698 43.96 528.506 44.68 530.682 44.68C532.858 44.68 534.666 43.96 536.106 42.52C537.546 41.048 538.266 39.208 538.266 37C538.266 34.792 537.546 32.968 536.106 31.528C534.666 30.056 532.858 29.32 530.682 29.32C528.506 29.32 526.698 30.056 525.258 31.528C523.818 32.968 523.098 34.792 523.098 37C523.098 39.176 523.818 41.016 525.258 42.52ZM562.885 25V29.992H556.933V41.512C556.933 42.504 557.157 43.224 557.605 43.672C558.053 44.088 558.709 44.328 559.573 44.392C560.469 44.424 561.573 44.408 562.885 44.344V49C558.917 49.48 556.069 49.144 554.341 47.992C552.613 46.808 551.749 44.648 551.749 41.512V29.992H547.333V25H551.749V19.816L556.933 18.28V25H562.885ZM572.483 20.44C571.843 21.08 571.075 21.4 570.179 21.4C569.283 21.4 568.499 21.08 567.827 20.44C567.187 19.768 566.867 18.984 566.867 18.088C566.867 17.192 567.187 16.424 567.827 15.784C568.467 15.112 569.251 14.776 570.179 14.776C571.107 14.776 571.891 15.112 572.531 15.784C573.171 16.424 573.491 17.192 573.491 18.088C573.491 18.984 573.155 19.768 572.483 20.44ZM572.771 49H567.587V25H572.771V49ZM588.39 43.24L595.062 25H600.726L591.366 49H585.366L576.006 25H581.67L588.39 43.24ZM626.255 39.208H607.151C607.535 41 608.399 42.392 609.743 43.384C611.119 44.376 612.815 44.872 614.831 44.872C617.551 44.872 619.615 43.88 621.023 41.896L625.295 44.392C622.959 47.88 619.455 49.624 614.783 49.624C610.911 49.624 607.759 48.44 605.327 46.072C602.927 43.672 601.727 40.648 601.727 37C601.727 33.448 602.911 30.456 605.279 28.024C607.615 25.592 610.655 24.376 614.399 24.376C617.887 24.376 620.767 25.608 623.039 28.072C625.311 30.536 626.447 33.528 626.447 37.048C626.447 37.688 626.383 38.408 626.255 39.208ZM607.103 34.984H621.215C620.863 33.096 620.063 31.64 618.815 30.616C617.599 29.592 616.111 29.08 614.351 29.08C612.431 29.08 610.831 29.608 609.551 30.664C608.271 31.72 607.455 33.16 607.103 34.984Z" fill="#FE5000"/>
</svg>