<svg version="1.1" id="Layer_1" xmlns="http://www.w3.org/2000/svg" xmlns:xlink="http://www.w3.org/1999/xlink" x="0px" y="0px"
	 width="100%" viewBox="0 0 347 64" enable-background="new 0 0 347 64" xml:space="preserve">
<path fill="#FEFDFC" opacity="1.000000" stroke="none" 
	d="
M348.000000,22.000000 
	C348.000000,29.020948 348.000000,36.041897 347.684570,43.237503 
	C342.856812,52.595650 336.603882,60.024937 326.795258,63.902283 
	C326.729187,63.928406 326.925964,64.619438 327.000000,65.000000 
	C218.399750,65.000000 109.799484,65.000000 1.099614,65.000000 
	C1.099614,43.746529 1.099614,22.492434 1.099614,1.000000 
	C109.354111,1.000000 217.708405,1.000000 326.237427,1.315430 
	C335.595367,6.143466 343.024323,12.396715 346.902283,22.204725 
	C346.928436,22.270821 347.619446,22.074036 348.000000,22.000000 
M28.255835,48.118240 
	C28.849550,48.747410 29.436178,49.913204 30.038097,49.921146 
	C35.010906,49.986801 40.065861,50.365028 44.942852,49.631207 
	C52.360981,48.515018 57.631195,41.373535 57.757042,33.417976 
	C57.875523,25.928402 53.043724,18.374483 46.340878,17.162617 
	C40.588612,16.122614 34.610668,16.330847 28.238588,15.958196 
	C28.238588,26.997791 28.238588,37.089798 28.255835,48.118240 
M229.457474,27.654585 
	C227.675507,26.866808 225.882050,25.399227 224.113907,25.429113 
	C220.114807,25.496708 216.128189,26.303299 211.845169,26.846256 
	C211.845169,34.133224 211.845169,41.885700 211.845169,50.016666 
	C213.600494,49.922184 215.152161,49.838661 216.957642,49.741478 
	C216.957642,45.022755 216.961945,40.715977 216.956299,36.409203 
	C216.951736,32.932549 218.432404,30.438692 222.070572,30.315550 
	C225.803360,30.189209 226.660217,33.099602 226.773056,36.107658 
	C226.928818,40.259899 226.835251,44.421120 226.898911,48.577721 
	C226.905640,49.017265 227.250259,49.451637 227.527008,50.095081 
	C228.954407,49.943981 230.353424,49.795883 231.943283,49.627586 
	C231.943283,45.465759 231.975601,41.655548 231.934143,37.846142 
	C231.893372,34.099682 232.344406,30.334114 237.066650,30.328278 
	C241.633514,30.322632 241.835434,34.066769 241.825119,37.567383 
	C241.814346,41.225647 241.835571,44.884361 241.895248,48.542023 
	C241.902405,48.981724 242.237122,49.416088 242.498428,50.040237 
	C243.940201,49.947758 245.346497,49.857555 246.954529,49.754410 
	C246.954529,44.269295 247.255875,39.114563 246.884384,34.008793 
	C246.318085,26.225533 238.806534,22.862123 232.269974,27.191448 
	C231.586029,27.644445 230.730835,27.838892 229.457474,27.654585 
M204.500305,30.147552 
	C201.365021,28.510923 198.338211,25.836206 195.067627,25.494474 
	C190.759644,25.044348 186.464874,28.789143 181.609711,25.314001 
	C181.609711,37.309422 181.609711,48.226875 181.609711,59.391369 
	C183.368271,59.391369 184.880844,59.391369 186.779968,59.391369 
	C186.779968,57.215336 186.779968,55.412964 186.779968,53.610592 
	C186.779968,51.855972 186.779968,50.101349 186.779968,48.125069 
	C194.595230,51.600609 199.691452,51.156952 203.624908,46.934265 
	C207.636490,42.627701 208.074753,37.196934 204.500305,30.147552 
M120.336075,44.277023 
	C119.511131,43.191338 118.686188,42.105648 117.186630,40.132118 
	C124.461830,40.132118 130.527878,40.132118 136.521469,40.132118 
	C137.413086,32.506672 134.044769,27.200201 127.738762,25.719488 
	C121.549988,24.266302 115.287682,27.458090 113.090485,33.185467 
	C110.732208,39.332729 113.141617,46.181591 118.695335,49.117561 
	C124.697006,52.290340 131.542145,50.772987 136.406326,43.888935 
	C133.284897,44.261349 131.420578,44.601624 129.545319,44.680065 
	C126.687576,44.799610 123.822243,44.737946 120.336075,44.277023 
M258.308350,40.213055 
	C264.074036,40.213055 269.839722,40.213055 275.527527,40.213055 
	C276.218536,32.089424 272.656525,26.907421 266.000031,25.586466 
	C259.615997,24.319578 253.731949,27.893072 251.694519,34.274483 
	C249.776550,40.281708 252.521179,46.805450 258.060913,49.406796 
	C264.051086,52.219658 270.883484,50.516228 275.086761,43.828133 
	C272.058777,44.252377 270.023926,44.099831 268.402069,44.845539 
	C263.227356,47.224762 258.436676,45.389889 258.308350,40.213055 
M71.307732,45.431751 
	C69.686852,44.145760 68.065979,42.859768 66.445099,41.573780 
	C66.702156,41.098816 66.959213,40.623856 67.216270,40.148891 
	C73.262344,40.148891 79.308418,40.148891 85.276009,40.148891 
	C86.143234,32.611752 82.740227,27.299520 76.432777,25.705053 
	C70.301300,24.155073 64.160469,27.301397 61.884781,33.158886 
	C59.466988,39.382149 61.782669,46.120041 67.342461,49.038956 
	C73.455002,52.248074 80.299408,50.794788 85.060280,43.926594 
	C81.969925,44.298767 80.134521,44.495262 78.306641,44.746403 
	C76.218643,45.033287 74.137337,45.368793 71.307732,45.431751 
M171.018677,48.711479 
	C175.696854,45.190628 177.892639,40.696785 176.331726,34.815239 
	C174.902267,29.428932 171.295166,26.258865 165.867477,25.462204 
	C160.642044,24.695230 156.400986,26.704767 153.419296,31.070549 
	C150.348984,35.566078 150.714813,41.638981 154.167313,45.943882 
	C157.984970,50.704094 163.501678,51.772678 171.018677,48.711479 
M280.459503,27.187340 
	C280.459503,34.635349 280.459503,42.083359 280.459503,49.707340 
	C282.348999,49.707340 283.882294,49.707340 285.782196,49.707340 
	C285.782196,45.262737 285.788147,41.132988 285.780487,37.003262 
	C285.773254,33.109325 287.488586,30.444084 291.533936,30.344923 
	C295.804016,30.240255 297.137115,33.058739 297.048370,36.952999 
	C296.950989,41.227200 297.026184,45.505333 297.026184,49.829834 
	C299.022247,49.829834 300.477814,49.829834 302.175812,49.829834 
	C302.175812,44.330345 302.374481,39.020512 302.118805,33.732658 
	C301.872803,28.645847 297.733490,24.523033 292.911835,25.450291 
	C288.822296,26.236761 284.840271,26.352575 280.459503,27.187340 
M93.050537,28.241045 
	C91.252045,27.278484 89.453545,26.315922 87.655052,25.353359 
	C87.378365,25.791512 87.101669,26.229662 86.824982,26.667814 
	C89.565201,33.768703 92.193344,40.917179 95.166328,47.919247 
	C95.612915,48.971058 97.679138,49.883396 98.983856,49.867264 
	C100.268532,49.851376 102.243515,48.872963 102.699028,47.800266 
	C105.673927,40.794571 108.318176,33.648464 111.088913,26.500809 
	C107.184990,25.051716 105.114937,26.176016 103.978897,30.044491 
	C102.711754,34.359390 100.878326,38.507988 98.897598,43.776344 
	C96.702415,37.981941 95.001793,33.492992 93.050537,28.241045 
M310.057343,35.625000 
	C310.057373,37.451237 310.041199,39.277645 310.060211,41.103683 
	C310.143372,49.087227 313.215973,51.406197 322.696564,48.953033 
	C320.624573,47.274342 319.285400,46.321762 318.110077,45.197796 
	C317.052307,44.186253 315.482178,43.063229 315.348755,41.855618 
	C314.971924,38.444904 315.216980,34.965481 315.216980,31.255533 
	C317.317963,31.094606 319.063354,30.960917 320.905945,30.819782 
	C320.905945,29.129961 320.905945,27.738211 320.905945,26.238241 
	C318.923584,26.037468 317.184814,25.861370 315.403442,25.680952 
	C315.226898,23.572933 315.078033,21.795164 314.934509,20.081644 
	C309.950745,19.126284 309.874359,22.515385 309.913055,24.609110 
	C308.057587,26.048077 306.377991,26.697260 305.964844,27.814680 
	C305.230560,29.800724 306.046844,31.210737 308.661835,31.222078 
	C309.131927,31.224119 309.592285,33.475471 310.057343,35.625000 
M146.913834,24.546057 
	C146.913834,21.444881 146.913834,18.343708 146.913834,14.880309 
	C144.753845,15.024824 143.200668,15.128741 141.652603,15.232316 
	C141.652603,27.024172 141.652603,38.379025 141.652603,50.097157 
	C143.541992,49.971130 145.093811,49.867622 146.913803,49.746231 
	C146.913803,41.397781 146.913803,33.464462 146.913834,24.546057 
z"/>
<path fill="#000000" opacity="1.000000" stroke="none" 
	d="
M327.468933,65.000000 
	C326.925964,64.619438 326.729187,63.928406 326.795258,63.902283 
	C336.603882,60.024937 342.856812,52.595650 347.684570,43.706085 
	C348.000000,50.926147 348.000000,57.852295 348.000000,65.000000 
	C341.314240,65.000000 334.626038,65.000000 327.468933,65.000000 
z"/>
<path fill="#000000" opacity="1.000000" stroke="none" 
	d="
M348.000000,21.531090 
	C347.619446,22.074036 346.928436,22.270821 346.902283,22.204725 
	C343.024323,12.396715 335.595367,6.143466 326.706055,1.315430 
	C333.926147,1.000000 340.852295,1.000000 348.000000,1.000000 
	C348.000000,7.685770 348.000000,14.373973 348.000000,21.531090 
z"/>
<path fill="#FE5C12" opacity="1.000000" stroke="none" 
	d="
M28.247211,47.650024 
	C28.238588,37.089798 28.238588,26.997791 28.238588,15.958196 
	C34.610668,16.330847 40.588612,16.122614 46.340878,17.162617 
	C53.043724,18.374483 57.875523,25.928402 57.757042,33.417976 
	C57.631195,41.373535 52.360981,48.515018 44.942852,49.631207 
	C40.065861,50.365028 35.010906,49.986801 30.038097,49.921146 
	C29.436178,49.913204 28.849550,48.747410 28.247211,47.650024 
M51.582760,37.533943 
	C53.695137,25.152552 47.725121,19.892170 34.278622,22.363829 
	C34.278622,29.721600 34.278622,37.089417 34.278622,44.654434 
	C41.072010,44.888393 47.747272,45.865730 51.582760,37.533943 
z"/>
<path fill="#FE5608" opacity="1.000000" stroke="none" 
	d="
M229.706284,27.903940 
	C230.730835,27.838892 231.586029,27.644445 232.269974,27.191448 
	C238.806534,22.862123 246.318085,26.225533 246.884384,34.008793 
	C247.255875,39.114563 246.954529,44.269295 246.954529,49.754410 
	C245.346497,49.857555 243.940201,49.947758 242.498428,50.040237 
	C242.237122,49.416088 241.902405,48.981724 241.895248,48.542023 
	C241.835571,44.884361 241.814346,41.225647 241.825119,37.567383 
	C241.835434,34.066769 241.633514,30.322632 237.066650,30.328278 
	C232.344406,30.334114 231.893372,34.099682 231.934143,37.846142 
	C231.975601,41.655548 231.943283,45.465759 231.943283,49.627586 
	C230.353424,49.795883 228.954407,49.943981 227.527008,50.095081 
	C227.250259,49.451637 226.905640,49.017265 226.898911,48.577721 
	C226.835251,44.421120 226.928818,40.259899 226.773056,36.107658 
	C226.660217,33.099602 225.803360,30.189209 222.070572,30.315550 
	C218.432404,30.438692 216.951736,32.932549 216.956299,36.409203 
	C216.961945,40.715977 216.957642,45.022755 216.957642,49.741478 
	C215.152161,49.838661 213.600494,49.922184 211.845169,50.016666 
	C211.845169,41.885700 211.845169,34.133224 211.845169,26.846256 
	C216.128189,26.303299 220.114807,25.496708 224.113907,25.429113 
	C225.882050,25.399227 227.675507,26.866808 229.706284,27.903940 
z"/>
<path fill="#FE6018" opacity="1.000000" stroke="none" 
	d="
M204.714661,30.460815 
	C208.074753,37.196934 207.636490,42.627701 203.624908,46.934265 
	C199.691452,51.156952 194.595230,51.600609 186.779968,48.125069 
	C186.779968,50.101349 186.779968,51.855972 186.779968,53.610592 
	C186.779968,55.412964 186.779968,57.215336 186.779968,59.391369 
	C184.880844,59.391369 183.368271,59.391369 181.609711,59.391369 
	C181.609711,48.226875 181.609711,37.309422 181.609711,25.314001 
	C186.464874,28.789143 190.759644,25.044348 195.067627,25.494474 
	C198.338211,25.836206 201.365021,28.510923 204.714661,30.460815 
M200.636795,33.928421 
	C198.436661,30.903368 195.318192,29.363953 191.977188,30.938656 
	C189.887497,31.923595 187.279053,34.497334 187.212662,36.437168 
	C187.119781,39.151176 188.469696,42.974537 190.529709,44.385914 
	C192.365402,45.643612 196.462555,45.103977 198.742020,43.858009 
	C202.157883,41.990894 202.536987,38.287159 200.636795,33.928421 
z"/>
<path fill="#FE590D" opacity="1.000000" stroke="none" 
	d="
M120.648102,44.515129 
	C123.822243,44.737946 126.687576,44.799610 129.545319,44.680065 
	C131.420578,44.601624 133.284897,44.261349 136.406326,43.888935 
	C131.542145,50.772987 124.697006,52.290340 118.695335,49.117561 
	C113.141617,46.181591 110.732208,39.332729 113.090485,33.185467 
	C115.287682,27.458090 121.549988,24.266302 127.738762,25.719488 
	C134.044769,27.200201 137.413086,32.506672 136.521469,40.132118 
	C130.527878,40.132118 124.461830,40.132118 117.186630,40.132118 
	C118.686188,42.105648 119.511131,43.191338 120.648102,44.515129 
M119.207100,35.970722 
	C123.127167,35.970722 127.047234,35.970722 131.258179,35.970722 
	C130.780670,31.680992 128.206192,30.116606 124.856438,30.178038 
	C121.433037,30.240820 118.285141,31.335230 119.207100,35.970722 
z"/>
<path fill="#FE580C" opacity="1.000000" stroke="none" 
	d="
M257.897644,40.288631 
	C258.436676,45.389889 263.227356,47.224762 268.402069,44.845539 
	C270.023926,44.099831 272.058777,44.252377 275.086761,43.828133 
	C270.883484,50.516228 264.051086,52.219658 258.060913,49.406796 
	C252.521179,46.805450 249.776550,40.281708 251.694519,34.274483 
	C253.731949,27.893072 259.615997,24.319578 266.000031,25.586466 
	C272.656525,26.907421 276.218536,32.089424 275.527527,40.213055 
	C269.839722,40.213055 264.074036,40.213055 257.897644,40.288631 
M269.994232,34.130314 
	C268.267456,30.657860 265.287842,29.222572 261.799438,30.432098 
	C259.751221,31.142262 258.194031,33.268467 256.415955,34.757732 
	C256.735199,35.319141 257.054413,35.880550 257.373657,36.441959 
	C261.634247,35.952515 265.894806,35.463070 269.994232,34.130314 
z"/>
<path fill="#FE580C" opacity="1.000000" stroke="none" 
	d="
M71.680428,45.557457 
	C74.137337,45.368793 76.218643,45.033287 78.306641,44.746403 
	C80.134521,44.495262 81.969925,44.298767 85.060280,43.926594 
	C80.299408,50.794788 73.455002,52.248074 67.342461,49.038956 
	C61.782669,46.120041 59.466988,39.382149 61.884781,33.158886 
	C64.160469,27.301397 70.301300,24.155073 76.432777,25.705053 
	C82.740227,27.299520 86.143234,32.611752 85.276009,40.148891 
	C79.308418,40.148891 73.262344,40.148891 67.216270,40.148891 
	C66.959213,40.623856 66.702156,41.098816 66.445099,41.573780 
	C68.065979,42.859768 69.686852,44.145760 71.680428,45.557457 
M74.407402,35.997494 
	C76.268745,35.997494 78.130089,35.997494 80.502914,35.997494 
	C78.995552,31.435146 76.454453,29.716986 72.744293,30.146322 
	C69.637306,30.505859 67.235306,32.017818 66.880569,35.997494 
	C69.247879,35.997494 71.366325,35.997494 74.407402,35.997494 
z"/>
<path fill="#FE5B10" opacity="1.000000" stroke="none" 
	d="
M170.687592,48.895599 
	C163.501678,51.772678 157.984970,50.704094 154.167313,45.943882 
	C150.714813,41.638981 150.348984,35.566078 153.419296,31.070549 
	C156.400986,26.704767 160.642044,24.695230 165.867477,25.462204 
	C171.295166,26.258865 174.902267,29.428932 176.331726,34.815239 
	C177.892639,40.696785 175.696854,45.190628 170.687592,48.895599 
M171.486557,37.574577 
	C170.932587,32.837547 168.226242,30.345325 163.504807,30.583958 
	C159.773392,30.772551 157.384003,32.915318 156.845810,36.758816 
	C156.233719,41.129837 158.463608,44.436779 162.541046,45.301731 
	C167.114792,46.271965 170.142456,43.944145 171.486557,37.574577 
z"/>
<path fill="#FE5E15" opacity="1.000000" stroke="none" 
	d="
M280.617676,26.793587 
	C284.840271,26.352575 288.822296,26.236761 292.911835,25.450291 
	C297.733490,24.523033 301.872803,28.645847 302.118805,33.732658 
	C302.374481,39.020512 302.175812,44.330345 302.175812,49.829834 
	C300.477814,49.829834 299.022247,49.829834 297.026184,49.829834 
	C297.026184,45.505333 296.950989,41.227200 297.048370,36.952999 
	C297.137115,33.058739 295.804016,30.240255 291.533936,30.344923 
	C287.488586,30.444084 285.773254,33.109325 285.780487,37.003262 
	C285.788147,41.132988 285.782196,45.262737 285.782196,49.707340 
	C283.882294,49.707340 282.348999,49.707340 280.459503,49.707340 
	C280.459503,42.083359 280.459503,34.635349 280.617676,26.793587 
z"/>
<path fill="#FE590D" opacity="1.000000" stroke="none" 
	d="
M93.175858,28.622543 
	C95.001793,33.492992 96.702415,37.981941 98.897598,43.776344 
	C100.878326,38.507988 102.711754,34.359390 103.978897,30.044491 
	C105.114937,26.176016 107.184990,25.051716 111.088913,26.500809 
	C108.318176,33.648464 105.673927,40.794571 102.699028,47.800266 
	C102.243515,48.872963 100.268532,49.851376 98.983856,49.867264 
	C97.679138,49.883396 95.612915,48.971058 95.166328,47.919247 
	C92.193344,40.917179 89.565201,33.768703 86.824982,26.667814 
	C87.101669,26.229662 87.378365,25.791512 87.655052,25.353359 
	C89.453545,26.315922 91.252045,27.278484 93.175858,28.622543 
z"/>
<path fill="#FE5507" opacity="1.000000" stroke="none" 
	d="
M310.057251,35.156654 
	C309.592285,33.475471 309.131927,31.224119 308.661835,31.222078 
	C306.046844,31.210737 305.230560,29.800724 305.964844,27.814680 
	C306.377991,26.697260 308.057587,26.048077 309.913055,24.609110 
	C309.874359,22.515385 309.950745,19.126284 314.934509,20.081644 
	C315.078033,21.795164 315.226898,23.572933 315.403442,25.680952 
	C317.184814,25.861370 318.923584,26.037468 320.905945,26.238241 
	C320.905945,27.738211 320.905945,29.129961 320.905945,30.819782 
	C319.063354,30.960917 317.317963,31.094606 315.216980,31.255533 
	C315.216980,34.965481 314.971924,38.444904 315.348755,41.855618 
	C315.482178,43.063229 317.052307,44.186253 318.110077,45.197796 
	C319.285400,46.321762 320.624573,47.274342 322.696564,48.953033 
	C313.215973,51.406197 310.143372,49.087227 310.060211,41.103683 
	C310.041199,39.277645 310.057373,37.451237 310.057251,35.156654 
z"/>
<path fill="#FE6620" opacity="1.000000" stroke="none" 
	d="
M146.913818,25.038601 
	C146.913803,33.464462 146.913803,41.397781 146.913803,49.746231 
	C145.093811,49.867622 143.541992,49.971130 141.652603,50.097157 
	C141.652603,38.379025 141.652603,27.024172 141.652603,15.232316 
	C143.200668,15.128741 144.753845,15.024824 146.913834,14.880309 
	C146.913834,18.343708 146.913834,21.444881 146.913818,25.038601 
z"/>
<path fill="#FEFBFA" opacity="1.000000" stroke="none" 
	d="
M51.403687,37.895737 
	C47.747272,45.865730 41.072010,44.888393 34.278622,44.654434 
	C34.278622,37.089417 34.278622,29.721600 34.278622,22.363829 
	C47.725121,19.892170 53.695137,25.152552 51.403687,37.895737 
z"/>
<path fill="#FEF8F6" opacity="1.000000" stroke="none" 
	d="
M200.807861,34.281475 
	C202.536987,38.287159 202.157883,41.990894 198.742020,43.858009 
	C196.462555,45.103977 192.365402,45.643612 190.529709,44.385914 
	C188.469696,42.974537 187.119781,39.151176 187.212662,36.437168 
	C187.279053,34.497334 189.887497,31.923595 191.977188,30.938656 
	C195.318192,29.363953 198.436661,30.903368 200.807861,34.281475 
z"/>
<path fill="#FEF7F4" opacity="1.000000" stroke="none" 
	d="
M118.793228,35.882141 
	C118.285141,31.335230 121.433037,30.240820 124.856438,30.178038 
	C128.206192,30.116606 130.780670,31.680992 131.258179,35.970722 
	C127.047234,35.970722 123.127167,35.970722 118.793228,35.882141 
z"/>
<path fill="#FEF7F4" opacity="1.000000" stroke="none" 
	d="
M270.074829,34.551971 
	C265.894806,35.463070 261.634247,35.952515 257.373657,36.441959 
	C257.054413,35.880550 256.735199,35.319141 256.415955,34.757732 
	C258.194031,33.268467 259.751221,31.142262 261.799438,30.432098 
	C265.287842,29.222572 268.267456,30.657860 270.074829,34.551971 
z"/>
<path fill="#FEF7F4" opacity="1.000000" stroke="none" 
	d="
M73.946091,35.997494 
	C71.366325,35.997494 69.247879,35.997494 66.880569,35.997494 
	C67.235306,32.017818 69.637306,30.505859 72.744293,30.146322 
	C76.454453,29.716986 78.995552,31.435146 80.502914,35.997494 
	C78.130089,35.997494 76.268745,35.997494 73.946091,35.997494 
z"/>
<path fill="#FEF9F7" opacity="1.000000" stroke="none" 
	d="
M171.486786,37.999104 
	C170.142456,43.944145 167.114792,46.271965 162.541046,45.301731 
	C158.463608,44.436779 156.233719,41.129837 156.845810,36.758816 
	C157.384003,32.915318 159.773392,30.772551 163.504807,30.583958 
	C168.226242,30.345325 170.932587,32.837547 171.486786,37.999104 
z"/>
</svg>