<?xml version="1.0" encoding="UTF-8"?>
<svg xmlns="http://www.w3.org/2000/svg" width="290" height="64" viewBox="0 0 290 64" fill="none">
  <path d="M0 0H258C275.673 0 290 14.3269 290 32V32C290 49.6731 275.673 64 258 64H0V0Z" fill="#FEFEFE"/>
  <path d="M24.72 15.4H49.2V20.68H39.744V49H34.224V20.68H24.72V15.4ZM68.9374 45.976C66.5054 48.408 63.5134 49.624 59.9614 49.624C56.4094 49.624 53.4174 48.408 50.9854 45.976C48.5214 43.512 47.2894 40.52 47.2894 37C47.2894 33.48 48.5214 30.488 50.9854 28.024C53.4174 25.592 56.4094 24.376 59.9614 24.376C63.5134 24.376 66.5054 25.592 68.9374 28.024C71.4014 30.488 72.6334 33.48 72.6334 37C72.6334 40.52 71.4014 43.512 68.9374 45.976ZM52.4734 37C52.4734 39.176 53.1934 40.984 54.6334 42.424C56.0734 43.864 57.8494 44.584 59.9614 44.584C62.0734 44.584 63.8494 43.864 65.2894 42.424C66.7294 40.984 67.4494 39.176 67.4494 37C67.4494 34.824 66.7294 33.016 65.2894 31.576C63.8494 30.136 62.0734 29.416 59.9614 29.416C57.8494 29.416 56.0734 30.136 54.6334 31.576C53.1934 33.016 52.4734 34.824 52.4734 37ZM77.6569 15.4H90.8569C95.4649 15.4 99.2889 17.016 102.329 20.248C105.401 23.48 106.937 27.464 106.937 32.2C106.937 36.904 105.401 40.888 102.329 44.152C99.2889 47.384 95.4649 49 90.8569 49H77.6569V15.4ZM83.1769 43.72H90.8569C94.0249 43.72 96.6009 42.632 98.5849 40.456C100.601 38.28 101.609 35.528 101.609 32.2C101.609 28.872 100.601 26.12 98.5849 23.944C96.6009 21.768 94.0249 20.68 90.8569 20.68H83.1769V43.72ZM131.937 45.976C129.505 48.408 126.513 49.624 122.961 49.624C119.409 49.624 116.417 48.408 113.985 45.976C111.521 43.512 110.289 40.52 110.289 37C110.289 33.48 111.521 30.488 113.985 28.024C116.417 25.592 119.409 24.376 122.961 24.376C126.513 24.376 129.505 25.592 131.937 28.024C134.401 30.488 135.633 33.48 135.633 37C135.633 40.52 134.401 43.512 131.937 45.976ZM115.473 37C115.473 39.176 116.193 40.984 117.633 42.424C119.073 43.864 120.849 44.584 122.961 44.584C125.073 44.584 126.849 43.864 128.289 42.424C129.729 40.984 130.449 39.176 130.449 37C130.449 34.824 129.729 33.016 128.289 31.576C126.849 30.136 125.073 29.416 122.961 29.416C120.849 29.416 119.073 30.136 117.633 31.576C116.193 33.016 115.473 34.824 115.473 37ZM165.713 25V29.992H159.761V41.512C159.761 42.504 159.985 43.224 160.433 43.672C160.881 44.088 161.537 44.328 162.401 44.392C163.297 44.424 164.401 44.408 165.713 44.344V49C161.745 49.48 158.897 49.144 157.169 47.992C155.441 46.808 154.577 44.648 154.577 41.512V29.992H150.161V25H154.577V19.816L159.761 18.28V25H165.713ZM192.614 39.208H173.51C173.894 41 174.758 42.392 176.102 43.384C177.478 44.376 179.174 44.872 181.19 44.872C183.91 44.872 185.974 43.88 187.382 41.896L191.654 44.392C189.318 47.88 185.814 49.624 181.142 49.624C177.27 49.624 174.118 48.44 171.686 46.072C169.286 43.672 168.086 40.648 168.086 37C168.086 33.448 169.27 30.456 171.638 28.024C173.974 25.592 177.014 24.376 180.758 24.376C184.246 24.376 187.126 25.608 189.398 28.072C191.67 30.536 192.806 33.528 192.806 37.048C192.806 37.688 192.742 38.408 192.614 39.208ZM173.462 34.984H187.574C187.222 33.096 186.422 31.64 185.174 30.616C183.958 29.592 182.47 29.08 180.71 29.08C178.79 29.08 177.19 29.608 175.91 30.664C174.63 31.72 173.814 33.16 173.462 34.984ZM216.235 28.408V25H221.419V49H216.235V45.544C214.283 48.264 211.483 49.624 207.835 49.624C204.539 49.624 201.723 48.408 199.387 45.976C197.051 43.544 195.883 40.552 195.883 37C195.883 33.448 197.051 30.456 199.387 28.024C201.723 25.592 204.539 24.376 207.835 24.376C211.483 24.376 214.283 25.72 216.235 28.408ZM203.227 42.52C204.667 43.96 206.475 44.68 208.651 44.68C210.827 44.68 212.635 43.96 214.075 42.52C215.515 41.048 216.235 39.208 216.235 37C216.235 34.792 215.515 32.968 214.075 31.528C212.635 30.056 210.827 29.32 208.651 29.32C206.475 29.32 204.667 30.056 203.227 31.528C201.787 32.968 201.067 34.792 201.067 37C201.067 39.176 201.787 41.016 203.227 42.52ZM253.67 24.376C256.39 24.376 258.582 25.256 260.246 27.016C261.91 28.776 262.742 31.144 262.742 34.12V49H257.558V34.456C257.558 32.824 257.142 31.544 256.31 30.616C255.478 29.688 254.342 29.224 252.902 29.224C251.27 29.224 249.99 29.768 249.062 30.856C248.134 31.912 247.67 33.48 247.67 35.56V49H242.486V34.456C242.486 32.792 242.086 31.512 241.286 30.616C240.518 29.688 239.414 29.224 237.974 29.224C236.374 29.224 235.078 29.768 234.086 30.856C233.126 31.944 232.646 33.512 232.646 35.56V49H227.462V25H232.646V27.88C234.182 25.544 236.47 24.376 239.51 24.376C242.582 24.376 244.854 25.64 246.326 28.168C247.894 25.64 250.342 24.376 253.67 24.376Z" fill="#FE5000"/>
</svg>