<?xml version="1.0" encoding="UTF-8"?>
<svg xmlns="http://www.w3.org/2000/svg" width="271" height="64" viewBox="0 0 271 64" fill="none">
  <path d="M0 0H239C256.673 0 271 14.3269 271 32V32C271 49.6731 256.673 64 239 64H0V0Z" fill="#FEFEFE"/>
  <path d="M53.616 15.4H59.52V49H54V25.048L43.776 41.944H43.104L32.88 25V49H27.36V15.4H33.312L43.44 32.2L53.616 15.4ZM84.8914 28.408V25H90.0754V49H84.8914V45.544C82.9394 48.264 80.1394 49.624 76.4914 49.624C73.1954 49.624 70.3794 48.408 68.0434 45.976C65.7074 43.544 64.5394 40.552 64.5394 37C64.5394 33.448 65.7074 30.456 68.0434 28.024C70.3794 25.592 73.1954 24.376 76.4914 24.376C80.1394 24.376 82.9394 25.72 84.8914 28.408ZM71.8834 42.52C73.3234 43.96 75.1314 44.68 77.3074 44.68C79.4834 44.68 81.2914 43.96 82.7314 42.52C84.1714 41.048 84.8914 39.208 84.8914 37C84.8914 34.792 84.1714 32.968 82.7314 31.528C81.2914 30.056 79.4834 29.32 77.3074 29.32C75.1314 29.32 73.3234 30.056 71.8834 31.528C70.4434 32.968 69.7234 34.792 69.7234 37C69.7234 39.176 70.4434 41.016 71.8834 42.52ZM101.302 25V29.032C102.614 26.056 105.078 24.568 108.694 24.568V30.184C106.742 30.056 105.014 30.536 103.51 31.624C102.038 32.68 101.302 34.44 101.302 36.904V49H96.1178V25H101.302ZM122.796 36.76L133.74 49H127.548L117.708 37.912V49H112.524V15.4H117.708V35.608L127.02 25H133.356L122.796 36.76ZM158.489 39.208H139.385C139.769 41 140.633 42.392 141.977 43.384C143.353 44.376 145.049 44.872 147.065 44.872C149.785 44.872 151.849 43.88 153.257 41.896L157.529 44.392C155.193 47.88 151.689 49.624 147.017 49.624C143.145 49.624 139.993 48.44 137.561 46.072C135.161 43.672 133.961 40.648 133.961 37C133.961 33.448 135.145 30.456 137.513 28.024C139.849 25.592 142.889 24.376 146.633 24.376C150.121 24.376 153.001 25.608 155.273 28.072C157.545 30.536 158.681 33.528 158.681 37.048C158.681 37.688 158.617 38.408 158.489 39.208ZM139.337 34.984H153.449C153.097 33.096 152.297 31.64 151.049 30.616C149.833 29.592 148.345 29.08 146.585 29.08C144.665 29.08 143.065 29.608 141.785 30.664C140.505 31.72 139.689 33.16 139.337 34.984ZM175.885 25V29.992H169.933V41.512C169.933 42.504 170.157 43.224 170.605 43.672C171.053 44.088 171.709 44.328 172.573 44.392C173.469 44.424 174.573 44.408 175.885 44.344V49C171.917 49.48 169.069 49.144 167.341 47.992C165.613 46.808 164.749 44.648 164.749 41.512V29.992H160.333V25H164.749V19.816L169.933 18.28V25H175.885ZM185.483 20.44C184.843 21.08 184.075 21.4 183.179 21.4C182.283 21.4 181.499 21.08 180.827 20.44C180.187 19.768 179.867 18.984 179.867 18.088C179.867 17.192 180.187 16.424 180.827 15.784C181.467 15.112 182.251 14.776 183.179 14.776C184.107 14.776 184.891 15.112 185.531 15.784C186.171 16.424 186.491 17.192 186.491 18.088C186.491 18.984 186.155 19.768 185.483 20.44ZM185.771 49H180.587V25H185.771V49ZM204.414 24.376C207.198 24.376 209.422 25.272 211.086 27.064C212.782 28.824 213.63 31.224 213.63 34.264V49H208.446V34.792C208.446 33 207.966 31.624 207.006 30.664C206.046 29.704 204.734 29.224 203.07 29.224C201.182 29.224 199.694 29.816 198.606 31C197.518 32.152 196.974 33.864 196.974 36.136V49H191.79V25H196.974V28.072C198.574 25.608 201.054 24.376 204.414 24.376ZM238.316 28.552V25H243.404V47.896C243.404 51.544 242.204 54.344 239.804 56.296C237.436 58.248 234.524 59.224 231.068 59.224C225.532 59.224 221.74 57.288 219.692 53.416L224.156 50.824C225.404 53.288 227.74 54.52 231.164 54.52C233.404 54.52 235.148 53.928 236.396 52.744C237.676 51.592 238.316 49.976 238.316 47.896V44.968C236.364 47.752 233.58 49.144 229.964 49.144C226.604 49.144 223.74 47.944 221.372 45.544C219.036 43.112 217.868 40.184 217.868 36.76C217.868 33.304 219.036 30.392 221.372 28.024C223.708 25.592 226.572 24.376 229.964 24.376C233.58 24.376 236.364 25.768 238.316 28.552ZM225.212 42.136C226.684 43.576 228.508 44.296 230.684 44.296C232.86 44.296 234.668 43.576 236.108 42.136C237.58 40.696 238.316 38.904 238.316 36.76C238.316 34.616 237.58 32.824 236.108 31.384C234.668 29.944 232.86 29.224 230.684 29.224C228.508 29.224 226.684 29.944 225.212 31.384C223.772 32.824 223.052 34.616 223.052 36.76C223.052 38.904 223.772 40.696 225.212 42.136Z" fill="#FE5000"/>
</svg>