<svg xmlns="http://www.w3.org/2000/svg" width="58" height="58" viewBox="0 0 58 58" fill="none"><path d="M17.0444 26.3111C20.2444 32.6 25.4 37.7333 31.6889 40.9556L36.5778 36.0667C37.1778 35.4667 38.0667 35.2667 38.8444 35.5333C41.3333 36.3556 44.0222 36.8 46.7778 36.8C48 36.8 49 37.8 49 39.0222V46.7778C49 48 48 49 46.7778 49C25.9111 49 9 32.0889 9 11.2222C9 10 10 9 11.2222 9H19C20.2222 9 21.2222 10 21.2222 11.2222C21.2222 14 21.6667 16.6667 22.4889 19.1556C22.7333 19.9333 22.5556 20.8 21.9333 21.4222L17.0444 26.3111Z" fill="#101820"/></svg>