<svg xmlns="http://www.w3.org/2000/svg" width="50" height="50" viewBox="0 0 50 50" fill="none"><path d="M44.521 5.50064C46.2692 7.2489 46.2692 10.0836 44.521 11.8318L10.3319 46.0214H4V39.6909L38.1898 5.50064C39.9383 3.75239 42.7727 3.75239 44.521 5.50064Z" fill="#1BB6F9"/><path d="M44.521 5.50064C46.2692 7.2489 46.2692 10.0836 44.521 11.8318L10.3319 46.0214H4V39.6909L38.1898 5.50064C39.9383 3.75239 42.7727 3.75239 44.521 5.50064Z" fill="url(#paint0_linear_3358_14148)" fill-opacity="0.2"/><path d="M10.9002 15.1218L4.89819 9.11976C3.30025 12.4651 3.88669 16.5931 6.65752 19.364C9.01979 21.7262 12.3685 22.5008 15.3777 21.6877L38.3791 44.6888C40.1274 46.437 42.9621 46.437 44.7103 44.6888C46.4586 42.9405 46.4586 40.1061 44.7103 38.3576L21.709 15.3567C22.5224 12.3474 21.7478 8.99843 19.3854 6.63604C16.6145 3.86505 12.4861 3.2787 9.14068 4.87698L15.1428 10.8791L10.9002 15.1218Z" fill="#93407D"/><path d="M10.9002 15.1218L4.89819 9.11976C3.30025 12.4651 3.88669 16.5931 6.65752 19.364C9.01979 21.7262 12.3685 22.5008 15.3777 21.6877L38.3791 44.6888C40.1274 46.437 42.9621 46.437 44.7103 44.6888C46.4586 42.9405 46.4586 40.1061 44.7103 38.3576L21.709 15.3567C22.5224 12.3474 21.7478 8.99843 19.3854 6.63604C16.6145 3.86505 12.4861 3.2787 9.14068 4.87698L15.1428 10.8791L10.9002 15.1218Z" fill="url(#paint1_linear_3358_14148)" fill-opacity="0.2"/><path d="M25.0225 18.6699L18.6914 25.0011L25.0226 31.3323L31.3537 25.001L25.0225 18.6699Z" fill="#102E7A"/><path d="M25.0225 18.6699L18.6914 25.0011L25.0226 31.3323L31.3537 25.001L25.0225 18.6699Z" fill="url(#paint2_linear_3358_14148)" fill-opacity="0.3"/><defs><linearGradient id="paint0_linear_3358_14148" x1="4" y1="4.18945" x2="53.2143" y2="16.4931" gradientUnits="userSpaceOnUse"><stop stop-color="white"/><stop offset="1" stop-color="white" stop-opacity="0"/></linearGradient><linearGradient id="paint1_linear_3358_14148" x1="4.02148" y1="4" x2="53.4333" y2="16.353" gradientUnits="userSpaceOnUse"><stop stop-color="white"/><stop offset="1" stop-color="white" stop-opacity="0"/></linearGradient><linearGradient id="paint2_linear_3358_14148" x1="18.6914" y1="18.6699" x2="33.5883" y2="22.3941" gradientUnits="userSpaceOnUse"><stop stop-color="white"/><stop offset="1" stop-color="white" stop-opacity="0"/></linearGradient></defs></svg>