<svg xmlns="http://www.w3.org/2000/svg" width="110" height="101" viewBox="0 0 110 101" fill="none">
    <g clip-path="url(#clip0_91_1610)">
        <path d="M14.6818 9.30566H95.3178C96.6011 9.30566 97.8324 9.81797 98.7397 10.7299C99.6479 11.6417 100.158 12.8784 100.158 14.168V70.3757H9.8418V14.168C9.8418 12.8784 10.3517 11.6417 11.2594 10.7299C12.1671 9.81797 13.3981 9.30566 14.6818 9.30566Z" fill="#FF742F"/>
        <path d="M100.157 0.582031H9.84131C4.72538 0.582031 0.578125 4.74843 0.578125 9.88792V75.0293C0.578125 80.1688 4.72538 84.3352 9.84131 84.3352H100.157C105.273 84.3352 109.42 80.1688 109.42 75.0293V9.88792C109.42 4.74843 105.273 0.582031 100.157 0.582031Z" stroke="#888888" stroke-miterlimit="10" stroke-linecap="round"/>
        <path d="M41.3939 26.6152L28.0781 39.9925L41.1044 53.0789" stroke="white" stroke-width="4" stroke-miterlimit="10" stroke-linecap="round"/>
        <path d="M68.6055 26.6152L81.9213 39.9925L68.895 53.0789" stroke="white" stroke-width="4" stroke-miterlimit="10" stroke-linecap="round"/>
        <path d="M104.79 70.248H5.21094" stroke="#888888" stroke-miterlimit="10" stroke-linecap="round"/>
        <path d="M48.0293 84.335V92.3378" stroke="#888888" stroke-miterlimit="10" stroke-linecap="round"/>
        <path d="M61.9707 84.335V92.3378" stroke="#888888" stroke-miterlimit="10" stroke-linecap="round"/>
        <path d="M81.0536 93.0596H28.9483C27.0299 93.0596 25.4746 94.6217 25.4746 96.5497C25.4746 98.4769 27.0299 100.039 28.9483 100.039H81.0536C82.972 100.039 84.5272 98.4769 84.5272 96.5497C84.5272 94.6217 82.972 93.0596 81.0536 93.0596Z" stroke="#888888" stroke-miterlimit="10" stroke-linecap="round"/>
        <path d="M59.6323 23.8467L50.3691 56.4174" stroke="white" stroke-width="4" stroke-miterlimit="10" stroke-linecap="round"/>
    </g>
    <defs>
        <clipPath id="`">
            <rect width="110" height="100.62" fill="white"/>
        </clipPath>
    </defs>
</svg>