<svg xmlns="http://www.w3.org/2000/svg" width="129" height="129" viewBox="0 0 129 129" fill="none">
    <mask id="mask0_91_1624" style="mask-type:luminance" maskUnits="userSpaceOnUse" x="0" y="0" width="129" height="129">
        <path d="M50.2347 0.235035L0.279297 50.1904L78.1424 128.053L128.098 78.0981L50.2347 0.235035Z" fill="white"/>
    </mask>
    <g mask="url(#mask0_91_1624)">
        <path d="M24.1369 31.2663L34.0246 80.6832C34.3906 82.5157 35.3095 84.1921 36.6576 85.4863C38.0057 86.7805 39.7182 87.6302 41.5642 87.9212L55.7279 90.1507L90.1947 55.6839L87.9651 41.4987C87.6742 39.6527 86.8244 37.9402 85.5302 36.5921C84.2361 35.244 82.5597 34.3251 80.7271 33.9591L31.3103 24.0929C30.3261 23.8952 29.3082 23.9438 28.3473 24.2344C27.3863 24.5249 26.5121 25.0484 25.8022 25.7582C25.0923 26.4681 24.5689 27.3424 24.2783 28.3033C23.9878 29.2642 23.9392 30.2821 24.1369 31.2663Z" stroke="#888888" stroke-miterlimit="10"/>
        <path d="M55.7285 90.1504L90.1953 55.6836L96.1193 61.6076C96.9763 62.4646 97.4578 63.6269 97.4578 64.8388C97.4578 66.0508 96.9763 67.2131 96.1193 68.0701L68.115 96.0744C67.258 96.9314 66.0957 97.4128 64.8838 97.4128C63.6718 97.4128 62.5095 96.9314 61.6525 96.0744L55.7285 90.1504Z" fill="#FF5500" stroke="#888888" stroke-miterlimit="10"/>
        <path d="M68.6543 95.5366L95.5815 68.6094L112.815 85.8428C113.672 86.6998 114.153 87.8621 114.153 89.0741C114.153 90.2861 113.672 91.4484 112.815 92.3054L92.3502 112.77C91.4933 113.627 90.3309 114.108 89.119 114.108C87.907 114.108 86.7447 113.627 85.8877 112.77L68.6543 95.5366Z" stroke="#888888" stroke-miterlimit="10"/>
        <path d="M25.7969 25.752L50.8823 50.8373" stroke="#888888" stroke-miterlimit="10"/>
        <path d="M60.5745 60.5305C63.2513 57.8537 63.2513 53.5136 60.5745 50.8367C57.8976 48.1599 53.5575 48.1599 50.8807 50.8367C48.2038 53.5136 48.2038 57.8537 50.8807 60.5305C53.5575 63.2074 57.8976 63.2074 60.5745 60.5305Z" fill="#FF5500"/>
    </g>
</svg>