<?xml version="1.0" encoding="UTF-8"?>
<svg xmlns="http://www.w3.org/2000/svg" width="40" height="40" viewBox="0 0 40 40" fill="none">
  <g id="LinkedIn Circled">
    <path id="Vector" d="M20 4C11.164 4 4 11.164 4 20C4 28.836 11.164 36 20 36C28.836 36 36 28.836 36 20C36 11.164 28.836 4 20 4ZM13.9947 11.204C15.1173 11.204 15.8653 11.952 15.8653 12.9493C15.8653 13.9467 15.1173 14.6947 13.8707 14.6947C12.748 14.696 12 13.9467 12 12.9493C12 11.952 12.748 11.204 13.9947 11.204ZM16 26.6667H12V16H16V26.6667ZM29.3333 26.6667H25.568V20.8373C25.568 19.2253 24.564 18.8533 24.188 18.8533C23.812 18.8533 22.556 19.1013 22.556 20.8373C22.556 21.0853 22.556 26.6667 22.556 26.6667H18.6667V16H22.5573V17.488C23.0587 16.62 24.0627 16 25.9453 16C27.828 16 29.3333 17.488 29.3333 20.8373V26.6667Z" fill="#FEFEFE"/>
  </g>
</svg>