<?xml version="1.0" encoding="UTF-8"?>
<svg xmlns="http://www.w3.org/2000/svg" width="50" height="50" viewBox="0 0 50 50" fill="none">
  <path d="M45.4447 23.2223C45.4447 19.3215 44.4179 15.4894 42.4675 12.1112C40.517 8.73295 37.7117 5.92765 34.3335 3.97723C30.9553 2.02681 27.1232 1 23.2223 1C19.3215 1 15.4894 2.02681 12.1112 3.97723C8.73295 5.92765 5.92765 8.73295 3.97723 12.1112C2.02681 15.4894 1 19.3215 1 23.2223C1 27.1232 2.02681 30.9553 3.97723 34.3335C5.92765 37.7117 8.73295 40.517 12.1112 42.4675L23.2223 23.2223H45.4447Z" fill="#FC787D"/>
  <path d="M45.4447 23.2223C45.4447 19.3215 44.4179 15.4894 42.4675 12.1112C40.517 8.73295 37.7117 5.92765 34.3335 3.97723C30.9553 2.02681 27.1232 1 23.2223 1C19.3215 1 15.4894 2.02681 12.1112 3.97723C8.73295 5.92765 5.92765 8.73295 3.97723 12.1112C2.02681 15.4894 1 19.3215 1 23.2223C1 27.1232 2.02681 30.9553 3.97723 34.3335C5.92765 37.7117 8.73295 40.517 12.1112 42.4675L23.2223 23.2223H45.4447Z" fill="url(#paint0_linear_3358_13453)" fill-opacity="0.2"/>
  <path d="M5.3125 32.5299C6.25835 36.0598 8.06017 39.3021 10.5583 41.9693C13.0565 44.6366 16.174 46.6466 19.6345 47.8213C23.095 48.996 26.7919 49.2991 30.3976 48.7038C34.0032 48.1085 37.4064 46.6332 40.3057 44.4085C43.205 42.1838 45.5109 39.2784 47.0192 35.9496C48.5274 32.6209 49.1914 28.9716 48.9524 25.3249C48.7134 21.6782 47.5787 18.1468 45.6489 15.0434C43.7191 11.94 41.0537 9.36045 37.8888 7.5332L26.7776 26.7783L5.3125 32.5299Z" fill="#1BB6F9"/>
  <path d="M5.3125 32.5299C6.25835 36.0598 8.06017 39.3021 10.5583 41.9693C13.0565 44.6366 16.174 46.6466 19.6345 47.8213C23.095 48.996 26.7919 49.2991 30.3976 48.7038C34.0032 48.1085 37.4064 46.6332 40.3057 44.4085C43.205 42.1838 45.5109 39.2784 47.0192 35.9496C48.5274 32.6209 49.1914 28.9716 48.9524 25.3249C48.7134 21.6782 47.5787 18.1468 45.6489 15.0434C43.7191 11.94 41.0537 9.36045 37.8888 7.5332L26.7776 26.7783L5.3125 32.5299Z" fill="url(#paint1_linear_3358_13453)" fill-opacity="0.2"/>
  <path d="M23.2224 45.4448C35.4955 45.4448 45.4448 35.4955 45.4448 23.2224C45.4448 17.9917 43.6376 13.1831 40.6135 9.38694C36.8173 6.36287 32.0087 4.55566 26.778 4.55566C14.5049 4.55566 4.55566 14.5049 4.55566 26.778C4.55566 32.0087 6.36287 36.8173 9.38694 40.6135C13.1831 43.6376 17.9917 45.4448 23.2224 45.4448Z" fill="#1B567A"/>
  <path d="M23.2224 45.4448C35.4955 45.4448 45.4448 35.4955 45.4448 23.2224C45.4448 17.9917 43.6376 13.1831 40.6135 9.38694C36.8173 6.36287 32.0087 4.55566 26.778 4.55566C14.5049 4.55566 4.55566 14.5049 4.55566 26.778C4.55566 32.0087 6.36287 36.8173 9.38694 40.6135C13.1831 43.6376 17.9917 45.4448 23.2224 45.4448Z" fill="url(#paint2_linear_3358_13453)" fill-opacity="0.2"/>
  <path d="M7.71777 7.3023C8.36423 6.67262 9.04889 6.08197 9.76797 5.53418C9.99503 5.59021 10.2133 5.69511 10.4065 5.84975L26.5792 18.7946C28.3988 20.251 28.5247 22.9876 26.8761 24.6347C25.2274 26.2819 22.4885 26.1561 21.0307 24.3381L8.07445 8.1797C7.86578 7.91946 7.74762 7.61377 7.71777 7.3023Z" fill="white"/>
  <defs>
    <linearGradient id="paint0_linear_3358_13453" x1="1" y1="1" x2="52.8343" y2="14.889" gradientUnits="userSpaceOnUse">
      <stop stop-color="white"/>
      <stop offset="1" stop-color="white" stop-opacity="0"/>
    </linearGradient>
    <linearGradient id="paint1_linear_3358_13453" x1="5.3125" y1="7.5332" x2="56.3793" y2="20.9834" gradientUnits="userSpaceOnUse">
      <stop stop-color="white"/>
      <stop offset="1" stop-color="white" stop-opacity="0"/>
    </linearGradient>
    <linearGradient id="paint2_linear_3358_13453" x1="4.55566" y1="4.55566" x2="52.6605" y2="16.5819" gradientUnits="userSpaceOnUse">
      <stop stop-color="white"/>
      <stop offset="1" stop-color="white" stop-opacity="0"/>
    </linearGradient>
  </defs>
</svg>