<svg xmlns="http://www.w3.org/2000/svg" width="50" height="50" viewBox="0 0 50 50" fill="none"><path d="M22 8H30V42H22V8Z" fill="#93407D"/><path d="M22 8H30V42H22V8Z" fill="url(#paint0_linear_3358_13468)" fill-opacity="0.2"/><path d="M4 8H13V42H8C5.79086 42 4 40.2091 4 38V8Z" fill="#93407D"/><path d="M4 8H13V42H8C5.79086 42 4 40.2091 4 38V8Z" fill="url(#paint1_linear_3358_13468)" fill-opacity="0.2"/><path d="M39 8H42C44.2091 8 46 9.79086 46 12V42H39V8Z" fill="#93407D"/><path d="M39 8H42C44.2091 8 46 9.79086 46 12V42H39V8Z" fill="url(#paint2_linear_3358_13468)" fill-opacity="0.2"/><path d="M33 8H36V42H33V8Z" fill="#93407D"/><path d="M33 8H36V42H33V8Z" fill="url(#paint3_linear_3358_13468)" fill-opacity="0.2"/><path d="M16 8H19V42H16V8Z" fill="#93407D"/><path d="M16 8H19V42H16V8Z" fill="url(#paint4_linear_3358_13468)" fill-opacity="0.2"/><defs><linearGradient id="paint0_linear_3358_13468" x1="22" y1="8" x2="31.9655" y2="8.58621" gradientUnits="userSpaceOnUse"><stop stop-color="white"/><stop offset="1" stop-color="white" stop-opacity="0"/></linearGradient><linearGradient id="paint1_linear_3358_13468" x1="4" y1="8" x2="15.2009" y2="8.74124" gradientUnits="userSpaceOnUse"><stop stop-color="white"/><stop offset="1" stop-color="white" stop-opacity="0"/></linearGradient><linearGradient id="paint2_linear_3358_13468" x1="39" y1="8" x2="47.7269" y2="8.44918" gradientUnits="userSpaceOnUse"><stop stop-color="white"/><stop offset="1" stop-color="white" stop-opacity="0"/></linearGradient><linearGradient id="paint3_linear_3358_13468" x1="33" y1="8" x2="36.7482" y2="8.08268" gradientUnits="userSpaceOnUse"><stop stop-color="white"/><stop offset="1" stop-color="white" stop-opacity="0"/></linearGradient><linearGradient id="paint4_linear_3358_13468" x1="16" y1="8" x2="19.7482" y2="8.08268" gradientUnits="userSpaceOnUse"><stop stop-color="white"/><stop offset="1" stop-color="white" stop-opacity="0"/></linearGradient></defs></svg>