<?xml version="1.0" encoding="UTF-8"?>
<svg xmlns="http://www.w3.org/2000/svg" width="50" height="50" viewBox="0 0 50 50" fill="none">
  <path d="M4 25C4 22.7909 5.79086 21 8 21H15V42C15 44.2091 15 46 15 46H4V25Z" fill="#93407D"/>
  <path d="M4 25C4 22.7909 5.79086 21 8 21H15V42C15 44.2091 15 46 15 46H4V25Z" fill="url(#paint0_linear_3358_13434)" fill-opacity="0.2"/>
  <path d="M26 8C26 5.79086 27.8761 4 30.1905 4H46V42C46 44.2091 44.1239 46 41.8095 46H26V8Z" fill="#FBB130"/>
  <path d="M26 8C26 5.79086 27.8761 4 30.1905 4H46V42C46 44.2091 44.1239 46 41.8095 46H26V8Z" fill="url(#paint1_linear_3358_13434)" fill-opacity="0.2"/>
  <path d="M15 17.0672C15 14.821 16.8761 13 19.1905 13H35V41.9328C35 44.179 33.1239 46 30.8095 46H15V17.0672Z" fill="#FC787D"/>
  <path d="M15 17.0672C15 14.821 16.8761 13 19.1905 13H35V41.9328C35 44.179 33.1239 46 30.8095 46H15V17.0672Z" fill="url(#paint2_linear_3358_13434)" fill-opacity="0.2"/>
  <path d="M26 46H30.8095C33.1239 46 35 44.179 35 41.9328V13L26 13V46Z" fill="#F85318"/>
  <path d="M26 46H30.8095C33.1239 46 35 44.179 35 41.9328V13L26 13V46Z" fill="url(#paint3_linear_3358_13434)" fill-opacity="0.2"/>
  <path d="M15 46C16.6651 46 18.3302 45.9989 19.9952 45.9985C22.2062 45.998 24 44.2062 24 41.9952V21L15 21V46Z" fill="#911E3D"/>
  <path d="M15 46C16.6651 46 18.3302 45.9989 19.9952 45.9985C22.2062 45.998 24 44.2062 24 41.9952V21L15 21V46Z" fill="url(#paint4_linear_3358_13434)" fill-opacity="0.2"/>
  <defs>
    <linearGradient id="paint0_linear_3358_13434" x1="4" y1="21" x2="17.5856" y2="22.4944" gradientUnits="userSpaceOnUse">
      <stop stop-color="white"/>
      <stop offset="1" stop-color="white" stop-opacity="0"/>
    </linearGradient>
    <linearGradient id="paint1_linear_3358_13434" x1="26" y1="4" x2="50.6506" y2="6.9346" gradientUnits="userSpaceOnUse">
      <stop stop-color="white"/>
      <stop offset="1" stop-color="white" stop-opacity="0"/>
    </linearGradient>
    <linearGradient id="paint2_linear_3358_13434" x1="15" y1="13" x2="39.439" y2="16.7029" gradientUnits="userSpaceOnUse">
      <stop stop-color="white"/>
      <stop offset="1" stop-color="white" stop-opacity="0"/>
    </linearGradient>
    <linearGradient id="paint3_linear_3358_13434" x1="26" y1="13" x2="37.1979" y2="13.7635" gradientUnits="userSpaceOnUse">
      <stop stop-color="white"/>
      <stop offset="1" stop-color="white" stop-opacity="0"/>
    </linearGradient>
    <linearGradient id="paint4_linear_3358_13434" x1="15" y1="21" x2="26.1596" y2="22.0044" gradientUnits="userSpaceOnUse">
      <stop stop-color="white"/>
      <stop offset="1" stop-color="white" stop-opacity="0"/>
    </linearGradient>
  </defs>
</svg>