<svg xmlns="http://www.w3.org/2000/svg" width="64" height="64" viewBox="0 0 64 64" fill="none"><g id="icon"><g id="Group"><path id="Vector" d="M42.2396 23.0198V52.2013L39.4702 49.4292C39.3568 49.3169 39.2021 49.2516 39.041 49.2516C38.8802 49.2516 38.7255 49.3166 38.6123 49.4292L35.2984 52.7437L31.9877 49.4292C31.8735 49.3169 31.7188 49.2516 31.558 49.2516C31.3972 49.2516 31.2425 49.3166 31.1299 49.4292L27.74 52.8208L24.3508 49.4292C24.1215 49.2023 23.7204 49.2023 23.4924 49.4292L20.0956 52.8304L16.867 49.5984C16.7533 49.4849 16.598 49.4212 16.4378 49.4212C16.2767 49.4212 16.1217 49.4846 16.008 49.5984L13.2147 52.3958V15.883C13.2147 12.8462 15.6146 10.3606 18.6172 10.2213C18.5866 10.2196 18.5547 10.2158 18.5241 10.2127C18.1979 10.1907 17.9492 9.91304 17.9611 9.58609C17.971 9.30623 18.1695 9.07818 18.4305 9.01758C14.8459 9.2495 12 12.24 12 15.8833V53.862C12 54.1063 12.1484 54.3283 12.3755 54.4225C12.4504 54.4547 12.5292 54.4693 12.6076 54.4693C12.7657 54.4693 12.9206 54.4068 13.0374 54.2908L16.4381 50.8866L19.6019 54.0526C19.6658 54.1407 19.7542 54.2112 19.8591 54.2553C20.086 54.3495 20.3467 54.2966 20.5209 54.1225L23.9216 50.7183L27.1265 53.9261L27.2609 54.0848C27.3705 54.2151 27.5304 54.2925 27.7 54.3005C27.8682 54.306 28.0337 54.2434 28.1537 54.1225L31.5577 50.7183L34.6063 53.7708C34.6338 53.9854 34.7731 54.1705 34.976 54.2556C35.2026 54.3498 35.4633 54.2969 35.6373 54.1228L39.0405 50.7186L42.2735 53.955C42.2743 53.9561 42.3291 54.0077 42.421 54.0977C42.5964 54.2688 42.8558 54.3173 43.0801 54.2214C43.3062 54.1278 43.4523 53.9082 43.4523 53.6636V23.0209H42.2396V23.0198Z" fill="#FE5000" stroke="#FE5000" stroke-width="0.5"/><path id="Vector_2" d="M44.994 9H18.5692C18.5221 9 18.4767 9.00633 18.4318 9.01735C18.1708 9.07822 17.9723 9.30632 17.9624 9.58589C17.9506 9.91312 18.1991 10.1905 18.5254 10.2125C18.556 10.2158 18.5879 10.2194 18.6184 10.221C21.5861 10.4857 23.8973 13.0041 23.8973 16.001C23.8973 19.1934 21.3033 21.7967 18.1149 21.8057C17.7793 21.8057 17.5087 22.0779 17.5098 22.4131C17.5106 22.7478 17.7818 23.0194 18.1157 23.0194H42.2401H43.4534H44.9943C48.8573 23.0194 52.0002 19.8738 52.0002 16.0106C51.9999 12.145 48.8569 9 44.994 9ZM44.994 21.806H22.0348C23.8891 20.5401 25.1112 18.4103 25.1112 16.0013C25.1112 13.6198 23.9039 11.487 22.0574 10.2158H44.994C48.1882 10.2158 50.7864 12.8138 50.7864 16.0109C50.7864 19.2044 48.1882 21.806 44.994 21.806Z" fill="#FE5000" stroke="#FE5000" stroke-width="0.5"/><path id="Vector_3" d="M16.1756 44.5961H17.2149C17.5513 44.5961 17.822 44.3234 17.822 43.9893C17.822 43.6546 17.5513 43.3809 17.2149 43.3809H16.1756C15.8403 43.3809 15.5693 43.6546 15.5693 43.9893C15.5693 44.3232 15.8403 44.5961 16.1756 44.5961Z" fill="#FE5000" stroke="#FE5000" stroke-width="0.5"/><path id="Vector_4" d="M24.0753 43.3809H23.1528C22.818 43.3809 22.5454 43.6546 22.5454 43.9893C22.5454 44.3234 22.818 44.5961 23.1528 44.5961H25.1309C25.4662 44.5961 25.738 44.3234 25.738 43.9893C25.738 43.6546 25.4662 43.3809 25.1309 43.3809H24.3636C24.3176 43.3938 24.2689 43.4007 24.2199 43.4007C24.1692 43.4007 24.1213 43.3935 24.0753 43.3809Z" fill="#FE5000" stroke="#FE5000" stroke-width="0.5"/><path id="Vector_5" d="M37.0062 43.3809H35.0267C34.6919 43.3809 34.4199 43.6546 34.4199 43.9893C34.4199 44.3234 34.6919 44.5961 35.0267 44.5961H37.0062C37.3405 44.5961 37.6122 44.3234 37.6122 43.9893C37.6124 43.6546 37.3405 43.3809 37.0062 43.3809Z" fill="#FE5000" stroke="#FE5000" stroke-width="0.5"/><path id="Vector_6" d="M33.0469 43.3809H31.0687C30.7334 43.3809 30.4614 43.6546 30.4614 43.9893C30.4614 44.3234 30.7334 44.5961 31.0687 44.5961H33.0469C33.3833 44.5961 33.6537 44.3234 33.6537 43.9893C33.6537 43.6546 33.383 43.3809 33.0469 43.3809Z" fill="#FE5000" stroke="#FE5000" stroke-width="0.5"/><path id="Vector_7" d="M29.0903 43.3809H27.1105C26.776 43.3809 26.5034 43.6546 26.5034 43.9893C26.5034 44.3234 26.776 44.5961 27.1105 44.5961H29.0903C29.4253 44.5961 29.6962 44.3234 29.6962 43.9893C29.6965 43.6546 29.4253 43.3809 29.0903 43.3809Z" fill="#FE5000" stroke="#FE5000" stroke-width="0.5"/><path id="Vector_8" d="M19.1946 44.5961H21.1739C21.5092 44.5961 21.7809 44.3234 21.7809 43.9893C21.7809 43.6546 21.5092 43.3809 21.1739 43.3809H19.1946C18.8598 43.3809 18.5884 43.6546 18.5884 43.9893C18.5884 44.3232 18.8598 44.5961 19.1946 44.5961Z" fill="#FE5000" stroke="#FE5000" stroke-width="0.5"/><path id="Vector_9" d="M40.0252 43.3809H38.9851C38.65 43.3809 38.3774 43.6546 38.3774 43.9893C38.3774 44.3234 38.65 44.5961 38.9851 44.5961H40.0252C40.3594 44.5961 40.632 44.3234 40.632 43.9893C40.632 43.6546 40.3594 43.3809 40.0252 43.3809Z" fill="#FE5000" stroke="#FE5000" stroke-width="0.5"/><path id="Vector_10" d="M38.9588 39.9832C39.2933 39.9832 39.5653 39.7106 39.5653 39.3764C39.5653 39.0401 39.2933 38.7686 38.9588 38.7686H31.8172C31.4813 38.7686 31.2109 39.0401 31.2109 39.3764C31.2109 39.7106 31.4813 39.9832 31.8172 39.9832H38.9588Z" fill="#FE5000" stroke="#FE5000" stroke-width="0.5"/><path id="Vector_11" d="M29.6552 34.6242H40.0246C40.3588 34.6242 40.6314 34.3537 40.6314 34.0174C40.6314 33.6816 40.3588 33.4111 40.0246 33.4111H29.6552C29.321 33.4111 29.0479 33.6816 29.0479 34.0174C29.0479 34.3534 29.321 34.6242 29.6552 34.6242Z" fill="#FE5000" stroke="#FE5000" stroke-width="0.5"/><path id="Vector_12" d="M23.3076 36.5465C22.5657 36.5465 21.9605 35.9414 21.9605 35.1974C21.9605 34.4556 22.5654 33.8524 23.3076 33.8524H23.6135V32.6377H23.3076C21.8961 32.6377 20.748 33.7868 20.748 35.1974C20.748 36.6107 21.8961 37.7599 23.3076 37.7599H23.6135V36.5468L23.3076 36.5465Z" fill="#FE5000" stroke="#FE5000" stroke-width="0.5"/><path id="Vector_13" d="M27.0843 33.8524C27.4197 33.8524 27.6917 33.5792 27.6917 33.244C27.6917 32.9093 27.4197 32.6377 27.0843 32.6377H24.8257V33.8524H27.0843Z" fill="#FE5000" stroke="#FE5000" stroke-width="0.5"/><path id="Vector_14" d="M25.1307 37.7599C25.8738 37.7599 26.4778 38.3651 26.4778 39.1077C26.4778 39.8506 25.8741 40.4549 25.1307 40.4549H24.826V41.0622C24.826 41.2371 24.7513 41.3941 24.6318 41.5043C24.6836 41.5506 24.7241 41.6065 24.756 41.6685H25.1307C26.5428 41.6685 27.692 40.5199 27.692 39.1077C27.692 37.7321 26.6025 36.6055 25.2422 36.5491C25.2235 36.5469 25.2056 36.5469 25.1885 36.5469H24.8262V37.7599H25.1307Z" fill="#FE5000" stroke="#FE5000" stroke-width="0.5"/><path id="Vector_15" d="M23.807 41.5045C23.6881 41.3943 23.6135 41.2371 23.6135 41.0624V40.4551H21.3548C21.0187 40.4551 20.748 40.7267 20.748 41.0624C20.748 41.3965 21.0187 41.6687 21.3548 41.6687H23.684C23.7154 41.6067 23.7558 41.5508 23.807 41.5045Z" fill="#FE5000" stroke="#FE5000" stroke-width="0.5"/><path id="Vector_16" d="M24.6321 41.5049C24.5239 41.6071 24.38 41.6691 24.22 41.6691C24.0601 41.6691 23.9161 41.6071 23.8073 41.5049C23.7561 41.5512 23.7156 41.6071 23.6842 41.6691C23.6402 41.7531 23.6138 41.847 23.6138 41.9484V42.7951C23.6138 43.0802 23.8109 43.3165 24.0757 43.3815C24.1217 43.3945 24.1699 43.4013 24.22 43.4013C24.2693 43.4013 24.3177 43.3945 24.3637 43.3815C24.6286 43.3165 24.8263 43.0802 24.8263 42.7951V41.9484C24.8263 41.8473 24.7998 41.7531 24.7563 41.6691C24.7244 41.6071 24.6839 41.5512 24.6321 41.5049Z" fill="#FE5000" stroke="#FE5000" stroke-width="0.5"/><path id="Vector_17" d="M23.6138 41.062C23.6138 41.2369 23.6884 41.3939 23.8073 41.5041C23.9161 41.6062 24.0601 41.6682 24.22 41.6682C24.38 41.6682 24.5239 41.6062 24.6321 41.5041C24.7516 41.3939 24.8263 41.2366 24.8263 41.062V40.4546V37.76V36.5469V33.8528V32.638V31.7354C24.8263 31.3996 24.5548 31.127 24.22 31.127C23.8847 31.127 23.6138 31.3996 23.6138 31.7354V32.638V33.8528V36.5469V37.76V40.4546V41.062Z" fill="#FE5000" stroke="#FE5000" stroke-width="0.5"/></g></g></svg>