<svg xmlns="http://www.w3.org/2000/svg" width="64" height="64" viewBox="0 0 64 64" fill="none"><g id="icon"><g id="Group 224"><path id="Vector" d="M12.0273 19.1539L31.9141 14L40.8722 20.0723M12.0273 19.1539L20.9839 25.2262M12.0273 19.1539L12 36.6132L20.9565 42.6856M40.8722 20.0723L20.9839 25.2262M40.8722 20.0723L40.869 22.4353M20.9839 25.2262L20.9565 42.6856M20.9565 42.6856L29.9066 40.366" stroke="#FE5000" stroke-width="2" stroke-miterlimit="2.6131" stroke-linecap="round" stroke-linejoin="round"/><path id="Vector_2" d="M16.4941 22.0151L35.7423 17.0283" stroke="#FE5000" stroke-width="2" stroke-miterlimit="2.6131" stroke-linecap="round" stroke-linejoin="round"/><path id="Vector_3" d="M40.0165 25.8412H40.5193C40.5193 24.811 41.3552 23.9766 42.384 23.9766C43.4173 23.9766 44.2517 24.811 44.2517 25.8412H44.7545C45.6614 25.8412 46.3955 26.5754 46.3955 27.4807C46.3955 28.3861 45.6599 29.1202 44.7545 29.1202H40.0165C39.1112 29.1202 38.3755 28.3861 38.3755 27.4807C38.3755 26.5754 39.1112 25.8412 40.0165 25.8412Z" stroke="#FE5000" stroke-width="2" stroke-miterlimit="2.6131" stroke-linecap="round" stroke-linejoin="round"/><path id="Vector_4" d="M46.465 27.4336H52.0001V50.6139H32.752V27.4336H38.287" stroke="#FE5000" stroke-width="2" stroke-miterlimit="2.6131" stroke-linecap="round" stroke-linejoin="round"/><path id="Vector_5" d="M35.3442 40.1023L40.4951 45.3362L49.7803 33.2266L40.5733 40.889L37.5846 38.0184L35.3442 40.1023Z" stroke="#FE5000" stroke-width="2" stroke-miterlimit="2.6131" stroke-linecap="round" stroke-linejoin="round"/></g></g></svg>