<svg xmlns="http://www.w3.org/2000/svg" width="64" height="64" viewBox="0 0 64 64" fill="none"><g id="icon"><g id="Group 223"><path id="Vector" d="M12 52.5148V47.444C12 41.5606 16.8137 36.7485 22.6954 36.7485H25.0715C30.9549 36.7485 35.767 41.5622 35.767 47.444V52.5148M17.5221 52.5148V47.6444M30.2449 52.5148V47.6444M23.8851 22.4385C26.7755 22.4385 29.12 24.783 29.12 27.6734C29.12 30.5654 26.5372 34.6233 23.8851 34.6233C21.2329 34.6233 18.6501 30.5654 18.6501 27.6734C18.6486 24.783 20.9931 22.4385 23.8851 22.4385Z" stroke="#FE5000" stroke-width="2" stroke-miterlimit="2.6131" stroke-linecap="round" stroke-linejoin="round"/><path id="Vector_2" d="M33.1866 13.9772H33.9912C33.9912 12.3332 35.326 11 36.97 11C38.614 11 39.9488 12.3332 39.9488 13.9772H40.7534C42.1986 13.9772 43.3693 15.1494 43.3693 16.5931C43.3693 18.0383 42.1986 19.2089 40.7534 19.2089H33.1882C31.743 19.2089 30.5723 18.0383 30.5723 16.5931C30.5707 15.1494 31.7414 13.9772 33.1866 13.9772Z" stroke="#FE5000" stroke-width="2" stroke-miterlimit="2.6131" stroke-linecap="round" stroke-linejoin="round"/><path id="Vector_3" d="M43.3541 16.3057H52V52.5068H40.0534M21.9395 20.2642V16.3057H30.5855" stroke="#FE5000" stroke-width="2" stroke-miterlimit="2.6131" stroke-linecap="round" stroke-linejoin="round"/><path id="Vector_4" d="M43.7661 26.5166V40.3675H39.604V26.5166H41.6835H43.7661Z" stroke="#FE5000" stroke-width="2" stroke-miterlimit="2.6131" stroke-linecap="round" stroke-linejoin="round"/><path id="Vector_5" d="M41.685 46.5235L43.7677 40.3672H39.604L41.685 46.5235Z" stroke="#FE5000" stroke-width="2" stroke-miterlimit="2.6131" stroke-linecap="round" stroke-linejoin="round"/><path id="Vector_6" d="M43.7661 24.4342C43.7661 23.2856 42.8352 22.3516 41.6834 22.3516C40.5349 22.3516 39.604 23.2856 39.604 24.4342V26.5152H41.6834H43.7661V24.4342Z" stroke="#FE5000" stroke-width="2" stroke-miterlimit="2.6131" stroke-linecap="round" stroke-linejoin="round"/></g></g></svg>