<svg xmlns="http://www.w3.org/2000/svg" width="64" height="64" viewBox="0 0 64 64" fill="none"><g id="icon" clip-path="url(#clip0_89_1407)"><g id="Group"><path id="Vector" d="M44.8108 44.1589H14.0814C13.7757 44.1589 13.5278 43.9111 13.5278 43.6054V30.145C13.5278 29.9366 13.6449 29.7459 13.8307 29.6515C14.0164 29.5569 14.2396 29.5751 14.4078 29.6979C16.072 30.9128 18.0439 31.555 20.1105 31.555C25.455 31.555 29.8032 27.2052 29.8032 21.8586C29.8032 20.9956 29.688 20.1324 29.4611 19.2928C29.4161 19.1264 29.4511 18.9486 29.5559 18.8118C29.6606 18.675 29.8231 18.5947 29.9955 18.5947H44.8108C45.1166 18.5947 45.3644 18.8426 45.3644 19.1483V43.6054C45.3643 43.9111 45.1166 44.1589 44.8108 44.1589ZM14.635 43.0518H44.2572V19.7018H30.6944C30.8378 20.4131 30.9102 21.1359 30.9102 21.8586C30.9102 27.8156 26.0655 32.662 20.1105 32.662C18.1621 32.662 16.2889 32.1496 14.635 31.1717V43.0518Z" fill="#FE5000" stroke="#FE5000" stroke-width="0.5"/><path id="Vector_2" d="M58.6538 44.1599H44.8119C44.506 44.1599 44.2583 43.912 44.2583 43.6063V29.7674C44.2583 29.4617 44.506 29.2139 44.8119 29.2139H54.2271C54.4678 29.2139 54.681 29.3695 54.7543 29.5989L57.6458 38.6431L58.8205 39.7127C58.9273 39.8099 58.9919 39.9452 59.0005 40.0893L59.2065 43.5736C59.2155 43.7258 59.1613 43.8751 59.0566 43.9859C58.9521 44.097 58.8063 44.1599 58.6538 44.1599ZM45.3654 43.0528H58.0666L57.9085 40.3796L56.791 39.3621C56.7193 39.2968 56.6659 39.2138 56.6363 39.1213L53.823 30.321H45.3655L45.3654 43.0528Z" fill="#FE5000" stroke="#FE5000" stroke-width="0.5"/><path id="Vector_3" d="M59.0569 48.106H56.2516C55.9496 48.106 55.7033 47.8639 55.698 47.5619C55.6661 45.6854 54.1134 44.1588 52.2369 44.1588C50.3601 44.1588 48.8074 45.6854 48.7757 47.5618C48.7704 47.8638 48.5241 48.106 48.2221 48.106H31.6764C31.3743 48.106 31.1281 47.8638 31.1229 47.5618C31.091 45.6854 29.5384 44.1588 27.6617 44.1588C25.7869 44.1588 24.2357 45.6854 24.2037 47.5619C24.1985 47.8639 23.9522 48.106 23.6502 48.106H19.9124C19.6068 48.106 19.3589 47.8581 19.3589 47.5524V43.6053C19.3589 43.2996 19.6068 43.0518 19.9124 43.0518H60.0637C60.2347 43.0518 60.3959 43.1307 60.5008 43.2656C60.6057 43.4007 60.6423 43.5765 60.6001 43.7421L59.5933 47.6892C59.5308 47.9344 59.3099 48.106 59.0569 48.106ZM56.763 46.9989H58.6268L59.3512 44.1589H55.2058C56.0332 44.8704 56.607 45.8707 56.763 46.9989ZM32.1879 46.9989H47.7107C47.8666 45.8706 48.4403 44.8704 49.2678 44.1589H30.6307C31.4581 44.8704 32.0318 45.8706 32.1879 46.9989ZM20.466 46.9989H23.1387C23.2946 45.8706 23.868 44.8704 24.6948 44.1589H20.466V46.9989Z" fill="#FE5000" stroke="#FE5000" stroke-width="0.5"/><path id="Vector_4" d="M57.1216 39.6519H48.5311C48.2253 39.6519 47.9775 39.404 47.9775 39.0983V33.0897C47.9775 32.784 48.2253 32.5361 48.5311 32.5361C48.8369 32.5361 49.0847 32.784 49.0847 33.0897V38.5448H57.1216C57.4274 38.5448 57.6751 38.7926 57.6751 39.0983C57.6751 39.404 57.4274 39.6519 57.1216 39.6519Z" fill="#FE5000" stroke="#FE5000" stroke-width="0.5"/><path id="Vector_5" d="M27.6627 52.1894C25.1436 52.1894 23.0942 50.14 23.0942 47.621C23.0942 45.1021 25.1436 43.0527 27.6627 43.0527C30.1816 43.0527 32.2309 45.1021 32.2309 47.621C32.2309 50.14 30.1816 52.1894 27.6627 52.1894ZM27.6627 44.1598C25.7541 44.1598 24.2014 45.7125 24.2014 47.621C24.2014 49.5296 25.7541 51.0822 27.6627 51.0822C29.5711 51.0822 31.1238 49.5296 31.1238 47.621C31.1238 45.7125 29.5711 44.1598 27.6627 44.1598Z" fill="#FE5000" stroke="#FE5000" stroke-width="0.5"/><path id="Vector_6" d="M52.2373 52.1894C49.7183 52.1894 47.6689 50.14 47.6689 47.621C47.6689 45.1021 49.7183 43.0527 52.2373 43.0527C54.7562 43.0527 56.8056 45.1021 56.8056 47.621C56.8056 50.14 54.7562 52.1894 52.2373 52.1894ZM52.2373 44.1598C50.3288 44.1598 48.7761 45.7125 48.7761 47.621C48.7761 49.5296 50.3288 51.0822 52.2373 51.0822C54.1457 51.0822 55.6984 49.5296 55.6984 47.621C55.6985 45.7125 54.1457 44.1598 52.2373 44.1598Z" fill="#FE5000" stroke="#FE5000" stroke-width="0.5"/><path id="Vector_7" d="M20.1086 32.6622C14.1516 32.6622 9.30518 27.8158 9.30518 21.8587C9.30518 15.9035 14.1516 11.0586 20.1086 11.0586C26.0637 11.0586 30.9084 15.9035 30.9084 21.8587C30.9084 27.8159 26.0637 32.6622 20.1086 32.6622ZM20.1086 12.1657C14.762 12.1657 10.4123 16.514 10.4123 21.8587C10.4123 27.2053 14.7621 31.5551 20.1086 31.5551C25.4532 31.5551 29.8013 27.2053 29.8013 21.8587C29.8013 16.514 25.4532 12.1657 20.1086 12.1657Z" fill="#FE5000" stroke="#FE5000" stroke-width="0.5"/><path id="Vector_8" d="M21.875 12.318C21.8429 12.318 21.8107 12.3152 21.7786 12.3095C20.6956 12.1183 19.5136 12.1193 18.4439 12.3094C18.2823 12.3382 18.117 12.2938 17.9915 12.1887C17.866 12.0835 17.7935 11.9282 17.7935 11.7644V9.39536C17.7935 9.08962 18.0413 8.8418 18.347 8.8418H21.875C22.1807 8.8418 22.4285 9.08962 22.4285 9.39536V11.7644C22.4285 11.928 22.3561 12.0833 22.2308 12.1885C22.1303 12.2727 22.0041 12.318 21.875 12.318ZM20.1112 11.0587C20.5182 11.0587 20.9233 11.0812 21.3214 11.1258V9.94896H18.9006V11.1256C19.2975 11.0811 19.7026 11.0587 20.1112 11.0587Z" fill="#FE5000" stroke="#FE5000" stroke-width="0.5"/><path id="Vector_9" d="M24.7326 22.4134H20.1097C19.9839 22.4134 19.8619 22.3706 19.7638 22.292L16.1374 19.3892C15.8986 19.1981 15.8601 18.8497 16.0511 18.611C16.2422 18.3724 16.5905 18.3336 16.8292 18.5248L20.304 21.3063H24.7327C25.0384 21.3063 25.2862 21.5542 25.2862 21.8599C25.2862 22.1656 25.0383 22.4134 24.7326 22.4134Z" fill="#FE5000" stroke="#FE5000" stroke-width="0.5"/><path id="Vector_10" d="M22.9363 9.94883H17.2831C16.9774 9.94883 16.7295 9.70096 16.7295 9.39527V7.55356C16.7295 7.24787 16.9774 7 17.2831 7H22.9363C23.242 7 23.4898 7.24787 23.4898 7.55356V9.39527C23.4898 9.70096 23.242 9.94883 22.9363 9.94883ZM17.8366 8.84171H22.3827V8.10712H17.8366V8.84171Z" fill="#FE5000" stroke="#FE5000" stroke-width="0.5"/><path id="Vector_11" d="M20.1122 14.8854C19.4957 14.8854 18.9941 14.3854 18.9941 13.7708C18.9941 13.1563 19.4957 12.6562 20.1122 12.6562C20.7266 12.6562 21.2265 13.1563 21.2265 13.7708C21.2265 14.3854 20.7266 14.8854 20.1122 14.8854Z" fill="#FE5000" stroke="#FE5000" stroke-width="0.5"/><path id="Vector_12" d="M28.1944 22.9776C27.58 22.9776 27.0801 22.4762 27.0801 21.8597C27.0801 21.2452 27.58 20.7451 28.1944 20.7451C28.809 20.7451 29.3092 21.2452 29.3092 21.8597C29.3092 22.4762 28.8091 22.9776 28.1944 22.9776Z" fill="#FE5000" stroke="#FE5000" stroke-width="0.5"/><path id="Vector_13" d="M20.1122 31.0644C19.4957 31.0644 18.9941 30.5629 18.9941 29.9465C18.9941 29.332 19.4957 28.832 20.1122 28.832C20.7266 28.832 21.2265 29.332 21.2265 29.9465C21.2265 30.5629 20.7266 31.0644 20.1122 31.0644Z" fill="#FE5000" stroke="#FE5000" stroke-width="0.5"/><path id="Vector_14" d="M12.0223 22.9767C11.4059 22.9767 10.9043 22.4752 10.9043 21.8587C10.9043 21.2442 11.4059 20.7441 12.0223 20.7441C12.6368 20.7441 13.1367 21.2442 13.1367 21.8587C13.1367 22.4752 12.6368 22.9767 12.0223 22.9767Z" fill="#FE5000" stroke="#FE5000" stroke-width="0.5"/><path id="Vector_15" d="M39.7143 40.3679H14.0814C13.7757 40.3679 13.5278 40.12 13.5278 39.8143C13.5278 39.5086 13.7757 39.2607 14.0814 39.2607H39.7143C40.0201 39.2607 40.2679 39.5086 40.2679 39.8143C40.2679 40.12 40.0201 40.3679 39.7143 40.3679Z" fill="#FE5000" stroke="#FE5000" stroke-width="0.5"/><path id="Vector_16" d="M12.3925 32.197H7.83042C7.52472 32.197 7.27686 31.9491 7.27686 31.6434C7.27686 31.3377 7.52472 31.0898 7.83042 31.0898H12.3925C12.6983 31.0898 12.9461 31.3377 12.9461 31.6434C12.9461 31.9491 12.6982 32.197 12.3925 32.197Z" fill="#FE5000" stroke="#FE5000" stroke-width="0.5"/><path id="Vector_17" d="M10.9076 36.2243H2.55356C2.24787 36.2243 2 35.9764 2 35.6707C2 35.365 2.24787 35.1172 2.55356 35.1172H10.9076C11.2133 35.1172 11.4611 35.365 11.4611 35.6707C11.4611 35.9764 11.2133 36.2243 10.9076 36.2243Z" fill="#FE5000" stroke="#FE5000" stroke-width="0.5"/><path id="Vector_18" d="M42.6141 34.8046C42.3083 34.8046 42.0605 34.5568 42.0605 34.2511V19.1483C42.0605 18.8426 42.3083 18.5947 42.6141 18.5947C42.9199 18.5947 43.1677 18.8426 43.1677 19.1483V34.2511C43.1677 34.5568 42.9199 34.8046 42.6141 34.8046Z" fill="#FE5000" stroke="#FE5000" stroke-width="0.5"/><path id="Vector_19" d="M52.2386 49.9695C50.9439 49.9695 49.8906 48.9162 49.8906 47.6214C49.8906 46.3267 50.9439 45.2734 52.2386 45.2734C53.5335 45.2734 54.5871 46.3267 54.5871 47.6214C54.5871 48.9162 53.5335 49.9695 52.2386 49.9695ZM52.2386 46.3806C51.5544 46.3806 50.9977 46.9372 50.9977 47.6214C50.9977 48.3057 51.5544 48.8624 52.2386 48.8624C52.9231 48.8624 53.48 48.3057 53.48 47.6214C53.48 46.9372 52.9232 46.3806 52.2386 46.3806Z" fill="#FE5000" stroke="#FE5000" stroke-width="0.5"/><path id="Vector_20" d="M27.6626 49.9695C26.3678 49.9695 25.3145 48.9162 25.3145 47.6214C25.3145 46.3267 26.3678 45.2734 27.6626 45.2734C28.9572 45.2734 30.0105 46.3267 30.0105 47.6214C30.0105 48.9162 28.9572 49.9695 27.6626 49.9695ZM27.6626 46.3806C26.9783 46.3806 26.4216 46.9372 26.4216 47.6214C26.4216 48.3057 26.9783 48.8624 27.6626 48.8624C28.3467 48.8624 28.9033 48.3057 28.9033 47.6214C28.9033 46.9372 28.3467 46.3806 27.6626 46.3806Z" fill="#FE5000" stroke="#FE5000" stroke-width="0.5"/><path id="Vector_21" d="M52.2384 52.1882H10.6239C10.3182 52.1882 10.0703 51.9403 10.0703 51.6346C10.0703 51.3289 10.3182 51.0811 10.6239 51.0811H52.2384C52.5442 51.0811 52.7919 51.3289 52.7919 51.6346C52.7919 51.9403 52.5442 52.1882 52.2384 52.1882Z" fill="#FE5000" stroke="#FE5000" stroke-width="0.5"/><path id="Vector_22" d="M57.6521 56.1071H32.1776C31.8719 56.1071 31.624 55.8593 31.624 55.5536C31.624 55.2478 31.8719 55 32.1776 55H57.6521C57.9579 55 58.2057 55.2478 58.2057 55.5536C58.2057 55.8593 57.9579 56.1071 57.6521 56.1071Z" fill="#FE5000" stroke="#FE5000" stroke-width="0.5"/><path id="Vector_23" d="M63.4474 56.1091H60.2606C59.9548 56.1091 59.707 55.8613 59.707 55.5555C59.707 55.2497 59.9548 55.002 60.2606 55.002H63.4474C63.7532 55.002 64.0009 55.2497 64.0009 55.5555C64.0009 55.8613 63.7532 56.1091 63.4474 56.1091Z" fill="#FE5000" stroke="#FE5000" stroke-width="0.5"/><path id="Vector_24" d="M21.2409 56.1071H9.1727C8.86701 56.1071 8.61914 55.8593 8.61914 55.5536C8.61914 55.2477 8.86701 55 9.1727 55H21.2409C21.5466 55 21.7945 55.2477 21.7945 55.5536C21.7945 55.8593 21.5466 56.1071 21.2409 56.1071Z" fill="#FE5000" stroke="#FE5000" stroke-width="0.5"/><path id="Vector_25" d="M40.0033 36.7714H29.2196C28.9139 36.7714 28.666 36.5235 28.666 36.2178V30.9696C28.666 30.6639 28.9139 30.416 29.2196 30.416H40.0033C40.3091 30.416 40.5569 30.6639 40.5569 30.9696V36.2178C40.5569 36.5235 40.3091 36.7714 40.0033 36.7714ZM29.7731 35.6643H39.4497V31.5231H29.7731V35.6643Z" fill="#FE5000" stroke="#FE5000" stroke-width="0.5"/></g></g><defs><clipPath id="clip0_89_1407"><rect width="64" height="64" fill="white"/></clipPath></defs></svg>