<svg width="134" height="60" viewBox="0 0 134 60" fill="none" xmlns="http://www.w3.org/2000/svg">
<path d="M36.7872 43.0192C36.7872 50.9054 30.4091 57.3574 22.6131 57.3574H17.3879C9.59182 57.3574 3.21347 50.9054 3.21347 43.0192C3.21347 35.1329 9.59182 28.6809 17.3879 28.6809H22.6131C30.4091 28.6809 36.7872 35.1329 36.7872 43.0192ZM35.3673 16.8567V26.5691C35.3673 29.4442 30.9504 29.4501 30.949 26.5706V10.094C30.949 7.21302 26.5308 7.21825 26.5308 10.094C26.5308 14.6932 26.5308 21.2102 26.5308 22.2886C26.5308 25.1645 22.1131 25.1696 22.1131 22.2886V22.3543C22.1131 21.6044 22.1125 17.5204 22.1125 14.3567C22.1125 11.4764 17.695 11.481 17.695 14.3567V23.5206C17.695 23.4794 17.6847 23.4438 17.6832 23.4032C17.56 26.1136 13.4117 26.118 13.2885 23.4032C13.2862 23.4438 13.2767 23.4794 13.2767 23.5214V6.25723C13.2767 3.3769 8.85836 3.3813 8.85836 6.25723C8.85836 13.2827 8.85836 26.1521 8.85836 26.5691C8.85836 29.4442 4.4423 29.4501 4.44086 26.5712V17.8355C4.44086 14.9553 0.0227444 14.9597 0.0227444 17.8355V28.8477H0V43.7743L0.0394896 43.6937C0.393394 52.7235 7.80036 59.9998 16.8091 59.9998H22.9984C32.2312 59.9998 39.7848 52.3588 39.7848 43.0192V32.3766V28.8477V16.8567C39.7848 13.9765 35.3673 13.9809 35.3673 16.8567Z" fill="#FE5000"/>
<path fill-rule="evenodd" clip-rule="evenodd" d="M22.1128 2.15852V6.03878C22.1128 8.91472 17.6947 8.91974 17.6947 6.03878V2.15852C17.6947 -0.717204 22.1128 -0.721808 22.1128 2.15852ZM23.5601 43.0193C23.5601 45.3679 25.4419 47.2716 27.7639 47.2716C30.0857 47.2716 31.9684 45.3679 31.9684 43.0193C31.9684 40.6704 30.0857 38.7668 27.7639 38.7668C25.4419 38.7668 23.5601 40.6704 23.5601 43.0193ZM16.2343 45.1452C16.2343 42.7963 14.3523 40.8927 12.0305 40.8927C9.70871 40.8927 7.82666 42.7963 7.82666 45.1452H16.2343Z" fill="#101820"/>
<path fill-rule="evenodd" clip-rule="evenodd" d="M94.6698 47.0956H99.5982C104.735 47.0956 108.032 43.9115 108.032 39.1947C108.032 34.4788 104.735 31.2944 99.5982 31.2944H94.6698C94.2919 31.2944 93.9854 31.6045 93.9854 31.9868V46.4033C93.9854 46.7858 94.2919 47.0956 94.6698 47.0956ZM93.0703 28.6807H99.7761C106.458 28.6807 111.002 32.9465 111.002 39.1947C111.002 45.4431 106.458 49.7088 99.7761 49.7088H93.0703C91.9356 49.7088 91.0162 48.7787 91.0162 47.6309V30.7594C91.0162 29.6116 91.9356 28.6807 93.0703 28.6807ZM119.885 41.7485C119.885 45.1425 122.172 47.3658 125.201 47.3658C128.23 47.3658 130.487 45.1425 130.487 41.7485C130.487 38.3538 128.23 36.1608 125.201 36.1608C122.172 36.1608 119.885 38.3538 119.885 41.7485ZM117.005 41.7485C117.005 37.0024 120.48 33.6379 125.201 33.6379C129.922 33.6379 133.367 37.0024 133.367 41.7485C133.367 46.4947 129.922 49.8887 125.201 49.8887C120.48 49.8887 117.005 46.4947 117.005 41.7485Z" fill="#FE5000"/>
<path fill-rule="evenodd" clip-rule="evenodd" d="M49.8249 31.2948H55.6601V48.4025C55.6601 49.2233 56.3183 49.8891 57.1297 49.8891C57.942 49.8891 58.6001 49.2233 58.6001 48.4025V31.2948H64.4361C65.1489 31.2948 65.7276 30.7093 65.7276 29.9881C65.7276 29.2663 65.1489 28.6816 64.4361 28.6816H49.8249C49.1119 28.6816 48.5332 29.2663 48.5332 29.9881C48.5332 30.7093 49.1119 31.2948 49.8249 31.2948ZM76.8463 36.1616C79.8759 36.1616 82.1322 38.3538 82.1322 41.7484C82.1322 45.1432 79.8759 47.3657 76.8463 47.3657C73.8174 47.3657 71.5305 45.1432 71.5305 41.7484C71.5305 38.3538 73.8174 36.1616 76.8463 36.1616ZM76.8463 33.6378C72.1252 33.6378 68.6505 37.0023 68.6505 41.7484C68.6505 46.4955 72.1252 49.8893 76.8463 49.8893C81.5681 49.8893 85.013 46.4955 85.013 41.7484C85.013 37.0023 81.5681 33.6378 76.8463 33.6378Z" fill="#101820"/>
<path fill-rule="evenodd" clip-rule="evenodd" d="M120.999 53.6632C121.044 53.6189 121.101 53.5967 121.167 53.5967C121.237 53.5967 121.294 53.6189 121.338 53.6632C121.382 53.7068 121.403 53.7649 121.403 53.8358V57.4173C121.403 57.5975 121.439 57.7443 121.511 57.8571C121.584 57.9701 121.676 58.027 121.788 58.027H121.943C122.005 58.027 122.055 58.0492 122.092 58.0927C122.13 58.1369 122.148 58.1946 122.148 58.2662C122.148 58.3369 122.122 58.3946 122.07 58.4388C122.019 58.4823 121.951 58.5045 121.869 58.5045H121.788C121.536 58.5045 121.329 58.4034 121.17 58.1996C121.011 57.9967 120.931 57.7362 120.931 57.4173V53.8358C120.931 53.7649 120.954 53.7068 120.999 53.6632ZM93.0593 57.9233C93.2498 57.8082 93.4 57.6508 93.5096 57.4516C93.6197 57.2531 93.6745 57.0302 93.6745 56.7829C93.6745 56.712 93.6722 56.6597 93.6679 56.6256C93.6641 56.6176 93.6621 56.6072 93.6621 56.594C93.6205 56.2676 93.4848 55.9998 93.2548 55.7901C93.025 55.5804 92.7462 55.4756 92.4194 55.4756C92.1838 55.4756 91.9691 55.5325 91.7765 55.6453C91.5839 55.7583 91.4327 55.9148 91.3233 56.1134C91.2133 56.3128 91.1585 56.5356 91.1585 56.7829C91.1585 57.0302 91.2133 57.2531 91.3233 57.4516C91.4327 57.6508 91.5839 57.8082 91.7765 57.9233C91.9691 58.0383 92.1838 58.0961 92.4194 58.0961C92.6558 58.0961 92.8688 58.0383 93.0593 57.9233ZM94.1465 55.3059V56.7829C94.1465 57.11 94.0706 57.4073 93.9196 57.6753C93.7686 57.9431 93.5613 58.1536 93.2986 58.3064C93.0351 58.4591 92.7427 58.5359 92.4194 58.5359C92.0969 58.5359 91.8036 58.4591 91.5409 58.3064C91.2774 58.1536 91.0701 57.9431 90.9191 57.6753C90.7682 57.4073 90.6929 57.11 90.6929 56.7829C90.6929 56.4559 90.7659 56.1598 90.9134 55.8935C91.06 55.6277 91.2607 55.4181 91.5161 55.2653C91.7707 55.1124 92.0553 55.0356 92.3697 55.0356C92.639 55.0356 92.8856 55.094 93.109 55.2093C93.333 55.3243 93.5169 55.4823 93.6621 55.683V53.8421C93.6621 53.7706 93.6846 53.7122 93.7299 53.6658C93.7758 53.6199 93.8335 53.5971 93.9043 53.5971C93.9744 53.5971 94.0313 53.6199 94.0751 53.6658C94.1181 53.7122 94.1401 53.7706 94.1401 53.8421V55.2499C94.1444 55.2624 94.1465 55.2815 94.1465 55.3059ZM57.7459 58.09C57.7874 58.1359 57.8079 58.1949 57.8079 58.2658C57.8079 58.333 57.7831 58.3897 57.7334 58.4355C57.6838 58.4813 57.6217 58.5049 57.5473 58.5049H57.4168C57.1971 58.5049 57.0002 58.451 56.8264 58.3447C56.6527 58.2377 56.517 58.093 56.4194 57.9107C56.3222 57.7283 56.2733 57.5224 56.2733 57.2914V55.6144H55.8698C55.8034 55.6144 55.7509 55.5945 55.7116 55.5545C55.6721 55.5148 55.6524 55.4652 55.6524 55.407C55.6524 55.3434 55.6721 55.2926 55.7116 55.2526C55.7509 55.2129 55.8034 55.1936 55.8698 55.1936H56.2733V54.2192C56.2733 54.1485 56.2953 54.0895 56.3389 54.0436C56.3821 53.9972 56.439 53.9742 56.5098 53.9742C56.5799 53.9742 56.6382 53.9972 56.6835 54.0436C56.7294 54.0895 56.752 54.1485 56.752 54.2192V55.1936H57.454C57.5204 55.1936 57.5729 55.2129 57.6122 55.2526C57.6517 55.2926 57.6714 55.3434 57.6714 55.407C57.6714 55.4652 57.6517 55.5148 57.6122 55.5545C57.5729 55.5945 57.5204 55.6144 57.454 55.6144H56.752V57.2914C56.752 57.5054 56.814 57.6804 56.9381 57.817C57.0629 57.9528 57.2219 58.0206 57.4168 58.0206H57.5845C57.6503 58.0206 57.7043 58.0442 57.7459 58.09ZM60.1096 55.6457C59.9169 55.7587 59.7659 55.915 59.6564 56.1136C59.5462 56.313 59.4916 56.5381 59.4916 56.7898C59.4916 57.0363 59.5462 57.26 59.6564 57.4586C59.7659 57.658 59.9169 57.8136 60.1096 57.9266C60.3022 58.0402 60.5161 58.0963 60.7525 58.0963C60.9924 58.0963 61.2077 58.0402 61.3982 57.9266C61.5885 57.8136 61.7383 57.658 61.8454 57.4586C61.9534 57.26 62.0074 57.0363 62.0074 56.7898C62.0074 56.5381 61.9534 56.313 61.8454 56.1136C61.7383 55.915 61.5885 55.7587 61.3982 55.6457C61.2077 55.5328 60.9924 55.4759 60.7525 55.4759C60.5161 55.4759 60.3022 55.5328 60.1096 55.6457ZM61.6347 55.2626C61.8951 55.4133 62.1015 55.6227 62.2527 55.8908C62.4037 56.1588 62.4796 56.4584 62.4796 56.7898C62.4796 57.1204 62.4051 57.4188 62.2556 57.6845C62.1067 57.9509 61.9002 58.1591 61.6375 58.3104C61.3749 58.461 61.0793 58.5363 60.7525 58.5363C60.4255 58.5363 60.1299 58.461 59.8672 58.3104C59.6039 58.1591 59.3981 57.9509 59.2492 57.6845C59.1004 57.4188 59.0251 57.1204 59.0251 56.7898C59.0251 56.4584 59.1004 56.1588 59.2492 55.8908C59.3981 55.6227 59.6039 55.4133 59.8672 55.2626C60.1299 55.112 60.4255 55.036 60.7525 55.036C61.0793 55.036 61.3734 55.112 61.6347 55.2626ZM64.4826 56.1136C64.5921 55.915 64.7432 55.7587 64.9358 55.6457C65.1284 55.5328 65.3423 55.4759 65.5787 55.4759C65.8188 55.4759 66.0339 55.5328 66.2244 55.6457C66.4149 55.7587 66.5645 55.915 66.6718 56.1136C66.7798 56.313 66.8338 56.5381 66.8338 56.7898C66.8338 57.0363 66.7798 57.26 66.6718 57.4586C66.5645 57.658 66.4149 57.8136 66.2244 57.9266C66.0339 58.0402 65.8188 58.0963 65.5787 58.0963C65.3423 58.0963 65.1284 58.0402 64.9358 57.9266C64.7432 57.8136 64.5921 57.658 64.4826 57.4586C64.3726 57.26 64.3178 57.0363 64.3178 56.7898C64.3178 56.5381 64.3726 56.313 64.4826 56.1136ZM67.0789 55.8908C66.9279 55.6227 66.7213 55.4133 66.4609 55.2626C66.1996 55.112 65.9055 55.036 65.5787 55.036C65.2519 55.036 64.9563 55.112 64.6936 55.2626C64.4301 55.4133 64.2243 55.6227 64.0756 55.8908C63.9266 56.1588 63.8516 56.4584 63.8516 56.7898C63.8516 57.1204 63.9266 57.4188 64.0756 57.6845C64.2243 57.9509 64.4301 58.1591 64.6936 58.3104C64.9563 58.461 65.2519 58.5363 65.5787 58.5363C65.9055 58.5363 66.2011 58.461 66.4637 58.3104C66.7264 58.1591 66.9331 57.9509 67.0818 57.6845C67.2307 57.4188 67.3058 57.1204 67.3058 56.7898C67.3058 56.4584 67.2299 56.1588 67.0789 55.8908ZM71.9645 55.7649C71.7572 55.962 71.6308 56.2218 71.5857 56.5445H73.8587C73.8258 56.2218 73.7098 55.962 73.5112 55.7649C73.312 55.5678 73.0574 55.4697 72.7473 55.4697C72.4321 55.4697 72.1715 55.5678 71.9645 55.7649ZM73.5609 55.2533C73.7966 55.3972 73.9797 55.5973 74.1104 55.8528C74.241 56.1082 74.3059 56.3997 74.3059 56.7267C74.3059 56.7939 74.2854 56.847 74.2439 56.8868C74.2023 56.9268 74.1491 56.9466 74.0827 56.9466H71.5733C71.606 57.29 71.739 57.5683 71.9709 57.7823C72.2023 57.9955 72.4927 58.1027 72.84 58.1027C72.9896 58.1027 73.1391 58.0767 73.2909 58.0236C73.4419 57.9719 73.5631 57.9056 73.6544 57.8258C73.7075 57.7844 73.7638 57.7631 73.8215 57.7631C73.8674 57.7631 73.9127 57.78 73.9586 57.8133C74.012 57.8635 74.0389 57.9202 74.0389 57.983C74.0389 58.0376 74.0163 58.0857 73.971 58.1278C73.8339 58.2452 73.6601 58.3424 73.4494 58.4201C73.2378 58.4975 73.0349 58.536 72.84 58.536C72.5087 58.536 72.2133 58.4621 71.952 58.3129C71.6908 58.1646 71.4871 57.9572 71.3404 57.6907C71.1932 57.4249 71.1193 57.1245 71.1193 56.7895C71.1193 56.4499 71.1888 56.1474 71.3274 55.8816C71.4668 55.6151 71.6585 55.4077 71.9053 55.2594C72.1519 55.111 72.4321 55.0363 72.7473 55.0363C73.0539 55.0363 73.3244 55.1087 73.5609 55.2533ZM78.2475 57.4587C78.1381 57.6573 77.9877 57.8138 77.7974 57.9268C77.6069 58.0395 77.3938 58.0965 77.1574 58.0965C76.9216 58.0965 76.7071 58.0395 76.5146 57.9268C76.3218 57.8138 76.1708 57.6573 76.0614 57.4587C75.9511 57.2595 75.8965 57.0365 75.8965 56.7892C75.8965 56.5421 75.9511 56.319 76.0614 56.1204C76.1708 55.9213 76.3218 55.7639 76.5146 55.6488C76.7071 55.5337 76.9216 55.476 77.1574 55.476C77.3938 55.476 77.6069 55.5337 77.7974 55.6488C77.9877 55.7639 78.1381 55.9213 78.2475 56.1204C78.3577 56.319 78.4125 56.5421 78.4125 56.7892C78.4125 57.0365 78.3577 57.2595 78.2475 57.4587ZM78.6576 55.8968C78.5066 55.6289 78.2994 55.4185 78.0367 55.2657C77.7732 55.113 77.4807 55.0362 77.1574 55.0362C76.8341 55.0362 76.5415 55.113 76.2788 55.2657C76.0155 55.4185 75.8082 55.6289 75.6572 55.8968C75.506 56.1654 75.4309 56.4623 75.4309 56.7892C75.4309 57.1162 75.5039 57.4123 75.6512 57.6786C75.7979 57.9443 75.9987 58.154 76.2539 58.3067C76.5088 58.4597 76.7932 58.5365 77.1078 58.5365C77.3771 58.5365 77.6236 58.4787 77.8468 58.3636C78.071 58.2486 78.2549 58.0898 78.4001 57.8891V58.2661C78.4001 58.3371 78.4227 58.3946 78.468 58.439C78.5139 58.4825 78.5716 58.5047 78.6423 58.5047C78.7122 58.5047 78.7708 58.4819 78.8159 58.436C78.8612 58.3896 78.8845 58.3333 78.8845 58.2661V56.7892C78.8845 56.4623 78.8086 56.1654 78.6576 55.8968ZM82.3255 55.1775C82.5284 55.2718 82.6918 55.4026 82.8166 55.5702C82.8495 55.6248 82.8662 55.6727 82.8662 55.7148C82.8662 55.7857 82.8327 55.8424 82.7663 55.8845C82.7378 55.9052 82.6985 55.9156 82.6488 55.9156C82.5611 55.9156 82.4889 55.8845 82.4312 55.8219C82.2285 55.5871 81.9505 55.4698 81.5987 55.4698C81.3712 55.4698 81.1887 55.517 81.0522 55.6114C80.9157 55.7051 80.8472 55.8234 80.8472 55.9656C80.8472 56.1171 80.9114 56.2374 81.0398 56.3274C81.1683 56.4174 81.396 56.4898 81.7228 56.5438C82.1665 56.6197 82.4831 56.7423 82.6736 56.9114C82.8639 57.0811 82.9589 57.2914 82.9589 57.5431C82.9589 57.7358 82.902 57.9078 82.7882 58.0584C82.6743 58.2097 82.516 58.3262 82.3131 58.4103C82.1102 58.4947 81.8804 58.5359 81.6235 58.5359C81.3666 58.5359 81.1201 58.4917 80.8845 58.4038C80.6487 58.316 80.4582 58.1927 80.313 58.0333C80.2714 57.9831 80.2509 57.9352 80.2509 57.8893C80.2509 57.8178 80.2838 57.755 80.3502 57.7004C80.3998 57.6627 80.4517 57.6435 80.5057 57.6435C80.5756 57.6435 80.6362 57.673 80.6859 57.7314C80.7852 57.8488 80.9165 57.9396 81.0799 58.0015C81.2433 58.0649 81.4251 58.0961 81.6235 58.0961C81.9133 58.0961 82.1307 58.0459 82.2759 57.9454C82.4211 57.845 82.4956 57.713 82.4993 57.5498C82.4993 57.3985 82.4269 57.2729 82.2817 57.1725C82.1373 57.0714 81.9075 56.997 81.5929 56.9459C81.1865 56.8796 80.8836 56.7628 80.6822 56.5975C80.4815 56.4322 80.3816 56.2322 80.3816 55.9974C80.3816 55.692 80.4983 55.4549 80.7318 55.2873C80.9662 55.1199 81.2595 55.0356 81.6111 55.0356C81.8848 55.0356 82.1226 55.0837 82.3255 55.1775ZM87.183 55.3814C87.1998 55.3438 87.2078 55.3061 87.2078 55.2684C87.2078 55.1852 87.1605 55.1239 87.0647 55.0862C87.0277 55.0699 86.9904 55.0611 86.9532 55.0611C86.8701 55.0611 86.808 55.1075 86.7671 55.1992L85.6112 57.7759L84.4 55.1931C84.3628 55.1055 84.3007 55.0611 84.2138 55.0611C84.1723 55.0611 84.135 55.0699 84.1024 55.0862C84.0111 55.1239 83.965 55.1866 83.965 55.2743C83.965 55.3164 83.9739 55.354 83.9898 55.3881L85.3757 58.291V58.2971L84.7605 59.6737C84.7437 59.7113 84.7357 59.7482 84.7357 59.7867C84.7357 59.8743 84.783 59.9371 84.8786 59.9748C84.9115 59.9917 84.9487 59.9999 84.9903 59.9999C85.0728 59.9999 85.1332 59.952 85.1705 59.8559L87.183 55.3814ZM96.3363 56.1136C96.4458 55.915 96.5968 55.7587 96.7895 55.6457C96.9821 55.5328 97.1958 55.4759 97.4322 55.4759C97.6723 55.4759 97.8877 55.5328 98.0782 55.6457C98.2684 55.7587 98.4182 55.915 98.5253 56.1136C98.6333 56.313 98.6873 56.5381 98.6873 56.7898C98.6873 57.0363 98.6333 57.26 98.5253 57.4586C98.4182 57.658 98.2684 57.8136 98.0782 57.9266C97.8877 58.0402 97.6723 58.0963 97.4322 58.0963C97.1958 58.0963 96.9821 58.0402 96.7895 57.9266C96.5968 57.8136 96.4458 57.658 96.3363 57.4586C96.2261 57.26 96.1713 57.0363 96.1713 56.7898C96.1713 56.5381 96.2261 56.313 96.3363 56.1136ZM98.9326 55.8908C98.7814 55.6227 98.575 55.4133 98.3146 55.2626C98.0533 55.112 97.7592 55.036 97.4322 55.036C97.1054 55.036 96.8098 55.112 96.5471 55.2626C96.2838 55.4133 96.078 55.6227 95.9291 55.8908C95.7803 56.1588 95.7051 56.4584 95.7051 56.7898C95.7051 57.1204 95.7803 57.4188 95.9291 57.6845C96.078 57.9509 96.2838 58.1591 96.5471 58.3104C96.8098 58.461 97.1054 58.5363 97.4322 58.5363C97.7592 58.5363 98.0548 58.461 98.3175 58.3104C98.5802 58.1591 98.7866 57.9509 98.9355 57.6845C99.0842 57.4188 99.1595 57.1204 99.1595 56.7898C99.1595 56.4584 99.0836 56.1588 98.9326 55.8908ZM105.042 55.1775C105.244 55.2718 105.408 55.4026 105.533 55.5702C105.565 55.6248 105.582 55.6727 105.582 55.7148C105.582 55.7857 105.549 55.8424 105.482 55.8845C105.454 55.9052 105.414 55.9156 105.365 55.9156C105.277 55.9156 105.205 55.8845 105.147 55.8219C104.944 55.5871 104.666 55.4698 104.315 55.4698C104.087 55.4698 103.905 55.517 103.768 55.6114C103.632 55.7051 103.563 55.8234 103.563 55.9656C103.563 56.1171 103.627 56.2374 103.756 56.3274C103.884 56.4174 104.112 56.4898 104.439 56.5438C104.882 56.6197 105.199 56.7423 105.39 56.9114C105.58 57.0811 105.675 57.2914 105.675 57.5431C105.675 57.7358 105.618 57.9078 105.504 58.0584C105.39 58.2097 105.232 58.3262 105.029 58.4103C104.826 58.4947 104.597 58.5359 104.34 58.5359C104.083 58.5359 103.836 58.4917 103.6 58.4038C103.365 58.316 103.174 58.1927 103.029 58.0333C102.988 57.9831 102.967 57.9352 102.967 57.8893C102.967 57.8178 103 57.755 103.066 57.7004C103.116 57.6627 103.168 57.6435 103.222 57.6435C103.292 57.6435 103.352 57.673 103.402 57.7314C103.501 57.8488 103.632 57.9396 103.796 58.0015C103.959 58.0649 104.141 58.0961 104.34 58.0961C104.629 58.0961 104.847 58.0459 104.992 57.9454C105.137 57.845 105.211 57.713 105.215 57.5498C105.215 57.3985 105.143 57.2729 104.998 57.1725C104.853 57.0714 104.623 56.997 104.309 56.9459C103.903 56.8796 103.6 56.7628 103.398 56.5975C103.198 56.4322 103.097 56.2322 103.097 55.9974C103.097 55.692 103.214 55.4549 103.448 55.2873C103.682 55.1199 103.975 55.0356 104.327 55.0356C104.601 55.0356 104.839 55.0837 105.042 55.1775ZM107.464 55.0672C107.394 55.0672 107.336 55.0909 107.29 55.1365C107.244 55.1823 107.222 55.2413 107.222 55.3131V58.2595C107.222 58.3305 107.244 58.3894 107.29 58.4353C107.336 58.4817 107.394 58.5047 107.464 58.5047C107.535 58.5047 107.592 58.4817 107.635 58.4353C107.678 58.3894 107.7 58.3305 107.7 58.2595V55.3131C107.7 55.2413 107.678 55.1823 107.635 55.1365C107.592 55.0909 107.535 55.0672 107.464 55.0672ZM107.799 54.0686C107.799 53.9681 107.767 53.8861 107.7 53.8233C107.634 53.7608 107.555 53.729 107.464 53.729C107.369 53.729 107.288 53.7608 107.222 53.8233C107.155 53.8861 107.122 53.9681 107.122 54.0686C107.122 54.1644 107.155 54.2464 107.219 54.3136C107.283 54.3807 107.362 54.414 107.458 54.414C107.553 54.414 107.634 54.3807 107.7 54.3136C107.767 54.2464 107.799 54.1644 107.799 54.0686ZM113.766 55.2059C113.954 55.3231 114.102 55.4901 114.207 55.7056C114.312 55.9211 114.365 56.1713 114.365 56.4563V58.2662C114.365 58.3378 114.344 58.3947 114.3 58.4388C114.256 58.4832 114.2 58.5045 114.129 58.5045C114.059 58.5045 114.001 58.4832 113.955 58.4388C113.91 58.3947 113.887 58.3378 113.887 58.2662V56.4563C113.887 56.1588 113.811 55.9234 113.66 55.75C113.509 55.5757 113.311 55.4886 113.067 55.4886C112.806 55.4886 112.595 55.5765 112.434 55.7529C112.272 55.9284 112.194 56.1588 112.197 56.4438V56.4563V58.2662C112.197 58.3378 112.176 58.3947 112.132 58.4388C112.088 58.4832 112.032 58.5045 111.961 58.5045C111.891 58.5045 111.833 58.4832 111.787 58.4388C111.742 58.3947 111.719 58.3378 111.719 58.2662V56.4563C111.719 56.1588 111.643 55.9234 111.492 55.75C111.341 55.5757 111.143 55.4886 110.899 55.4886C110.642 55.4886 110.431 55.5748 110.266 55.7462C110.1 55.9182 110.017 56.1381 110.017 56.4061V58.2662C110.017 58.3378 109.995 58.3947 109.952 58.4388C109.908 58.4832 109.851 58.5045 109.781 58.5045C109.71 58.5045 109.653 58.4832 109.607 58.4388C109.562 58.3947 109.539 58.3378 109.539 58.2662V55.3129C109.539 55.2413 109.562 55.1829 109.607 55.1365C109.653 55.0906 109.71 55.0679 109.781 55.0679C109.851 55.0679 109.908 55.0906 109.952 55.1365C109.995 55.1829 110.017 55.2413 110.017 55.3129V55.451C110.133 55.3173 110.271 55.2133 110.43 55.1402C110.59 55.0664 110.763 55.0302 110.949 55.0302C111.176 55.0302 111.381 55.0825 111.564 55.1873C111.746 55.2915 111.891 55.4384 111.999 55.6265C112.118 55.4384 112.275 55.2915 112.468 55.1873C112.66 55.0825 112.877 55.0302 113.116 55.0302C113.361 55.0302 113.578 55.0886 113.766 55.2059ZM118.865 57.4587C118.756 57.6573 118.605 57.8138 118.412 57.9268C118.219 58.0395 118.005 58.0965 117.769 58.0965C117.442 58.0965 117.164 57.9916 116.934 57.782C116.704 57.5732 116.568 57.3045 116.527 56.9781C116.527 56.9649 116.524 56.9547 116.521 56.9465C116.517 56.9132 116.514 56.8601 116.514 56.7892C116.514 56.5421 116.569 56.319 116.679 56.1204C116.789 55.9213 116.939 55.7639 117.129 55.6488C117.32 55.5337 117.533 55.476 117.769 55.476C118.005 55.476 118.219 55.5337 118.412 55.6488C118.605 55.7639 118.756 55.9213 118.865 56.1204C118.975 56.319 119.03 56.5421 119.03 56.7892C119.03 57.0365 118.975 57.2595 118.865 57.4587ZM119.27 55.8968C119.118 55.6289 118.911 55.4185 118.648 55.2657C118.385 55.113 118.093 55.0362 117.769 55.0362C117.446 55.0362 117.153 55.113 116.89 55.2657C116.627 55.4185 116.42 55.6289 116.269 55.8968C116.118 56.1654 116.042 56.4623 116.042 56.7892V58.2661C116.042 58.2913 116.044 58.3099 116.049 58.3224V59.7299C116.049 59.8015 116.071 59.8599 116.114 59.9063C116.157 59.9522 116.214 59.975 116.284 59.975C116.355 59.975 116.413 59.9522 116.459 59.9063C116.504 59.8599 116.527 59.8015 116.527 59.7299V57.8891C116.672 58.0898 116.856 58.2486 117.08 58.3636C117.303 58.4787 117.55 58.5365 117.819 58.5365C118.133 58.5365 118.419 58.4597 118.673 58.3067C118.927 58.154 119.129 57.9443 119.275 57.6786C119.423 57.4123 119.496 57.1162 119.496 56.7892C119.496 56.4623 119.421 56.1654 119.27 55.8968ZM123.528 56.5445C123.573 56.2218 123.699 55.962 123.906 55.7649C124.114 55.5678 124.374 55.4697 124.689 55.4697C124.999 55.4697 125.254 55.5678 125.453 55.7649C125.652 55.962 125.768 56.2218 125.801 56.5445H123.528ZM126.052 55.8528C125.922 55.5973 125.739 55.3972 125.503 55.2533C125.266 55.1087 124.996 55.0363 124.689 55.0363C124.374 55.0363 124.094 55.111 123.847 55.2594C123.601 55.4077 123.409 55.6151 123.269 55.8816C123.131 56.1474 123.061 56.4499 123.061 56.7895C123.061 57.1245 123.135 57.4249 123.282 57.6907C123.429 57.9572 123.633 58.1646 123.894 58.3129C124.155 58.4621 124.451 58.536 124.782 58.536C124.977 58.536 125.18 58.4975 125.391 58.4201C125.602 58.3424 125.776 58.2452 125.913 58.1278C125.958 58.0857 125.981 58.0376 125.981 57.983C125.981 57.9202 125.954 57.8635 125.9 57.8133C125.855 57.78 125.809 57.7631 125.763 57.7631C125.706 57.7631 125.65 57.7844 125.596 57.8258C125.505 57.9056 125.384 57.9719 125.233 58.0236C125.081 58.0767 124.931 58.1027 124.782 58.1027C124.435 58.1027 124.144 57.9955 123.913 57.7823C123.681 57.5683 123.548 57.29 123.515 56.9466H126.025C126.091 56.9466 126.145 56.9268 126.186 56.8868C126.227 56.847 126.248 56.7939 126.248 56.7267C126.248 56.3997 126.183 56.1082 126.052 55.8528Z" fill="#101820"/>
</svg>
