<svg xmlns="http://www.w3.org/2000/svg" width="64" height="64" viewBox="0 0 64 64" fill="none"><g id="icon"><g id="Group"><path id="Vector" d="M23.2833 39.1988C22.3708 38.5337 21.2541 38.2638 20.1386 38.4387C17.8358 38.7998 16.2562 40.9669 16.6173 43.2697C16.7922 44.3851 17.3911 45.3657 18.3035 46.0308C19.0346 46.5636 19.8967 46.8428 20.7844 46.8428C21.0046 46.8428 21.2265 46.8256 21.4482 46.7909C22.5637 46.616 23.5443 46.0171 24.2094 45.1047C24.8744 44.1922 25.1444 43.0754 24.9695 41.96C24.7946 40.8444 24.1958 39.8638 23.2833 39.1988ZM23.2987 44.4408C22.8109 45.11 22.0917 45.5492 21.2737 45.6774C20.4557 45.8057 19.6366 45.6078 18.9674 45.12C18.2982 44.6322 17.859 43.9131 17.7308 43.095C17.6025 42.2769 17.8005 41.4579 18.2882 40.7887C18.776 40.1195 19.4951 39.6804 20.3132 39.5521C21.1312 39.424 21.9503 39.6217 22.6195 40.1095C23.2887 40.5973 23.7278 41.3164 23.8561 42.1345C23.9844 42.9526 23.7864 43.7716 23.2987 44.4408Z" fill="#FE5000" stroke="#FE5000"/><path id="Vector_2" d="M29.5865 42.2441L29.263 40.1814L27.6161 39.6728C27.5914 39.6153 27.5659 39.5581 27.5397 39.5013L28.2232 37.8971L26.9117 36.2725L25.2296 36.6558C25.18 36.619 25.13 36.5827 25.0794 36.547L24.869 34.8141L22.921 34.0629L21.6572 35.2347C21.595 35.2275 21.5327 35.221 21.4703 35.2153L20.4228 33.8213L18.3601 34.1447L17.8514 35.7917C17.7939 35.8164 17.7367 35.8419 17.6799 35.8681L16.0758 35.1846L14.4512 36.496L14.8345 38.1782C14.7976 38.2278 14.7613 38.2778 14.7256 38.3284L12.9928 38.5387L12.2416 40.4868L13.4134 41.7506C13.4062 41.8128 13.3997 41.8751 13.3941 41.9375L12 42.985L12.3234 45.0478L13.9704 45.5564C13.9951 45.6139 14.0206 45.6711 14.0468 45.7279L13.3633 47.3321L14.6748 48.9567L16.3569 48.5734C16.4064 48.6102 16.4565 48.6465 16.5071 48.6822L16.7174 50.4151L18.6655 51.1663L19.9293 49.9945C19.9915 50.0018 20.0538 50.0082 20.1162 50.0139L21.1637 51.4079L23.2264 51.0845L23.735 49.4376C23.7925 49.4128 23.8498 49.3873 23.9066 49.3611L25.5107 50.0446L27.1353 48.7332L26.752 47.051C26.7888 47.0015 26.8251 46.9514 26.8609 46.9008L28.5937 46.6905L29.3448 44.7424L28.1731 43.4786C28.1803 43.4164 28.1867 43.3541 28.1924 43.2917L29.5865 42.2441ZM28.0403 44.993L27.7857 45.6532L26.2109 45.8444L26.0674 46.0636C25.9544 46.2364 25.8322 46.4047 25.7042 46.5639L25.5335 46.7763L25.8802 48.2979L25.3296 48.7424L23.8718 48.1212L23.6379 48.2395C23.4543 48.3323 23.2639 48.4169 23.072 48.4911L22.8173 48.5895L22.357 50.08L21.6579 50.1896L20.7055 48.9221L20.4434 48.9078C20.2375 48.8965 20.0302 48.8749 19.8274 48.8435L19.558 48.8018L18.4149 49.8617L17.7546 49.6071L17.5635 48.0322L17.3442 47.8888C17.1715 47.7757 17.0032 47.6535 16.844 47.5256L16.6315 47.3548L15.11 47.7016L14.6655 47.1509L15.2866 45.6932L15.1684 45.4593C15.0756 45.2757 14.9909 45.0853 14.9167 44.8934L14.8183 44.6387L13.3279 44.1784L13.2183 43.4793L14.4858 42.5269L14.5001 42.2648C14.5113 42.0589 14.5329 41.8516 14.5644 41.6488L14.6061 41.3793L13.5462 40.2362L13.8008 39.576L15.3756 39.3848L15.5191 39.1655C15.632 38.993 15.7542 38.8247 15.8823 38.6652L16.053 38.4528L15.7063 36.9313L16.2569 36.4868L17.7147 37.1079L17.9486 36.9897C18.1322 36.8969 18.3226 36.8123 18.5145 36.738L18.7692 36.6396L19.2295 35.1492L19.9286 35.0396L20.881 36.3071L21.1431 36.3214C21.3491 36.3326 21.5563 36.3542 21.7591 36.3856L22.0286 36.4274L23.1717 35.3675L23.8319 35.6221L24.0231 37.1969L24.2423 37.3403C24.4149 37.4533 24.5832 37.5755 24.7425 37.7036L24.955 37.8743L26.4766 37.5276L26.921 38.0782L26.2999 39.5359L26.4182 39.7699C26.5109 39.9532 26.5955 40.1436 26.6698 40.3357L26.7682 40.5904L28.2586 41.0507L28.3683 41.7498L27.1008 42.7022L27.0865 42.9643C27.0752 43.17 27.0536 43.3773 27.0222 43.5804L26.9805 43.8498L28.0403 44.993Z" fill="#FE5000" stroke="#FE5000"/><path id="Vector_3" d="M31.2395 46.248H52L49.8052 37.4685L40.6575 33.0971C40.669 32.9623 40.6762 32.8263 40.6762 32.6887V31.8693C42.2597 30.7944 43.3096 29.1913 43.4365 27.3844C43.7882 27.197 44.2945 26.8362 44.5661 26.222C44.765 25.7724 44.8057 25.2753 44.6899 24.7377H45.7927V22.7858L44.765 22.2353V20.644C44.765 17.047 42.2088 13.8899 38.5052 12.8527C38.3574 12.361 37.8823 12 37.3203 12H34.725C34.1847 12 33.7248 12.3335 33.5587 12.7961C31.7924 13.2484 30.1982 14.213 29.0402 15.5366C27.7805 16.9765 27.0868 18.7904 27.0868 20.644V22.1058L25.8428 22.6563V24.7377H27.1124C27.0354 25.2351 27.0926 25.7014 27.2858 26.1302C27.5794 26.7819 28.1216 27.1737 28.4835 27.3748C28.6051 29.1523 29.6196 30.733 31.1569 31.8091V32.6887C31.1569 32.8412 31.1649 32.9918 31.179 33.1406L28.1209 34.6284L28.6139 35.6418L31.4289 34.2724C32.083 36.1205 33.8472 37.4484 35.9166 37.4484C38.0011 37.4484 39.7756 36.1009 40.4181 34.2317L48.8405 38.2566L50.5566 45.121H31.2395V46.248ZM26.9698 23.3899L28.2138 22.8394V20.644C28.2138 17.5839 30.3531 14.9258 33.4921 13.9833V18.4689H34.6191V13.1765C34.6191 13.1697 34.651 13.127 34.725 13.127H37.3203C37.3942 13.127 37.4261 13.1697 37.4261 13.1765V18.4689H38.5531V14.0451C41.5788 15.0402 43.6381 17.6699 43.6381 20.6439V22.9101L44.6657 23.4606V23.6106H26.9698V23.3899ZM29.5982 27.014V26.6158L29.2228 26.4828C29.2163 26.4805 28.5707 26.2384 28.3133 25.6672C28.1929 25.4 28.1757 25.0884 28.261 24.7377H43.523C43.6543 25.1358 43.6601 25.4784 43.5387 25.7588C43.3162 26.2727 42.7192 26.4757 42.7172 26.4764L42.3226 26.6003V27.014C42.3226 29.8416 39.4685 32.142 35.9604 32.142C32.4522 32.1421 29.5982 29.8416 29.5982 27.014ZM35.9165 36.3213C33.9135 36.3213 32.2839 34.6917 32.2839 32.6887V32.4618C33.3706 32.9754 34.6251 33.2691 35.9603 33.2691C37.2598 33.2691 38.4829 32.9911 39.5491 32.5028V32.6887C39.5492 34.6917 37.9196 36.3213 35.9165 36.3213Z" fill="#FE5000" stroke="#FE5000"/></g></g></svg>