<svg xmlns="http://www.w3.org/2000/svg" width="64" height="64" viewBox="0 0 64 64" fill="none"><g id="icon"><path id="Vector" d="M51.3577 27.9105H41.7973V26.3744H47.4814C47.8385 26.3744 48.126 26.0847 48.126 25.7298V15.2913C48.126 14.9342 47.8363 14.6468 47.4814 14.6468H30.7682C30.4111 14.6468 30.1236 14.9365 30.1236 15.2913V25.7298C30.1236 26.0869 30.4133 26.3744 30.7682 26.3744H36.4523V27.9105H25.8297V25.5142C25.8297 23.5896 24.7292 21.9209 23.128 21.0922C24.1184 20.3826 24.7674 19.2237 24.7674 17.9144C24.7674 15.7562 23.0112 14 20.853 14C18.6947 14 16.9385 15.7562 16.9385 17.9144C16.9385 19.2237 17.5876 20.3826 18.578 21.0922C16.9745 21.9209 15.8763 23.5896 15.8763 25.5142V27.9105H12.6445C12.2875 27.9105 12 28.2002 12 28.555V31.8743C12 32.2314 12.2897 32.5189 12.6445 32.5189H13.7809V48.8324C13.7809 49.1895 14.0706 49.4769 14.4255 49.4769H49.5745C49.9316 49.4769 50.2191 49.1872 50.2191 48.8324V32.5189H51.3554C51.7125 32.5189 52 32.2292 52 31.8743V28.555C52.0022 28.2002 51.7148 27.9105 51.3577 27.9105ZM31.4127 25.0853V15.9359H46.8369V25.0853H41.7973V23.4593C41.7973 23.1022 41.5076 22.8148 41.1528 22.8148H37.0968C36.7398 22.8148 36.4523 23.1045 36.4523 23.4593V25.0853H31.4127ZM40.5082 25.0853H37.7436V24.1039H40.5082V25.0853ZM37.7414 26.3744H40.506V27.9105H37.7414V26.3744ZM18.2299 17.9144C18.2299 16.4681 19.4067 15.2913 20.853 15.2913C22.2993 15.2913 23.476 16.4681 23.476 17.9144C23.476 19.3607 22.2993 20.5375 20.853 20.5375C19.4067 20.5375 18.2299 19.3607 18.2299 17.9144ZM17.1653 25.5142C17.1653 23.4818 18.8183 21.8266 20.853 21.8266C22.8854 21.8266 24.5406 23.4795 24.5406 25.5142V27.9105H17.1653V25.5142ZM48.93 48.1878H15.0723V32.5189H48.93V48.1878ZM50.7131 31.2298H13.2913V29.2018H50.7131V31.2298Z" fill="#FE5000" stroke="#FE5000"/></g></svg>