<svg xmlns="http://www.w3.org/2000/svg" width="64" height="64" viewBox="0 0 64 64" fill="none"><g id="icon"><g id="Group"><path id="Vector" d="M46.8213 44.9826C46.8233 44.9631 46.8243 44.9434 46.8269 44.9233C46.8499 44.7187 46.8607 44.5209 46.8678 44.3279L45.6537 42.5385L43.704 47.3485C43.7752 47.4484 43.8494 47.549 43.932 47.6496C44.1875 47.9667 44.1505 48.4407 43.8481 48.7083C43.7141 48.8294 43.5489 48.8873 43.3851 48.8873C43.1818 48.8873 42.9809 48.7953 42.8385 48.6224C41.7655 47.294 41.3158 45.9877 41.5017 44.7398C41.6461 43.7776 42.143 43.0749 42.5517 42.6435L41.148 40.5957V50.3559C41.148 50.7722 40.827 51.1084 40.431 51.1084H36.0645L39.2926 54.6667L40.8924 55.6678L46.8334 45.255C46.8187 45.0975 46.8207 45.001 46.8213 44.9826Z" fill="#FE5000" stroke="#FE5000" stroke-width="0.5"/><path id="Vector_2" d="M28.6998 7.74316C28.2892 8.52159 27.4987 9.0518 26.5915 9.0518C25.6931 9.0518 24.9098 8.53251 24.4965 7.76772C23.4973 8.70061 22.1271 9.47597 20.791 10.0887H32.5569C31.1857 9.4804 29.7543 8.69412 28.6998 7.74316Z" fill="#FE5000" stroke="#FE5000" stroke-width="0.5"/><path id="Vector_3" d="M46.874 41.1689C46.6643 41.3268 46.4006 41.3448 46.1779 41.2473L46.1538 41.3033C46.6149 42.1117 46.9059 43.1087 46.8675 44.328C46.8607 44.5209 46.8496 44.7187 46.8266 44.9233C46.8239 44.9434 46.823 44.9632 46.821 44.9826C46.8204 45.0014 46.8184 45.0979 46.8331 45.255L47.0688 44.8428C47.3572 44.3368 47.7926 43.9492 48.2963 43.7214C48.203 41.8775 47.4681 40.4283 46.4965 39.3301L47.0395 40.1187C47.2701 40.4549 47.1966 40.9258 46.874 41.1689Z" fill="#FE5000" stroke="#FE5000" stroke-width="0.5"/><path id="Vector_4" d="M40.6608 56.0746L40.892 55.6678L39.2922 54.6667L35.8475 52.5057C35.7051 52.3959 34.9998 51.8578 34.0325 51.1084H31.6221C33.4069 52.5009 34.8987 53.6398 35.03 53.739C35.0479 53.7537 35.0648 53.7649 35.084 53.7755L40.3191 57.062C40.3721 56.7224 40.4826 56.3863 40.6608 56.0746Z" fill="#FE5000" stroke="#FE5000" stroke-width="0.5"/><path id="Vector_5" d="M50.7076 43.8815C50.2959 43.6244 49.8241 43.4873 49.3471 43.4873C48.9813 43.4873 48.625 43.5719 48.2969 43.7212C47.7929 43.949 47.3575 44.3366 47.0694 44.8426L46.8337 45.2549L40.8927 55.6677L40.6615 56.0745C40.483 56.3861 40.3724 56.7223 40.3198 57.0619C40.1552 58.152 40.6183 59.2888 41.5765 59.8889C41.9881 60.148 42.4583 60.2844 42.935 60.2844C43.8646 60.2844 44.7387 59.7651 45.215 58.9297L51.6229 47.6986C51.9871 47.0613 52.0921 46.3115 51.9181 45.5907C51.7455 44.8716 51.315 44.2651 50.7076 43.8815ZM42.935 58.78C42.7171 58.78 42.5009 58.7173 42.3123 58.6003C41.7349 58.2375 41.5459 57.4509 41.8909 56.845L48.2991 45.6139C48.5212 45.2249 48.913 44.9913 49.3474 44.9913C49.5656 44.9913 49.7825 45.0554 49.9718 45.1724C50.2507 45.3476 50.4497 45.6258 50.5281 45.9583C50.6087 46.2914 50.56 46.6341 50.3922 46.928L43.9843 58.1588C43.7622 58.5472 43.3701 58.78 42.935 58.78Z" fill="#FE5000" stroke="#FE5000" stroke-width="0.5"/><path id="Vector_6" d="M34.0328 51.1091H36.0644H40.431C40.827 51.1091 41.1479 50.773 41.1479 50.3567V40.5965L39.7136 38.5053V49.6075H14.113V14.1408H13.9309C13.4539 14.1408 13.0169 13.957 12.6797 13.6553V50.3567C12.6797 50.773 13.0009 51.1091 13.396 51.1091H31.6224H34.0328Z" fill="#FE5000" stroke="#FE5000" stroke-width="0.5"/><path id="Vector_7" d="M39.9243 14.1403H39.7139V31.707C40.2081 31.6538 40.7089 31.7574 41.1481 32.0012V13.6797C40.8145 13.9661 40.3886 14.1403 39.9243 14.1403Z" fill="#FE5000" stroke="#FE5000" stroke-width="0.5"/><path id="Vector_8" d="M39.7136 31.707C39.2867 31.7496 38.8646 31.9061 38.491 32.1864C37.3607 33.0388 37.1029 34.6962 37.9155 35.8804L39.7133 38.5048L41.1475 40.596L42.5512 42.6438C42.1422 43.0755 41.6457 43.7779 41.5013 44.7401C41.3156 45.988 41.7653 47.294 42.838 48.6227C42.9805 48.7959 43.1814 48.8876 43.3846 48.8876C43.5485 48.8876 43.7137 48.8297 43.8476 48.7086C44.15 48.441 44.1871 47.9667 43.9315 47.6499C43.8489 47.5493 43.7748 47.4487 43.7036 47.3488C43.0819 46.4923 42.814 45.6965 42.9148 44.9846C43.0575 43.9869 43.8961 43.4124 43.9 43.409C44.0688 43.2985 44.1855 43.1198 44.2242 42.917C44.2622 42.7117 44.219 42.502 44.1035 42.3322L39.0782 35.0048C38.7267 34.494 38.8399 33.7766 39.3273 33.4064C39.8157 33.0388 40.4992 33.1575 40.85 33.6682L45.875 40.9956C45.955 41.1122 46.0603 41.1961 46.1781 41.2472C46.4008 41.3444 46.6645 41.3263 46.8742 41.1688C47.1968 40.9257 47.2703 40.4548 47.04 40.1186L46.497 39.33L42.0147 32.7909C41.7797 32.4493 41.4802 32.1864 41.1482 32.0012C40.7086 31.7574 40.2078 31.6538 39.7136 31.707Z" fill="#FE5000" stroke="#FE5000" stroke-width="0.5"/><path id="Vector_9" d="M13.9308 14.1403H14.1129H39.7135H39.9239C40.3886 14.1403 40.8142 13.9657 41.1478 13.6793C41.58 13.3077 41.8563 12.7458 41.8563 12.1129C41.8563 10.9956 40.9891 10.0883 39.9243 10.0883H37.0248C37.0534 10.0951 37.0827 10.1036 37.1094 10.1101C37.4931 10.2107 37.7259 10.6195 37.6293 11.0218C37.5477 11.3628 37.2567 11.5899 36.9383 11.5899H39.9246C40.1997 11.5899 40.4234 11.8262 40.4234 12.1126C40.4234 12.3997 40.1993 12.6353 39.9246 12.6353H13.9314C13.6564 12.6353 13.433 12.3997 13.433 12.1126C13.433 11.8262 13.6567 11.5899 13.9314 11.5899H15.7904C15.6353 11.4913 15.5163 11.3328 15.4685 11.1364C15.3713 10.7313 15.6054 10.3225 15.9894 10.2219C16.1337 10.1854 16.296 10.1394 16.4742 10.0879H13.9314C12.8665 10.0879 12 10.9949 12 12.1126C12 12.7294 12.2637 13.2814 12.6806 13.6541C13.0171 13.9565 13.4541 14.1403 13.9308 14.1403Z" fill="#FE5000" stroke="#FE5000" stroke-width="0.5"/><path id="Vector_10" d="M36.7595 11.568C36.366 11.4654 34.527 10.9594 32.5562 10.0889H20.7903C19.0679 10.8741 17.408 11.3801 16.666 11.5905H36.9318C36.8746 11.5905 36.817 11.5837 36.7595 11.568Z" fill="#FE5000" stroke="#FE5000" stroke-width="0.5"/><path id="Vector_11" d="M15.4678 11.1373C15.5156 11.3337 15.6349 11.4923 15.7897 11.5908C15.9009 11.6621 16.0281 11.7047 16.163 11.7047C16.2199 11.7047 16.2794 11.6969 16.3376 11.6822C16.4052 11.6621 16.5207 11.6324 16.666 11.5908C17.4077 11.3805 19.0679 10.8741 20.7903 10.0892C22.1264 9.47647 23.4966 8.70145 24.4958 7.76823C24.2978 7.40066 24.182 6.97718 24.182 6.52677C24.182 6.24172 24.2292 5.96998 24.3127 5.71289C24.1667 5.97782 23.9661 6.23627 23.7223 6.48552C22.713 7.51558 20.9626 8.41608 19.3099 9.09222C18.2492 9.52559 17.2295 9.8679 16.4735 10.0892C16.2953 10.1403 16.1331 10.1864 15.9887 10.2232C15.6047 10.3235 15.3706 10.7322 15.4678 11.1373Z" fill="#FE5000" stroke="#FE5000" stroke-width="0.5"/><path id="Vector_12" d="M28.999 6.52689C28.999 6.96707 28.8911 7.38271 28.6992 7.74345C29.7534 8.69441 31.1851 9.48103 32.5559 10.089C34.5267 10.9595 36.3658 11.4655 36.7592 11.5681C36.8168 11.5841 36.874 11.5906 36.9316 11.5906C36.9316 11.5906 36.9329 11.5906 36.9338 11.5906C36.9348 11.5906 36.9361 11.5906 36.9377 11.5906C37.2561 11.5906 37.5471 11.3635 37.6287 11.0226C37.7256 10.6202 37.4925 10.2114 37.1088 10.1108C37.0821 10.104 37.0528 10.0955 37.0242 10.089C36.2539 9.87996 35.0528 9.49908 33.7938 8.98354C32.1368 8.30774 30.3829 7.40386 29.373 6.37039C29.1847 6.1791 29.0224 5.98135 28.8927 5.78223C28.9616 6.01749 28.999 6.26877 28.999 6.52689Z" fill="#FE5000" stroke="#FE5000" stroke-width="0.5"/><path id="Vector_13" d="M24.1821 6.52658C24.1821 6.97665 24.2979 7.40047 24.4959 7.76804C24.9092 8.53249 25.6928 9.05212 26.5909 9.05212C27.4981 9.05212 28.2889 8.52191 28.6992 7.74348C28.8911 7.3824 28.999 6.9671 28.999 6.52691C28.999 6.26846 28.9616 6.01752 28.893 5.78225C28.5887 4.75015 27.6724 4 26.5909 4C25.5338 4 24.6361 4.71981 24.3129 5.7127C24.229 5.97013 24.1821 6.24153 24.1821 6.52658ZM27.567 6.52658C27.567 7.09054 27.1277 7.55015 26.5909 7.55015C26.0537 7.55015 25.6161 7.09054 25.6161 6.52658C25.6161 5.96262 26.0537 5.50505 26.5909 5.50505C27.1277 5.50505 27.567 5.96262 27.567 6.52658Z" fill="#FE5000" stroke="#FE5000" stroke-width="0.5"/><path id="Vector_14" d="M36.4524 19.6465H16.7111C16.3148 19.6465 15.9941 19.984 15.9941 20.3997C15.9941 20.8133 16.3148 21.1502 16.7111 21.1502H36.4524C36.8475 21.1502 37.1688 20.8133 37.1688 20.3997C37.1688 19.984 36.8475 19.6465 36.4524 19.6465Z" fill="#FE5000" stroke="#FE5000" stroke-width="0.5"/><path id="Vector_15" d="M36.4524 25.1758H16.7111C16.3148 25.1758 15.9941 25.512 15.9941 25.9263C15.9941 26.3412 16.3148 26.6795 16.7111 26.6795H36.4524C36.8475 26.6795 37.1688 26.3412 37.1688 25.9263C37.1688 25.512 36.8475 25.1758 36.4524 25.1758Z" fill="#FE5000" stroke="#FE5000" stroke-width="0.5"/><path id="Vector_16" d="M27.6932 32.0557C28.0902 32.0557 28.4102 31.7182 28.4102 31.3039C28.4102 30.8889 28.0902 30.5527 27.6932 30.5527H16.1634C15.7677 30.5527 15.4468 30.8889 15.4468 31.3039C15.4468 31.7182 15.7677 32.0557 16.1634 32.0557H27.6932Z" fill="#FE5000" stroke="#FE5000" stroke-width="0.5"/><path id="Vector_17" d="M35.9364 36.4003C35.9364 35.9846 35.6155 35.6484 35.2207 35.6484H32.7534V37.1528H35.2207C35.6155 37.1528 35.9364 36.8149 35.9364 36.4003Z" fill="#FE5000" stroke="#FE5000" stroke-width="0.5"/><path id="Vector_18" d="M33.0494 41.7025C33.8512 41.7025 34.5035 42.3865 34.5035 43.2256C34.5035 44.0675 33.8512 44.7514 33.0494 44.7514H32.7529V45.5033C32.7529 45.7031 32.6774 45.8828 32.5552 46.0181C32.6176 46.0873 32.6673 46.1661 32.7005 46.2551H33.0494C34.6411 46.2551 35.9358 44.8967 35.9358 43.2256C35.9358 41.6019 34.7087 40.2715 33.1746 40.2022C33.1535 40.2009 33.1333 40.2002 33.1118 40.2002H32.7532V41.7025H33.0494Z" fill="#FE5000" stroke="#FE5000" stroke-width="0.5"/><path id="Vector_19" d="M31.5169 46.0186C31.3953 45.8836 31.3199 45.7036 31.3199 45.5038V44.752H28.8526C28.4568 44.752 28.1362 45.0881 28.1362 45.5038C28.1362 45.918 28.4568 46.2556 28.8526 46.2556H31.3719C31.406 46.1663 31.4558 46.0879 31.5169 46.0186Z" fill="#FE5000" stroke="#FE5000" stroke-width="0.5"/><path id="Vector_20" d="M31.3199 40.201H31.0243C30.2224 40.201 29.5702 39.5171 29.5702 38.6779C29.5702 37.8354 30.2224 37.1528 31.0243 37.1528H31.3199V35.6484H31.0243C29.432 35.6484 28.1362 37.0062 28.1362 38.6779C28.1362 40.347 29.4316 41.7034 31.0243 41.7034H31.3199V40.201Z" fill="#FE5000" stroke="#FE5000" stroke-width="0.5"/><path id="Vector_21" d="M32.0358 46.2556C31.8303 46.2556 31.6482 46.1635 31.5169 46.0186C31.4557 46.0878 31.406 46.1666 31.3718 46.2556C31.3383 46.3401 31.3198 46.4338 31.3198 46.5338V47.5202C31.3198 47.9358 31.6398 48.2713 32.0358 48.2713C32.4325 48.2713 32.7531 47.9358 32.7531 47.5202V46.5338C32.7531 46.4338 32.7336 46.3401 32.7008 46.2556C32.6673 46.1662 32.6179 46.0878 32.5554 46.0186C32.426 46.1635 32.2416 46.2556 32.0358 46.2556Z" fill="#FE5000" stroke="#FE5000" stroke-width="0.5"/><path id="Vector_22" d="M32.7531 35.648V34.6424C32.7531 34.2282 32.4325 33.8906 32.0358 33.8906C31.6398 33.8906 31.3198 34.2282 31.3198 34.6424V35.648V37.1523V40.2002V41.7025V44.7511V45.5029C31.3198 45.7028 31.3952 45.8824 31.5169 46.0178C31.6479 46.1631 31.8303 46.2548 32.0358 46.2548C32.2416 46.2548 32.426 46.1627 32.5554 46.0178C32.6777 45.8828 32.7531 45.7028 32.7531 45.5029V44.7511V41.7025V40.2002V37.1523V35.648Z" fill="#FE5000" stroke="#FE5000" stroke-width="0.5"/></g></g></svg>