<svg xmlns="http://www.w3.org/2000/svg" width="58" height="58" viewBox="0 0 58 58" fill="none"><path fill-rule="evenodd" clip-rule="evenodd" d="M29.5 7C39.1579 7 46.988 14.6961 46.988 24.1911C46.988 24.1911 47.9828 38.3869 31.8459 51.1898C30.4852 52.2701 28.5159 52.2701 27.1542 51.1898C11.0173 38.3869 12.012 24.1911 12.012 24.1911C12.012 14.6972 19.8411 7 29.5 7ZM38.0782 24.3177C38.0782 28.9114 34.2899 32.6353 29.6168 32.6353C24.9437 32.6353 21.1555 28.9114 21.1555 24.3177C21.1555 19.7239 24.9437 16 29.6168 16C34.2899 16 38.0782 19.7239 38.0782 24.3177Z" fill="#101820"/></svg>