<?xml version="1.0" encoding="UTF-8"?>
<svg xmlns="http://www.w3.org/2000/svg" width="170" height="77" viewBox="0 0 170 77" fill="none">
  <g id="ToDo logo">
    <g id="_1037278861120">
      <path id="Vector" d="M46.8917 54.8356C46.8917 64.888 38.7617 73.1122 28.8243 73.1122H22.1638C12.2264 73.1122 4.09612 64.888 4.09612 54.8356C4.09612 44.7832 12.2264 36.559 22.1638 36.559H28.8243C38.7617 36.559 46.8917 44.7832 46.8917 54.8356ZM45.0818 21.4869V33.8672C45.0818 37.532 39.4517 37.5394 39.4498 33.869V12.8667C39.4498 9.19443 33.8182 9.2011 33.8182 12.8667C33.8182 18.7292 33.8182 27.0363 33.8182 28.4109C33.8182 32.0768 28.187 32.0832 28.187 28.4109V28.4946C28.187 27.5388 28.1862 22.3329 28.1862 18.3003C28.1862 14.6289 22.5554 14.6347 22.5554 18.3003V29.9813C22.5554 29.9287 22.5422 29.8834 22.5404 29.8316C22.3832 33.2865 17.0956 33.2921 16.9385 29.8316C16.9356 29.8834 16.9235 29.9287 16.9235 29.9823V7.97612C16.9235 4.30464 11.2915 4.31024 11.2915 7.97612C11.2915 16.9313 11.2915 33.3356 11.2915 33.8672C11.2915 37.532 5.66249 37.5394 5.66064 33.8698V22.7346C5.66064 19.0634 0.0289917 19.069 0.0289917 22.7346V36.7716H0V55.7982L0.0503364 55.6955C0.501449 67.2054 9.94292 76.4804 21.4261 76.4804H29.3155C41.0842 76.4804 50.7126 66.7406 50.7126 54.8356V41.2699V36.7716V21.4869C50.7126 17.8157 45.0818 17.8213 45.0818 21.4869Z" fill="#FE5000"/>
      <path id="Union" fill-rule="evenodd" clip-rule="evenodd" d="M28.1866 2.75141V7.69748C28.1866 11.3634 22.5549 11.3698 22.5549 7.69748V2.75141C22.5549 -0.914202 28.1866 -0.920069 28.1866 2.75141ZM30.0314 54.8354C30.0314 57.8292 32.4301 60.2557 35.3899 60.2557C38.3494 60.2557 40.7492 57.8292 40.7492 54.8354C40.7492 51.8413 38.3494 49.4149 35.3899 49.4149C32.4301 49.4149 30.0314 51.8413 30.0314 54.8354ZM20.6935 57.5455C20.6935 54.5514 18.2945 52.1249 15.335 52.1249C12.3754 52.1249 9.97644 54.5514 9.97644 57.5455H20.6935Z" fill="#FEFEFE"/>
      <path id="Union_2" fill-rule="evenodd" clip-rule="evenodd" d="M120.673 60.0317H126.955C133.503 60.0317 137.705 55.9729 137.705 49.9606C137.705 43.9493 133.503 39.8903 126.955 39.8903H120.673C120.191 39.8903 119.801 40.2856 119.801 40.7728V59.1492C119.801 59.6367 120.191 60.0317 120.673 60.0317ZM118.634 36.5586H127.182C135.699 36.5586 141.491 41.9962 141.491 49.9606C141.491 57.9252 135.699 63.3626 127.182 63.3626H118.634C117.188 63.3626 116.016 62.1771 116.016 60.7139V39.2083C116.016 37.7452 117.188 36.5586 118.634 36.5586ZM152.814 53.2157C152.814 57.542 155.729 60.376 159.59 60.376C163.452 60.376 166.329 57.542 166.329 53.2157C166.329 48.8887 163.452 46.0933 159.59 46.0933C155.729 46.0933 152.814 48.8887 152.814 53.2157ZM149.143 53.2157C149.143 47.166 153.572 42.8774 159.59 42.8774C165.609 42.8774 170 47.166 170 53.2157C170 59.2657 165.609 63.5919 159.59 63.5919C153.572 63.5919 149.143 59.2657 149.143 53.2157Z" fill="#FE5000"/>
      <path id="Union_3" fill-rule="evenodd" clip-rule="evenodd" d="M63.5105 39.8895H70.9484V61.6962C70.9484 62.7425 71.7874 63.5911 72.8217 63.5911C73.8571 63.5911 74.696 62.7425 74.696 61.6962V39.8895H82.135C83.0436 39.8895 83.7813 39.1433 83.7813 38.2239C83.7813 37.3038 83.0436 36.5586 82.135 36.5586H63.5105C62.6017 36.5586 61.864 37.3038 61.864 38.2239C61.864 39.1433 62.6017 39.8895 63.5105 39.8895ZM97.954 46.0932C101.816 46.0932 104.692 48.8874 104.692 53.2145C104.692 57.5418 101.816 60.3747 97.954 60.3747C94.0931 60.3747 91.1781 57.5418 91.1781 53.2145C91.1781 48.8874 94.0931 46.0932 97.954 46.0932ZM97.954 42.8762C91.9361 42.8762 87.507 47.1648 87.507 53.2145C87.507 59.2655 91.9361 63.5915 97.954 63.5915C103.973 63.5915 108.364 59.2655 108.364 53.2145C108.364 47.1648 103.973 42.8762 97.954 42.8762Z" fill="#FEFEFE"/>
      <path id="Union_4" fill-rule="evenodd" clip-rule="evenodd" d="M154.234 68.4032C154.292 68.3466 154.364 68.3184 154.449 68.3184C154.538 68.3184 154.61 68.3466 154.666 68.4032C154.722 68.4587 154.749 68.5328 154.749 68.6232V73.1884C154.749 73.4181 154.795 73.6053 154.888 73.749C154.98 73.8931 155.098 73.9656 155.24 73.9656H155.438C155.517 73.9656 155.58 73.9939 155.628 74.0493C155.675 74.1056 155.699 74.1792 155.699 74.2704C155.699 74.3606 155.666 74.4342 155.6 74.4905C155.534 74.5459 155.448 74.5742 155.343 74.5742H155.24C154.918 74.5742 154.655 74.4454 154.452 74.1856C154.25 73.9269 154.147 73.5949 154.147 73.1884V68.6232C154.147 68.5328 154.177 68.4587 154.234 68.4032ZM118.62 73.8333C118.863 73.6866 119.055 73.486 119.194 73.2321C119.335 72.979 119.404 72.695 119.404 72.3797C119.404 72.2893 119.402 72.2226 119.396 72.1792C119.391 72.169 119.389 72.1557 119.389 72.1389C119.336 71.7228 119.163 71.3814 118.869 71.1142C118.577 70.8469 118.221 70.7133 117.805 70.7133C117.504 70.7133 117.231 70.7859 116.985 70.9296C116.74 71.0736 116.547 71.2731 116.407 71.5262C116.267 71.7804 116.197 72.0645 116.197 72.3797C116.197 72.695 116.267 72.979 116.407 73.2321C116.547 73.486 116.74 73.6866 116.985 73.8333C117.231 73.9799 117.504 74.0536 117.805 74.0536C118.106 74.0536 118.377 73.9799 118.62 73.8333ZM120.006 70.497V72.3797C120.006 72.7966 119.909 73.1756 119.717 73.5172C119.524 73.8586 119.26 74.1269 118.925 74.3216C118.589 74.5163 118.217 74.6142 117.805 74.6142C117.394 74.6142 117.02 74.5163 116.685 74.3216C116.349 74.1269 116.085 73.8586 115.892 73.5172C115.7 73.1756 115.604 72.7966 115.604 72.3797C115.604 71.9628 115.697 71.5855 115.885 71.2459C116.072 70.9072 116.328 70.64 116.653 70.4453C116.978 70.2503 117.341 70.1525 117.741 70.1525C118.085 70.1525 118.399 70.2269 118.684 70.3738C118.969 70.5205 119.204 70.7219 119.389 70.9776V68.6312C119.389 68.5399 119.417 68.4655 119.475 68.4063C119.534 68.3479 119.607 68.3188 119.697 68.3188C119.787 68.3188 119.859 68.3479 119.915 68.4063C119.97 68.4655 119.998 68.5399 119.998 68.6312V70.4256C120.003 70.4416 120.006 70.4658 120.006 70.497ZM73.6071 74.0458C73.6601 74.1043 73.6862 74.1795 73.6862 74.2699C73.6862 74.3555 73.6546 74.4278 73.5913 74.4862C73.528 74.5446 73.4489 74.5747 73.354 74.5747H73.1876C72.9076 74.5747 72.6566 74.5059 72.4352 74.3704C72.2137 74.2341 72.0408 74.0496 71.9163 73.8173C71.7924 73.5847 71.7302 73.3223 71.7302 73.0278V70.8902H71.2158C71.1311 70.8902 71.0642 70.8648 71.0141 70.8139C70.9637 70.7632 70.9387 70.7 70.9387 70.6259C70.9387 70.5448 70.9637 70.48 71.0141 70.4291C71.0642 70.3784 71.1311 70.3538 71.2158 70.3538H71.7302V69.1118C71.7302 69.0216 71.7581 68.9464 71.8137 68.888C71.8688 68.8288 71.9414 68.7995 72.0315 68.7995C72.1209 68.7995 72.1952 68.8288 72.253 68.888C72.3115 68.9464 72.3403 69.0216 72.3403 69.1118V70.3538H73.2351C73.3197 70.3538 73.3867 70.3784 73.4368 70.4291C73.4872 70.48 73.5122 70.5448 73.5122 70.6259C73.5122 70.7 73.4872 70.7632 73.4368 70.8139C73.3867 70.8648 73.3197 70.8902 73.2351 70.8902H72.3403V73.0278C72.3403 73.3007 72.4194 73.5236 72.5776 73.6978C72.7365 73.8709 72.9393 73.9573 73.1876 73.9573H73.4015C73.4853 73.9573 73.5541 73.9874 73.6071 74.0458ZM76.6202 70.9301C76.3744 71.0741 76.182 71.2733 76.0425 71.5264C75.902 71.7806 75.8323 72.0676 75.8323 72.3884C75.8323 72.7026 75.902 72.9877 76.0425 73.2408C76.182 73.495 76.3744 73.6934 76.6202 73.8375C76.8656 73.9823 77.1382 74.0537 77.4396 74.0537C77.7454 74.0537 78.0199 73.9823 78.2627 73.8375C78.5053 73.6934 78.6962 73.495 78.8328 73.2408C78.9704 72.9877 79.0392 72.7026 79.0392 72.3884C79.0392 72.0676 78.9704 71.7806 78.8328 71.5264C78.6962 71.2733 78.5053 71.0741 78.2627 70.9301C78.0199 70.786 77.7454 70.7135 77.4396 70.7135C77.1382 70.7135 76.8656 70.786 76.6202 70.9301ZM78.5641 70.4417C78.896 70.6338 79.1591 70.9007 79.3519 71.2424C79.5443 71.584 79.6411 71.966 79.6411 72.3884C79.6411 72.8098 79.5462 73.1901 79.3556 73.5289C79.1658 73.8684 78.9026 74.1338 78.5678 74.3266C78.2329 74.5186 77.8562 74.6146 77.4396 74.6146C77.0227 74.6146 76.646 74.5186 76.3111 74.3266C75.9755 74.1338 75.7132 73.8684 75.5233 73.5289C75.3338 73.1901 75.2378 72.8098 75.2378 72.3884C75.2378 71.966 75.3338 71.584 75.5233 71.2424C75.7132 70.9007 75.9755 70.6338 76.3111 70.4417C76.646 70.2497 77.0227 70.1529 77.4396 70.1529C77.8562 70.1529 78.2311 70.2497 78.5641 70.4417ZM82.1943 71.5264C82.3338 71.2733 82.5265 71.0741 82.772 70.9301C83.0174 70.786 83.2901 70.7135 83.5914 70.7135C83.8975 70.7135 84.1717 70.786 84.4146 70.9301C84.6574 71.0741 84.848 71.2733 84.9849 71.5264C85.1225 71.7806 85.1913 72.0676 85.1913 72.3884C85.1913 72.7026 85.1225 72.9877 84.9849 73.2408C84.848 73.495 84.6574 73.6934 84.4146 73.8375C84.1717 73.9823 83.8975 74.0537 83.5914 74.0537C83.2901 74.0537 83.0174 73.9823 82.772 73.8375C82.5265 73.6934 82.3338 73.495 82.1943 73.2408C82.0541 72.9877 81.9842 72.7026 81.9842 72.3884C81.9842 72.0676 82.0541 71.7806 82.1943 71.5264ZM85.5037 71.2424C85.3113 70.9007 85.0479 70.6338 84.7159 70.4417C84.3829 70.2497 84.008 70.1529 83.5914 70.1529C83.1749 70.1529 82.7981 70.2497 82.4632 70.4417C82.1274 70.6338 81.865 70.9007 81.6755 71.2424C81.4856 71.584 81.3899 71.966 81.3899 72.3884C81.3899 72.8098 81.4856 73.1901 81.6755 73.5289C81.865 73.8684 82.1274 74.1338 82.4632 74.3266C82.7981 74.5186 83.1749 74.6146 83.5914 74.6146C84.008 74.6146 84.3848 74.5186 84.7196 74.3266C85.0544 74.1338 85.3178 73.8684 85.5074 73.5289C85.6972 73.1901 85.7929 72.8098 85.7929 72.3884C85.7929 71.966 85.6962 71.584 85.5037 71.2424ZM91.7313 71.0821C91.4671 71.3333 91.306 71.6645 91.2485 72.0758H94.1458C94.1039 71.6645 93.956 71.3333 93.7029 71.0821C93.449 70.8308 93.1244 70.7058 92.7292 70.7058C92.3274 70.7058 91.9952 70.8308 91.7313 71.0821ZM93.7661 70.43C94.0667 70.6135 94.3 70.8684 94.4667 71.1941C94.633 71.5197 94.7158 71.8913 94.7158 72.3081C94.7158 72.3937 94.6897 72.4615 94.6367 72.5121C94.5837 72.5631 94.516 72.5884 94.4313 72.5884H91.2327C91.2743 73.0261 91.4439 73.3808 91.7394 73.6536C92.0345 73.9254 92.4046 74.062 92.8473 74.062C93.0379 74.062 93.2285 74.0289 93.4221 73.9612C93.6145 73.8953 93.7691 73.8107 93.8853 73.7091C93.9531 73.6563 94.0248 73.6291 94.0984 73.6291C94.1569 73.6291 94.2146 73.6507 94.2732 73.6931C94.3412 73.7571 94.3755 73.8294 94.3755 73.9094C94.3755 73.979 94.3467 74.0404 94.289 74.094C94.1142 74.2436 93.8927 74.3676 93.624 74.4666C93.3543 74.5653 93.0957 74.6143 92.8473 74.6143C92.4249 74.6143 92.0484 74.5202 91.7154 74.33C91.3824 74.1409 91.1227 73.8766 90.9358 73.5368C90.7481 73.1981 90.654 72.8151 90.654 72.3881C90.654 71.9553 90.7426 71.5696 90.9192 71.2309C91.0969 70.8911 91.3413 70.6268 91.6558 70.4377C91.9701 70.2486 92.3274 70.1534 92.7292 70.1534C93.1199 70.1534 93.4648 70.2457 93.7661 70.43ZM99.74 73.2411C99.6005 73.4942 99.4089 73.6937 99.1663 73.8377C98.9235 73.9815 98.6519 74.054 98.3506 74.054C98.05 74.054 97.7766 73.9815 97.5311 73.8377C97.2854 73.6937 97.0929 73.4942 96.9535 73.2411C96.8129 72.9872 96.7433 72.7029 96.7433 72.3876C96.7433 72.0727 96.8129 71.7884 96.9535 71.5352C97.0929 71.2813 97.2854 71.0808 97.5311 70.9341C97.7766 70.7874 98.05 70.7138 98.3506 70.7138C98.6519 70.7138 98.9235 70.7874 99.1663 70.9341C99.4089 71.0808 99.6005 71.2813 99.74 71.5352C99.8805 71.7884 99.9504 72.0727 99.9504 72.3876C99.9504 72.7029 99.8805 72.9872 99.74 73.2411ZM100.263 71.2501C100.07 70.9087 99.8062 70.6405 99.4714 70.4458C99.1355 70.2511 98.7626 70.1532 98.3506 70.1532C97.9385 70.1532 97.5654 70.2511 97.2306 70.4458C96.8949 70.6405 96.6308 70.9087 96.4383 71.2501C96.2456 71.5926 96.1498 71.971 96.1498 72.3876C96.1498 72.8045 96.2429 73.1819 96.4306 73.5214C96.6176 73.8601 96.8736 74.1274 97.1989 74.3221C97.5237 74.517 97.8863 74.6149 98.2873 74.6149C98.6306 74.6149 98.9448 74.5413 99.2293 74.3946C99.5151 74.2479 99.7495 74.0455 99.9346 73.7897V74.2703C99.9346 74.3607 99.9633 74.4341 100.021 74.4906C100.08 74.5461 100.153 74.5744 100.243 74.5744C100.332 74.5744 100.407 74.5453 100.465 74.4869C100.522 74.4277 100.552 74.3559 100.552 74.2703V72.3876C100.552 71.971 100.455 71.5926 100.263 71.2501ZM104.938 70.3334C105.197 70.4536 105.405 70.6203 105.564 70.834C105.606 70.9036 105.627 70.9646 105.627 71.0183C105.627 71.1087 105.585 71.181 105.5 71.2346C105.464 71.261 105.414 71.2743 105.35 71.2743C105.239 71.2743 105.147 71.2346 105.073 71.1548C104.815 70.8556 104.46 70.7059 104.012 70.7059C103.722 70.7059 103.489 70.7662 103.315 70.8865C103.141 71.006 103.054 71.1567 103.054 71.338C103.054 71.5311 103.136 71.6845 103.299 71.7992C103.463 71.9139 103.753 72.0061 104.17 72.0749C104.735 72.1718 105.139 72.328 105.382 72.5435C105.625 72.7598 105.746 73.0279 105.746 73.3487C105.746 73.5944 105.673 73.8136 105.528 74.0056C105.383 74.1985 105.181 74.347 104.922 74.4542C104.664 74.5617 104.371 74.6143 104.043 74.6143C103.716 74.6143 103.402 74.558 103.101 74.446C102.801 74.3339 102.558 74.1768 102.373 73.9736C102.32 73.9096 102.294 73.8485 102.294 73.7901C102.294 73.6989 102.336 73.6189 102.42 73.5493C102.484 73.5013 102.55 73.4767 102.619 73.4767C102.708 73.4767 102.785 73.5144 102.848 73.5888C102.975 73.7384 103.142 73.8541 103.351 73.9331C103.559 74.0139 103.791 74.0536 104.043 74.0536C104.413 74.0536 104.69 73.9896 104.875 73.8616C105.06 73.7336 105.155 73.5653 105.16 73.3573C105.16 73.1644 105.067 73.0044 104.882 72.8764C104.698 72.7476 104.405 72.6526 104.004 72.5875C103.486 72.503 103.1 72.3542 102.843 72.1435C102.588 71.9328 102.46 71.6778 102.46 71.3786C102.46 70.9892 102.609 70.687 102.907 70.4734C103.205 70.26 103.579 70.1525 104.028 70.1525C104.376 70.1525 104.68 70.2139 104.938 70.3334ZM111.13 70.5933C111.151 70.5453 111.162 70.4973 111.162 70.4493C111.162 70.3432 111.101 70.265 110.979 70.217C110.932 70.1962 110.884 70.185 110.837 70.185C110.731 70.185 110.652 70.2442 110.6 70.361L109.126 73.6455L107.582 70.3533C107.535 70.2416 107.456 70.185 107.345 70.185C107.292 70.185 107.245 70.1962 107.203 70.217C107.087 70.265 107.028 70.345 107.028 70.4568C107.028 70.5104 107.039 70.5584 107.06 70.6019L108.826 74.3021V74.3099L108.042 76.0645C108.021 76.1125 108.01 76.1595 108.01 76.2086C108.01 76.3203 108.071 76.4003 108.193 76.4483C108.234 76.4699 108.282 76.4803 108.335 76.4803C108.44 76.4803 108.517 76.4193 108.565 76.2968L111.13 70.5933ZM122.797 71.5264C122.937 71.2733 123.129 71.0741 123.375 70.9301C123.621 70.786 123.893 70.7135 124.194 70.7135C124.5 70.7135 124.775 70.786 125.018 70.9301C125.26 71.0741 125.451 71.2733 125.588 71.5264C125.725 71.7806 125.794 72.0676 125.794 72.3884C125.794 72.7026 125.725 72.9877 125.588 73.2408C125.451 73.495 125.26 73.6934 125.018 73.8375C124.775 73.9823 124.5 74.0537 124.194 74.0537C123.893 74.0537 123.621 73.9823 123.375 73.8375C123.129 73.6934 122.937 73.495 122.797 73.2408C122.657 72.9877 122.587 72.7026 122.587 72.3884C122.587 72.0676 122.657 71.7806 122.797 71.5264ZM126.107 71.2424C125.914 70.9007 125.651 70.6338 125.319 70.4417C124.986 70.2497 124.611 70.1529 124.194 70.1529C123.778 70.1529 123.401 70.2497 123.066 70.4417C122.73 70.6338 122.468 70.9007 122.278 71.2424C122.089 71.584 121.993 71.966 121.993 72.3884C121.993 72.8098 122.089 73.1901 122.278 73.5289C122.468 73.8684 122.73 74.1338 123.066 74.3266C123.401 74.5186 123.778 74.6146 124.194 74.6146C124.611 74.6146 124.988 74.5186 125.323 74.3266C125.658 74.1338 125.921 73.8684 126.11 73.5289C126.3 73.1901 126.396 72.8098 126.396 72.3884C126.396 71.966 126.299 71.584 126.107 71.2424ZM133.894 70.3334C134.152 70.4536 134.36 70.6203 134.52 70.834C134.561 70.9036 134.583 70.9646 134.583 71.0183C134.583 71.1087 134.54 71.181 134.455 71.2346C134.419 71.261 134.369 71.2743 134.306 71.2743C134.194 71.2743 134.102 71.2346 134.029 71.1548C133.77 70.8556 133.416 70.7059 132.967 70.7059C132.677 70.7059 132.445 70.7662 132.271 70.8865C132.097 71.006 132.009 71.1567 132.009 71.338C132.009 71.5311 132.091 71.6845 132.255 71.7992C132.418 71.9139 132.709 72.0061 133.126 72.0749C133.691 72.1718 134.095 72.328 134.337 72.5435C134.58 72.7598 134.701 73.0279 134.701 73.3487C134.701 73.5944 134.628 73.8136 134.483 74.0056C134.338 74.1985 134.136 74.347 133.878 74.4542C133.619 74.5617 133.326 74.6143 132.999 74.6143C132.672 74.6143 132.357 74.558 132.057 74.446C131.756 74.3339 131.514 74.1768 131.328 73.9736C131.275 73.9096 131.249 73.8485 131.249 73.7901C131.249 73.6989 131.291 73.6189 131.376 73.5493C131.439 73.5013 131.505 73.4767 131.574 73.4767C131.663 73.4767 131.741 73.5144 131.804 73.5888C131.93 73.7384 132.098 73.8541 132.306 73.9331C132.514 74.0139 132.746 74.0536 132.999 74.0536C133.368 74.0536 133.645 73.9896 133.831 73.8616C134.016 73.7336 134.11 73.5653 134.115 73.3573C134.115 73.1644 134.023 73.0044 133.838 72.8764C133.654 72.7476 133.361 72.6526 132.96 72.5875C132.442 72.503 132.056 72.3542 131.799 72.1435C131.543 71.9328 131.415 71.6778 131.415 71.3786C131.415 70.9892 131.565 70.687 131.862 70.4734C132.161 70.26 132.535 70.1525 132.983 70.1525C133.332 70.1525 133.635 70.2139 133.894 70.3334ZM136.982 70.1928C136.892 70.1928 136.818 70.223 136.76 70.2811C136.702 70.3395 136.673 70.4147 136.673 70.5062V74.262C136.673 74.3524 136.702 74.4276 136.76 74.486C136.818 74.5452 136.892 74.5745 136.982 74.5745C137.072 74.5745 137.144 74.5452 137.199 74.486C137.255 74.4276 137.283 74.3524 137.283 74.262V70.5062C137.283 70.4147 137.255 70.3395 137.199 70.2811C137.144 70.223 137.072 70.1928 136.982 70.1928ZM137.409 68.9198C137.409 68.7918 137.368 68.6873 137.283 68.6072C137.198 68.5275 137.098 68.487 136.982 68.487C136.86 68.487 136.757 68.5275 136.673 68.6072C136.588 68.6873 136.546 68.7918 136.546 68.9198C136.546 69.042 136.587 69.1465 136.669 69.2322C136.751 69.3178 136.852 69.3602 136.974 69.3602C137.095 69.3602 137.198 69.3178 137.283 69.2322C137.368 69.1465 137.409 69.042 137.409 68.9198ZM145.015 70.3695C145.254 70.5189 145.442 70.7317 145.576 71.0064C145.711 71.2811 145.778 71.6001 145.778 71.9634V74.2704C145.778 74.3616 145.751 74.4341 145.695 74.4904C145.64 74.5469 145.567 74.5742 145.478 74.5742C145.388 74.5742 145.314 74.5469 145.256 74.4904C145.198 74.4341 145.169 74.3616 145.169 74.2704V71.9634C145.169 71.5841 145.072 71.2841 144.88 71.063C144.687 70.8408 144.435 70.7298 144.123 70.7298C143.791 70.7298 143.522 70.8418 143.316 71.0667C143.111 71.2904 143.01 71.5841 143.015 71.9474V71.9634V74.2704C143.015 74.3616 142.988 74.4341 142.932 74.4904C142.876 74.5469 142.804 74.5742 142.714 74.5742C142.624 74.5742 142.551 74.5469 142.492 74.4904C142.434 74.4341 142.406 74.3616 142.406 74.2704V71.9634C142.406 71.5841 142.309 71.2841 142.116 71.063C141.924 70.8408 141.672 70.7298 141.36 70.7298C141.033 70.7298 140.764 70.8397 140.553 71.0582C140.342 71.2774 140.236 71.5577 140.236 71.8994V74.2704C140.236 74.3616 140.208 74.4341 140.153 74.4904C140.097 74.5469 140.025 74.5742 139.935 74.5742C139.845 74.5742 139.771 74.5469 139.714 74.4904C139.655 74.4341 139.626 74.3616 139.626 74.2704V70.5058C139.626 70.4146 139.655 70.3402 139.714 70.281C139.771 70.2226 139.845 70.1935 139.935 70.1935C140.025 70.1935 140.097 70.2226 140.153 70.281C140.208 70.3402 140.236 70.4146 140.236 70.5058V70.6818C140.383 70.5114 140.559 70.3789 140.762 70.2858C140.966 70.1916 141.186 70.1455 141.423 70.1455C141.714 70.1455 141.975 70.2122 142.207 70.3458C142.44 70.4786 142.624 70.6658 142.762 70.9056C142.914 70.6658 143.114 70.4786 143.36 70.3458C143.605 70.2122 143.881 70.1455 144.187 70.1455C144.498 70.1455 144.775 70.2199 145.015 70.3695ZM151.515 73.2411C151.375 73.4942 151.182 73.6937 150.937 73.8377C150.691 73.9815 150.418 74.054 150.118 74.054C149.7 74.054 149.346 73.9204 149.053 73.6532C148.759 73.387 148.586 73.0445 148.533 72.6285C148.533 72.6117 148.531 72.5986 148.526 72.5882C148.521 72.5458 148.518 72.4781 148.518 72.3876C148.518 72.0727 148.588 71.7884 148.728 71.5352C148.868 71.2813 149.059 71.0808 149.302 70.9341C149.545 70.7874 149.816 70.7138 150.118 70.7138C150.418 70.7138 150.691 70.7874 150.937 70.9341C151.182 71.0808 151.375 71.2813 151.515 71.5352C151.655 71.7884 151.725 72.0727 151.725 72.3876C151.725 72.7029 151.655 72.9872 151.515 73.2411ZM152.03 71.2501C151.836 70.9087 151.573 70.6405 151.237 70.4458C150.902 70.2511 150.53 70.1532 150.118 70.1532C149.705 70.1532 149.332 70.2511 148.997 70.4458C148.662 70.6405 148.398 70.9087 148.205 71.2501C148.013 71.5926 147.916 71.971 147.916 72.3876V74.2703C147.916 74.3023 147.919 74.3261 147.924 74.3421V76.1362C147.924 76.2274 147.952 76.3018 148.007 76.361C148.063 76.4194 148.135 76.4485 148.225 76.4485C148.315 76.4485 148.388 76.4194 148.447 76.361C148.505 76.3018 148.533 76.2274 148.533 76.1362V73.7897C148.719 74.0455 148.953 74.2479 149.238 74.3946C149.523 74.5413 149.838 74.6149 150.181 74.6149C150.582 74.6149 150.945 74.517 151.269 74.3221C151.593 74.1274 151.85 73.8601 152.037 73.5214C152.225 73.1819 152.318 72.8045 152.318 72.3876C152.318 71.971 152.222 71.5926 152.03 71.2501ZM157.457 72.0758C157.515 71.6645 157.676 71.3333 157.94 71.0821C158.204 70.8308 158.536 70.7058 158.938 70.7058C159.333 70.7058 159.658 70.8308 159.912 71.0821C160.165 71.3333 160.313 71.6645 160.355 72.0758H157.457ZM160.676 71.1941C160.51 70.8684 160.276 70.6135 159.975 70.43C159.674 70.2457 159.329 70.1534 158.938 70.1534C158.536 70.1534 158.179 70.2486 157.865 70.4377C157.55 70.6268 157.306 70.8911 157.128 71.2309C156.951 71.5696 156.863 71.9553 156.863 72.3881C156.863 72.8151 156.957 73.1981 157.145 73.5368C157.332 73.8766 157.591 74.1409 157.924 74.33C158.257 74.5202 158.634 74.6143 159.056 74.6143C159.305 74.6143 159.563 74.5653 159.833 74.4666C160.102 74.3676 160.323 74.2436 160.498 74.094C160.556 74.0404 160.584 73.979 160.584 73.9094C160.584 73.8294 160.55 73.7571 160.482 73.6931C160.424 73.6507 160.366 73.6291 160.307 73.6291C160.234 73.6291 160.162 73.6563 160.094 73.7091C159.978 73.8107 159.824 73.8953 159.631 73.9612C159.438 74.0289 159.247 74.062 159.056 74.062C158.614 74.062 158.243 73.9254 157.949 73.6536C157.653 73.3808 157.484 73.0261 157.442 72.5884H160.64C160.725 72.5884 160.794 72.5631 160.846 72.5121C160.899 72.4615 160.925 72.3937 160.925 72.3081C160.925 71.8913 160.842 71.5197 160.676 71.1941Z" fill="#FEFEFE"/>
    </g>
  </g>
</svg>